<?xml version="1.0" encoding="utf-8"?>
<!-- Generator: Adobe Illustrator 16.0.0, SVG Export Plug-In . SVG Version: 6.00 Build 0)  -->
<!DOCTYPE svg PUBLIC "-//W3C//DTD SVG 1.1//EN" "http://www.w3.org/Graphics/SVG/1.1/DTD/svg11.dtd">
<svg version="1.1" id="Layer_1" xmlns="http://www.w3.org/2000/svg" xmlns:xlink="http://www.w3.org/1999/xlink" x="0px" y="0px"
	 width="86.5px" height="86.5px" viewBox="0 0 86.5 86.5" enable-background="new 0 0 86.5 86.5" xml:space="preserve">
<g>
	<path fill="#FFFFFF" d="M43.252,34.99c-4.552,0-8.246,3.703-8.246,8.26c0,4.541,3.694,8.246,8.246,8.246
		c4.538,0,8.246-3.705,8.246-8.246C51.498,38.693,47.79,34.99,43.252,34.99z"/>
	<path fill="#FFFFFF" d="M53.673,23.186H32.816c-5.315,0-9.633,4.328-9.633,9.633v20.863c0,5.305,4.317,9.633,9.633,9.633h20.857
		c5.326,0,9.644-4.328,9.644-9.633V32.818C63.317,27.514,59,23.186,53.673,23.186z M43.252,55.656
		c-6.849,0-12.398-5.576-12.398-12.406c0-6.838,5.55-12.412,12.398-12.412c6.833,0,12.41,5.574,12.41,12.412
		C55.662,50.08,50.085,55.656,43.252,55.656z M56.19,33.111c-1.647,0-2.986-1.328-2.986-2.979c0-1.643,1.339-2.986,2.986-2.986
		c1.636,0,2.975,1.344,2.975,2.986C59.165,31.783,57.826,33.111,56.19,33.111z"/>
	<path fill="#FFFFFF" d="M63.177,7.668H23.322c-8.598,0-15.656,7.059-15.656,15.656v39.805c0,8.645,7.058,15.703,15.656,15.703
		h39.855c8.599,0,15.656-7.059,15.656-15.703V23.324C78.833,14.727,71.776,7.668,63.177,7.668z M67.469,53.682
		c0,7.609-6.185,13.785-13.796,13.785H32.816c-7.597,0-13.785-6.176-13.785-13.785V32.818c0-7.602,6.188-13.785,13.785-13.785
		h20.857c7.611,0,13.796,6.184,13.796,13.785V53.682z"/>
</g>
</svg>
