<?xml version="1.0" encoding="utf-8"?>
<!-- Generator: Adobe Illustrator 16.0.0, SVG Export Plug-In . SVG Version: 6.00 Build 0)  -->
<!DOCTYPE svg PUBLIC "-//W3C//DTD SVG 1.1//EN" "http://www.w3.org/Graphics/SVG/1.1/DTD/svg11.dtd">
<svg version="1.1" id="Layer_1" xmlns="http://www.w3.org/2000/svg" xmlns:xlink="http://www.w3.org/1999/xlink" x="0px" y="0px"
	 width="86.5px" height="86.5px" viewBox="0 0 86.5 86.5" enable-background="new 0 0 86.5 86.5" xml:space="preserve">
<path fill="#FFFFFF" d="M63.177,7.666H23.322c-8.598,0-15.656,7.059-15.656,15.656v39.805c0,8.648,7.058,15.707,15.656,15.707
	h39.855c8.599,0,15.656-7.059,15.656-15.707V23.322C78.833,14.725,71.776,7.666,63.177,7.666z M33.091,63.742h-8.459V36.418h8.459
	V63.742z M28.821,32.842c-2.762,0-5-2.26-5-5.047c0-2.781,2.238-5.041,5-5.041s5.003,2.26,5.003,5.041
	C33.825,30.582,31.583,32.842,28.821,32.842z M64.788,63.742H56.37c0,0,0-10.41,0-14.342c0-3.934-1.493-6.129-4.604-6.129
	c-3.386,0-5.154,2.285-5.154,6.129c0,4.211,0,14.342,0,14.342h-8.114V36.418h8.114v3.68c0,0,2.439-4.512,8.235-4.512
	c5.792,0,9.94,3.535,9.94,10.857C64.788,53.762,64.788,63.742,64.788,63.742z"/>
</svg>
