<?xml version="1.0" encoding="utf-8"?>
<!-- Generator: Adobe Illustrator 16.0.0, SVG Export Plug-In . SVG Version: 6.00 Build 0)  -->
<!DOCTYPE svg PUBLIC "-//W3C//DTD SVG 1.1//EN" "http://www.w3.org/Graphics/SVG/1.1/DTD/svg11.dtd">
<svg version="1.1" id="Layer_1" xmlns="http://www.w3.org/2000/svg" xmlns:xlink="http://www.w3.org/1999/xlink" x="0px" y="0px"
	 width="425.2px" height="425.2px" viewBox="0 0 425.2 425.2" enable-background="new 0 0 425.2 425.2" xml:space="preserve">
<g>
	<path fill="#39B54A" d="M407.471,212.779c0-105.377-87.422-191.085-194.88-191.085c-107.458,0-194.88,85.708-194.88,191.085
		c0,20.041,3.146,39.806,9.367,58.7c1.099,3.318,4.718,5.172,8.082,4.066c3.402-1.062,5.248-4.611,4.165-7.935
		c-5.797-17.651-8.753-36.104-8.753-54.833c0-98.407,81.644-178.472,182.019-178.472c100.375,0,182.027,80.065,182.027,178.472
		c0,98.42-81.652,178.484-182.027,178.484c-16.358,0-32.564-2.121-48.168-6.313c-10.801-2.906-21.374-6.809-31.413-11.609
		c-8.032-3.855-15.859-8.303-23.228-13.262c-2.933-1.982-6.934-1.221-8.937,1.633c-2.014,2.879-1.259,6.818,1.663,8.76
		c7.903,5.328,16.267,10.111,24.879,14.213c10.741,5.137,22.076,9.316,33.625,12.414c16.721,4.488,34.067,6.768,51.578,6.768
		C320.049,403.866,407.471,318.149,407.471,212.779 M42.499,212.779c0,93.938,76.148,170.103,170.092,170.103
		c93.937,0,170.107-76.164,170.107-170.103c0-93.956-76.171-170.109-170.107-170.109C118.646,42.67,42.499,118.824,42.499,212.779
		 M34.668,290.855c4.768,10.403,10.519,20.474,17.136,29.909c1.232,1.773,3.25,2.738,5.291,2.738c1.243,0,2.517-0.357,3.627-1.094
		c2.944-1.984,3.685-5.904,1.663-8.785c-6.152-8.799-11.53-18.199-16-27.926c-1.427-3.166-5.249-4.601-8.482-3.166
		C34.668,283.952,33.215,287.689,34.668,290.855"/>
	<path fill="#FFFFFF" d="M299.65,246.704c2.058-5.371,3.62-10.953,4.673-16.621c0.858-4.527,1.373-9.146,1.553-13.728
		c0.062-1.698-1.263-3.14-2.914-3.187c-1.674-0.051-3.098,1.287-3.166,2.99c-0.16,4.28-0.641,8.609-1.422,12.82
		c-0.984,5.277-2.457,10.516-4.371,15.512c-2.801,7.252-6.549,14.15-11.164,20.481c-13.707,18.825-33.777,31.149-56.482,34.724
		c-22.716,3.578-45.364-2.048-63.786-15.828c-20.825-15.592-32.595-39.117-34.308-63.589l18.83,4.707
		c1.201,0.29,2.426-0.458,2.735-1.671c0.301-1.213-0.427-2.447-1.633-2.757l-20.142-5.021c-0.049-3.116,0.05-6.254,0.309-9.351
		l22.057,5.485c1.202,0.309,2.415-0.458,2.716-1.672c0.309-1.225-0.4-2.457-1.602-2.737l-22.648-5.646
		c1.972-13.956,7.281-27.658,16.126-39.792c13.715-18.816,33.777-31.165,56.501-34.736c22.696-3.555,45.338,2.052,63.768,15.84
		c7.228,5.404,13.511,11.886,18.696,19.234c0.977,1.375,2.868,1.672,4.24,0.675c1.344-0.994,1.676-2.925,0.711-4.298
		c-5.559-7.876-12.289-14.804-20.024-20.588c-19.723-14.755-43.948-20.77-68.279-16.958c-24.33,3.813-45.807,17.024-60.491,37.167
		c-9.333,12.825-14.974,27.25-17.155,41.974l-5.1-1.262c-1.201-0.309-2.426,0.446-2.716,1.672c-0.309,1.203,0.412,2.439,1.614,2.738
		l5.656,1.394c-0.32,3.125-0.481,6.24-0.481,9.35l-17.209-4.302c-1.178-0.29-2.403,0.446-2.7,1.673
		c-0.309,1.212,0.396,2.45,1.602,2.737l18.41,4.611c1.312,26.908,14.005,52.979,36.913,70.11
		c9.821,7.347,20.771,12.546,32.309,15.413c11.591,2.887,23.759,3.451,35.963,1.521c24.318-3.822,45.783-17.02,60.464-37.164
		C292.641,261.838,296.661,254.458,299.65,246.704"/>
	<path fill="#FFFFFF" d="M257.463,219.364l2.896-11.692c1.091-4.302-1.473-8.671-5.706-9.718l-73.886-18.449
		c-1.228-0.276-2.452,0.479-2.753,1.693l-4.314,17.276c-0.305,1.232,0.419,2.466,1.647,2.786l79.37,19.782
		C255.941,221.344,257.143,220.6,257.463,219.364 M192.769,200.86l-14.124-3.522l3.185-12.804l14.143,3.515L192.769,200.86z
		 M219.822,207.611l-22.675-5.654l3.2-12.802l22.667,5.655L219.822,207.611z M253.625,216.029l-29.424-7.331l3.202-12.806
		l26.136,6.534c1.812,0.446,2.905,2.309,2.451,4.151L253.625,216.029z"/>
	<path fill="#FFFFFF" d="M196.213,213.135c-1.209-0.296-2.441,0.47-2.762,1.697c-0.293,1.236,0.431,2.469,1.648,2.777l6.122,1.514
		c1.205,0.32,2.426-0.438,2.738-1.672c0.297-1.227-0.412-2.479-1.644-2.789L196.213,213.135z"/>
	<path fill="#FFFFFF" d="M248.752,245.795c0.297-5.575-3.318-10.731-8.834-12.116c-5.512-1.373-11.113,1.491-13.476,6.571
		l-5.519-1.381c-1.225-0.313-2.453,0.436-2.746,1.67c-0.311,1.244,0.419,2.479,1.617,2.754l5.521,1.396
		c-0.285,5.6,3.326,10.764,8.837,12.137c5.521,1.377,11.11-1.502,13.483-6.578l20.355,5.088c1.196,0.301,2.422-0.459,2.741-1.693
		l8.052-32.248c0.152-0.664,0.022-1.381-0.39-1.93l-5.978-8.122c2.109-10.83-4.478-21.502-15.1-24.15l-86.129-21.475
		c-1.202-0.298-2.426,0.438-2.735,1.682l-14.272,57.189c-0.309,1.222,0.431,2.473,1.644,2.777l10.256,2.563
		c-0.301,5.561,3.311,10.74,8.822,12.121c5.519,1.384,11.129-1.491,13.49-6.568l23.502,5.866c1.221,0.305,2.452-0.45,2.762-1.679
		c0.313-1.229-0.428-2.476-1.64-2.784l-23.518-5.858c0.297-5.572-3.307-10.748-8.818-12.113c-5.519-1.383-11.137,1.496-13.498,6.553
		l-8.074-2.02l3.498-13.932l24.929,6.203c1.224,0.32,2.452-0.438,2.746-1.682c0.32-1.227-0.423-2.471-1.617-2.77l-24.94-6.225
		l8.544-34.317l83.959,20.918c8.536,2.14,13.754,10.983,11.554,19.683c-0.135,0.677-0.017,1.394,0.389,1.953l5.957,8.084
		l-2.631,10.564l-61.995-15.463c-1.213-0.307-2.457,0.447-2.777,1.693c-0.29,1.221,0.45,2.457,1.655,2.77l62.002,15.471
		l-3.486,13.93L248.752,245.795z M235.27,252.375c-3.859-0.965-6.189-4.946-5.223-8.86c0.974-3.942,4.912-6.339,8.77-5.374
		c3.863,0.966,6.18,4.928,5.206,8.838C243.054,250.926,239.114,253.31,235.27,252.375 M170.804,228.75
		c0.988-3.933,4.909-6.361,8.761-5.396c3.856,0.977,6.209,4.951,5.229,8.863c-1,3.922-4.917,6.332-8.761,5.367
		c-3.856-0.957-6.202-4.933-5.24-8.834H170.804z"/>
	<path fill="#FFFFFF" d="M138.51,187.818c-1.206-0.3-2.434,0.45-2.723,1.674c-0.305,1.224,0.416,2.439,1.617,2.738l16.828,4.201
		c1.193,0.29,2.406-0.459,2.727-1.672c0.29-1.217-0.439-2.451-1.633-2.738L138.51,187.818z"/>
</g>
<g>
	<path fill="#FFFFFF" d="M135.434,88.152c1.247-0.829,2.177-0.512,2.74,0.335c0.564,0.848,0.497,1.828-0.75,2.657l-2.643,1.758
		l9.02,13.565c0.696,1.047,0.371,2.235-0.527,2.832c-0.897,0.597-2.118,0.438-2.814-0.609l-9.02-13.565l-2.643,1.757
		c-1.247,0.829-2.177,0.512-2.74-0.335c-0.564-0.848-0.496-1.828,0.751-2.657L135.434,88.152z"/>
	<path fill="#FFFFFF" d="M141.754,86.912c-0.676-1.336-0.358-2.234,0.951-2.896l4.917-2.485c3.233-1.634,5.449,0.03,6.827,2.756
		c1.283,2.538,1.168,4.038-0.124,5.53c2.235-0.291,3.149,0.723,4.284,2.968l1.04,2.057c0.54,1.069,1.266,1.91,1.752,2.872
		c0.285,0.561,0.074,1.405-1.129,2.012c-1.335,0.676-2.421,0.52-3.109-0.709l-2.645-4.835c-0.729-1.31-1.734-1.64-3.124-0.938
		l-1.55,0.784l3.484,6.894c0.567,1.123,0.103,2.262-0.859,2.749c-0.962,0.486-2.155,0.183-2.722-0.939L141.754,86.912z
		 M148.481,91.328l1.389-0.702c1.443-0.729,2.134-1.884,1.081-3.968c-0.972-1.924-1.965-2.428-3.675-1.564l-1.549,0.784
		L148.481,91.328z"/>
	<path fill="#FFFFFF" d="M165.335,91.367l0.579,3.935c0.21,1.358-0.111,2.049-1.32,2.492c-1.125,0.412-2.009,0.001-2.369-0.983
		c-0.124-0.336-0.277-1.014-0.342-1.628l-1.946-16.477c-0.273-2.228,0.017-3.003,2.125-3.775c1.913-0.7,2.832-0.367,4.061,1.512
		l9.077,13.739c0.368,0.567,0.735,1.134,0.848,1.443c0.463,1.266-0.29,2.083-1.218,2.423c-1.377,0.503-2.119,0.137-3.173-1.613
		l-1.682-2.766L165.335,91.367z M168.293,86.905l-4.736-7.802l-0.056,0.021l1.362,9.036L168.293,86.905z"/>
	<path fill="#FFFFFF" d="M173.482,73.241c-0.281-1.227,0.325-2.195,1.698-2.51c1.226-0.282,2.081-0.17,3.169,1.362l7.28,10.435
		l0.058-0.013l-2.631-11.471c-0.283-1.226,0.442-2.222,1.493-2.463c1.05-0.241,2.137,0.339,2.417,1.565l4.032,17.571
		c0.321,1.401-0.402,2.396-1.453,2.638c-1.606,0.368-2.357,0.172-3.375-1.315l-7.319-10.61l-0.059,0.014l2.673,11.645
		c0.28,1.226-0.444,2.222-1.494,2.463c-1.051,0.241-2.137-0.339-2.418-1.565L173.482,73.241z"/>
	<path fill="#FFFFFF" d="M195.251,77.864c-2.238-1.276-3.03-2.851-3.252-5.026c-0.386-3.782,2.349-5.897,5.744-6.244
		c4.468-0.456,6.252,2.583,6.478,4.787c0.136,1.34-0.628,2.11-1.759,2.226c-1.609,0.164-1.923-0.556-2.257-2.057
		c-0.331-1.472-1.216-1.893-2.349-1.777c-1.22,0.125-2.036,0.991-1.905,2.271c0.101,0.982,0.37,1.858,2.469,2.968l3.147,1.635
		c2.32,1.208,3.789,2.624,4.107,5.751c0.377,3.694-1.59,6.242-6.178,6.71c-5.242,0.535-6.371-4.045-6.477-5.088
		c-0.146-1.43,0.05-2.744,1.749-2.917c1.25-0.127,1.916,0.497,2.23,2.391c0.238,1.451,1.045,2.572,2.653,2.408
		c1.579-0.161,2.208-1.368,2.069-2.739c-0.148-1.459-0.785-2.086-2.352-2.98L195.251,77.864z"/>
	<path fill="#FFFFFF" d="M208.677,68.445c0.02-1.497,0.717-2.146,2.184-2.126l5,0.067c3.353,0.044,5.425,1.838,5.366,6.15
		c-0.046,3.413-1.701,6.294-5.204,6.248l-3.472-0.046l-0.101,7.484c-0.016,1.257-0.955,2.053-2.033,2.039
		c-1.078-0.015-1.995-0.835-1.978-2.093L208.677,68.445z M212.591,75.713l1.796,0.024c1.797,0.023,2.622-1.193,2.646-3.079
		c0.03-2.245-0.854-3.245-2.352-3.265l-2.005-0.027L212.591,75.713z"/>
	<path fill="#FFFFFF" d="M224.026,74.995c1.028-7.837,4.354-8.337,7.679-7.9c3.326,0.437,6.411,1.777,5.382,9.615l-0.592,4.513
		c-1.055,8.044-4.045,8.74-7.726,8.257c-3.682-0.483-6.392-1.926-5.335-9.972L224.026,74.995z M227.589,80.053
		c-0.686,5.225-0.011,6.068,1.592,6.279c1.604,0.21,2.473-0.431,3.158-5.655l0.592-4.513c0.604-4.602-0.065-5.716-1.638-5.923
		c-1.574-0.206-2.508,0.698-3.112,5.299L227.589,80.053z"/>
	<path fill="#FFFFFF" d="M242.368,71.487c0.37-1.451,1.2-1.919,2.621-1.557l5.34,1.358c3.51,0.894,4.086,3.605,3.333,6.564
		c-0.702,2.756-1.773,3.812-3.728,4.087c1.875,1.25,1.897,2.615,1.278,5.051l-0.569,2.234c-0.296,1.161-0.301,2.271-0.566,3.316
		c-0.155,0.61-0.868,1.107-2.174,0.775c-1.451-0.37-2.166-1.201-1.877-2.579l1.185-5.382c0.312-1.465-0.229-2.376-1.738-2.76
		l-1.683-0.429l-1.905,7.485c-0.311,1.219-1.409,1.773-2.454,1.507c-1.044-0.266-1.744-1.279-1.434-2.497L242.368,71.487z
		 M244.536,79.237l1.509,0.384c1.566,0.399,2.847-0.016,3.423-2.28c0.531-2.089,0.115-3.122-1.742-3.595l-1.683-0.428
		L244.536,79.237z"/>
	<path fill="#FFFFFF" d="M269.736,77.826c1.4,0.532,1.684,1.473,1.32,2.425c-0.361,0.952-1.198,1.466-2.597,0.934l-2.967-1.129
		l-5.792,15.227c-0.447,1.176-1.603,1.602-2.609,1.218c-1.008-0.384-1.589-1.468-1.142-2.645l5.791-15.226l-2.967-1.128
		c-1.399-0.532-1.683-1.473-1.32-2.425c0.362-0.951,1.198-1.466,2.6-0.934L269.736,77.826z"/>
	<path fill="#FFFFFF" d="M270.659,98.111l5.475,2.847c1.329,0.69,1.502,1.658,1.032,2.562c-0.47,0.903-1.36,1.318-2.69,0.627
		l-7.121-3.703c-1.302-0.677-1.609-1.579-0.918-2.908l7.959-15.306c0.69-1.329,1.605-1.596,2.907-0.919l6.937,3.607
		c1.328,0.69,1.501,1.658,1.03,2.562c-0.47,0.904-1.36,1.318-2.688,0.626l-5.289-2.749l-2.294,4.411l4.943,2.57
		c1.329,0.691,1.501,1.658,1.031,2.562c-0.47,0.904-1.361,1.319-2.689,0.627l-4.942-2.57L270.659,98.111z"/>
	<path fill="#FFFFFF" d="M294.085,113.166c1.196,0.902,1.204,1.885,0.59,2.698c-0.612,0.812-1.56,1.073-2.755,0.171l-6.287-4.745
		c-1.172-0.884-1.323-1.825-0.421-3.021l10.682-14.15c0.758-1.004,1.985-1.09,2.846-0.44c0.86,0.649,1.115,1.854,0.357,2.858
		l-9.816,13.004L294.085,113.166z"/>
	<path fill="#FFFFFF" d="M303.634,108.496c5.457-5.719,8.438-4.158,10.863-1.843s4.125,5.219-1.332,10.937l-3.142,3.293
		c-5.602,5.87-8.425,4.666-11.111,2.104c-2.686-2.563-4.021-5.328,1.58-11.198L303.634,108.496z M303.526,114.682
		c-3.639,3.813-3.592,4.892-2.423,6.008c1.17,1.116,2.251,1.111,5.889-2.701l3.141-3.292c3.205-3.359,3.322-4.653,2.174-5.748
		c-1.147-1.096-2.436-0.917-5.64,2.441L303.526,114.682z"/>
	<path fill="#FFFFFF" d="M314.708,120.664c5.859-4.849,8.88-4.627,11.954-0.913c2.539,3.068,1.988,6.207-0.297,8.096
		c-1.084,0.898-2.171,1.136-3.144-0.041c-0.992-1.2-0.737-1.877,0.494-3.208c1.02-1.116,1.169-2.017,0.5-2.824
		c-1.165-1.407-2.36-1.583-7.319,2.521l-0.924,0.764c-3.968,3.284-5.921,5.056-4.337,6.971c0.649,0.785,1.979,0.889,2.963,0.152
		c1.945-1.454,2.844-1.73,3.913-0.439c0.878,1.062,0.582,2.161-0.524,3.077c-3.461,2.864-6.525,1.979-9.008-1.02
		c-4.01-4.845-0.132-8.286,3.099-10.959L314.708,120.664z"/>
	<path fill="#FFFFFF" d="M321.026,140.033l-3.71,1.434c-1.276,0.505-2.022,0.345-2.723-0.736c-0.649-1.006-0.444-1.958,0.436-2.527
		c0.303-0.195,0.93-0.493,1.514-0.692l15.638-5.542c2.112-0.759,2.934-0.648,4.152,1.239c1.104,1.71,0.984,2.68-0.576,4.295
		l-11.393,11.89c-0.473,0.483-0.945,0.967-1.222,1.146c-1.131,0.73-2.095,0.177-2.631-0.652c-0.797-1.232-0.603-2.036,0.871-3.452
		l2.325-2.251L321.026,140.033z M326.032,141.933l6.562-6.344l-0.032-0.051l-8.513,3.327L326.032,141.933z"/>
	<path fill="#FFFFFF" d="M330.222,160.066c0.664,1.342,0.233,2.225-0.68,2.676c-0.911,0.451-1.876,0.26-2.54-1.082l-3.495-7.057
		c-0.651-1.315-0.366-2.225,0.976-2.889l15.885-7.867c1.127-0.559,2.264-0.086,2.742,0.88c0.478,0.967,0.166,2.157-0.961,2.715
		l-14.598,7.229L330.222,160.066z"/>
	<path fill="#FFFFFF" d="M335.86,183.135c-0.974,0.293-1.697,0.074-2.025-1.016c-0.312-1.032,0.288-1.744,1.234-2.028l0.544-0.165
		l-0.017-0.058c-1.741-0.382-2.867-1.42-3.394-3.168c-1.365-4.53,2.356-6.713,8.263-8.492l2.093-0.631
		c6.995-2.106,10.052-0.994,11.468,3.708c1.235,4.1-0.848,6.636-3.256,7.36c-1.405,0.423-2.458,0.146-2.872-1.23
		c-0.406-1.349,0.16-1.957,1.886-2.665c0.864-0.353,1.617-1.173,1.15-2.723c-0.414-1.376-1.547-2.128-6.307-0.696l-2.867,0.863
		c-5.018,1.512-6.838,2.529-6.2,4.651c0.511,1.691,2.319,1.678,4.843,0.918l1.176-0.354l-0.474-1.577
		c-0.328-1.09,0.278-1.773,1.167-2.041c1.147-0.345,1.824,0.139,2.136,1.171l0.966,3.211c0.416,1.377-0.023,2.103-1.313,2.491
		L335.86,183.135z"/>
	<path fill="#FFFFFF" d="M354.318,182.559c1.474-0.258,2.241,0.308,2.492,1.752l0.947,5.428c0.623,3.568-1.615,5.205-4.623,5.729
		c-2.803,0.489-4.204-0.057-5.255-1.727c-0.373,2.223-1.609,2.803-4.086,3.235l-2.272,0.396c-1.179,0.206-2.193,0.657-3.257,0.842
		c-0.619,0.108-1.366-0.34-1.597-1.667c-0.258-1.474,0.207-2.467,1.583-2.768l5.396-1.123c1.465-0.317,2.073-1.183,1.806-2.717
		l-0.298-1.71l-7.609,1.327c-1.239,0.217-2.195-0.559-2.381-1.621c-0.184-1.061,0.452-2.115,1.691-2.331L354.318,182.559z
		 M348.133,187.709l0.268,1.535c0.278,1.592,1.181,2.589,3.482,2.188c2.123-0.37,2.895-1.174,2.565-3.062l-0.299-1.711
		L348.133,187.709z"/>
	<path fill="#FFFFFF" d="M343.175,203.807l-3.932-0.6c-1.358-0.197-1.927-0.707-1.995-1.993c-0.063-1.195,0.588-1.92,1.635-1.977
		c0.358-0.019,1.051,0.034,1.657,0.151l16.323,2.97c2.21,0.393,2.866,0.896,2.986,3.139c0.107,2.034-0.479,2.815-2.636,3.439
		l-15.798,4.651c-0.648,0.185-1.299,0.369-1.628,0.387c-1.347,0.071-1.907-0.888-1.96-1.875c-0.077-1.466,0.49-2.066,2.473-2.562
		l3.137-0.797L343.175,203.807z M346.574,207.945l8.848-2.241l-0.003-0.061l-9.038-1.347L346.574,207.945z"/>
	<path fill="#FFFFFF" d="M359.173,226.355c-0.081,1.495-0.892,2.051-1.908,1.996c-1.016-0.055-1.762-0.695-1.68-2.19l0.172-3.168
		l-16.266-0.88c-1.256-0.067-2.014-1.038-1.956-2.115c0.06-1.076,0.916-1.959,2.173-1.892l16.264,0.879l0.172-3.169
		c0.081-1.494,0.891-2.05,1.907-1.996c1.017,0.056,1.762,0.695,1.681,2.19L359.173,226.355z"/>
	<path fill="#FFFFFF" d="M356.903,232.144c1.238,0.219,1.873,1.272,1.686,2.334c-0.187,1.062-1.145,1.834-2.383,1.615l-13.561-2.394
		c-2.329-0.411-3.563,0.375-3.826,1.878c-0.262,1.474,0.628,2.635,2.956,3.046l13.562,2.394c1.239,0.218,1.873,1.272,1.687,2.334
		c-0.188,1.062-1.145,1.835-2.384,1.616l-13.944-2.46c-3.714-0.657-5.751-3.235-5.002-7.481c0.75-4.245,3.552-6,7.267-5.344
		L356.903,232.144z"/>
	<path fill="#FFFFFF" d="M353.411,249.534c1.214,0.33,1.749,1.439,1.467,2.479c-0.283,1.039-1.307,1.723-2.521,1.393l-17.566-4.781
		c-1.214-0.331-1.749-1.438-1.466-2.478c0.282-1.04,1.307-1.725,2.52-1.394L353.411,249.534z M360.286,254.601
		c0.295,0.515,0.282,0.791,0.156,1.253c-0.165,0.607-0.809,1.146-1.589,0.934c-0.521-0.142-0.888-0.614-1.133-1.084l-1.487-2.857
		c-0.203-0.396-0.289-0.761-0.179-1.165c0.204-0.751,0.879-1.064,1.602-0.868c0.346,0.095,0.646,0.363,0.835,0.693L360.286,254.601z
		"/>
	<path fill="#FFFFFF" d="M348.715,269.226c-0.52,1.404-1.456,1.695-2.412,1.342c-0.955-0.353-1.477-1.186-0.958-2.588l1.101-2.979
		l-15.278-5.652c-1.18-0.437-1.616-1.588-1.241-2.599c0.374-1.011,1.455-1.602,2.634-1.164l15.279,5.652l1.102-2.978
		c0.52-1.404,1.457-1.696,2.412-1.343s1.478,1.186,0.958,2.59L348.715,269.226z"/>
	<path fill="#FFFFFF" d="M339.2,270.452c7.047,3.584,6.408,6.888,4.889,9.877s-3.813,5.451-10.86,1.868l-4.057-2.062
		c-7.233-3.679-6.893-6.729-5.209-10.039c1.683-3.31,3.946-5.384,11.181-1.706L339.2,270.452z M333.242,272.127
		c-4.696-2.389-5.717-2.034-6.45-0.593s-0.419,2.476,4.279,4.862l4.058,2.063c4.137,2.104,5.411,1.844,6.13,0.429
		c0.72-1.414,0.179-2.597-3.958-4.699L333.242,272.127z"/>
	<path fill="#FFFFFF" d="M321.163,304.402c-1.903,2.272-5.32,2.573-7.593,0.67c-2.272-1.902-2.575-5.319-0.672-7.592
		s5.32-2.575,7.594-0.672C322.763,298.712,323.065,302.129,321.163,304.402z"/>
	<path fill="#FFFFFF" d="M298.047,333.177c-1.188,0.911-2.136,0.657-2.757-0.15c-0.618-0.808-0.617-1.789,0.571-2.7l2.519-1.931
		l-9.912-12.927c-0.765-0.999-0.521-2.204,0.335-2.86c0.856-0.656,2.084-0.579,2.85,0.418l9.911,12.926l2.519-1.931
		c1.188-0.911,2.138-0.658,2.756,0.15c0.619,0.809,0.618,1.79-0.569,2.702L298.047,333.177z"/>
	<path fill="#FFFFFF" d="M291.815,334.849c0.762,1.288,0.506,2.205-0.757,2.953l-4.739,2.807c-3.117,1.846-5.438,0.334-6.995-2.292
		c-1.45-2.449-1.436-3.952-0.246-5.527c-2.21,0.438-3.19-0.511-4.473-2.675l-1.175-1.983c-0.609-1.03-1.392-1.819-1.939-2.747
		c-0.321-0.542-0.167-1.397,0.992-2.085c1.287-0.762,2.382-0.679,3.15,0.502l2.961,4.647c0.813,1.257,1.839,1.521,3.179,0.727
		l1.494-0.886l-3.937-6.645c-0.64-1.082-0.254-2.251,0.674-2.8c0.927-0.549,2.137-0.327,2.778,0.755L291.815,334.849z
		 M284.808,330.892l-1.34,0.793c-1.391,0.824-2.003,2.021-0.813,4.031c1.099,1.854,2.123,2.292,3.771,1.315l1.494-0.886
		L284.808,330.892z"/>
	<path fill="#FFFFFF" d="M268.003,331.993l-0.791-3.896c-0.282-1.345,0-2.053,1.183-2.56c1.102-0.473,2.006-0.11,2.419,0.853
		c0.142,0.33,0.331,0.999,0.429,1.608l2.838,16.342c0.394,2.209,0.146,2.999-1.918,3.885c-1.871,0.802-2.808,0.52-4.136-1.289
		l-9.808-13.224c-0.397-0.546-0.795-1.093-0.925-1.396c-0.53-1.238,0.177-2.096,1.085-2.484c1.349-0.578,2.107-0.252,3.255,1.438
		l1.829,2.668L268.003,331.993z M265.292,336.608l5.151,7.531l0.056-0.022l-1.85-8.949L265.292,336.608z"/>
	<path fill="#FFFFFF" d="M261.075,350.585c0.363,1.204-0.177,2.211-1.524,2.618c-1.204,0.362-2.064,0.31-3.254-1.146l-7.966-9.92
		l-0.058,0.019l3.399,11.266c0.363,1.204-0.291,2.246-1.323,2.558c-1.032,0.311-2.155-0.195-2.519-1.399l-5.205-17.256
		c-0.415-1.376,0.24-2.418,1.271-2.729c1.577-0.477,2.34-0.331,3.455,1.083l8.017,10.092l0.058-0.018l-3.451-11.437
		c-0.363-1.205,0.292-2.246,1.324-2.559c1.031-0.312,2.154,0.194,2.517,1.398L261.075,350.585z"/>
	<path fill="#FFFFFF" d="M239.045,347.443c2.318,1.121,3.217,2.639,3.585,4.795c0.642,3.748-1.944,6.043-5.309,6.62
		c-4.429,0.756-6.415-2.155-6.79-4.339c-0.227-1.328,0.484-2.149,1.605-2.341c1.596-0.272,1.957,0.425,2.392,1.9
		c0.43,1.446,1.342,1.806,2.464,1.614c1.211-0.207,1.965-1.126,1.747-2.396c-0.166-0.975-0.494-1.829-2.665-2.795l-3.251-1.419
		c-2.397-1.049-3.959-2.36-4.489-5.46c-0.626-3.661,1.165-6.337,5.711-7.115c5.195-0.889,6.633,3.605,6.81,4.639
		c0.242,1.416,0.135,2.741-1.549,3.029c-1.239,0.213-1.945-0.365-2.387-2.234c-0.337-1.432-1.217-2.497-2.812-2.224
		c-1.564,0.268-2.11,1.516-1.878,2.874c0.247,1.445,0.924,2.028,2.547,2.814L239.045,347.443z"/>
	<path fill="#FFFFFF" d="M226.274,357.746c0.081,1.495-0.571,2.189-2.036,2.269l-4.993,0.269c-3.349,0.18-5.537-1.472-5.769-5.776
		c-0.183-3.409,1.275-6.396,4.773-6.585l3.468-0.186l-0.401-7.475c-0.067-1.256,0.816-2.113,1.893-2.171
		c1.077-0.058,2.047,0.699,2.114,1.954L226.274,357.746z M221.88,350.755l-1.794,0.097c-1.794,0.096-2.535,1.365-2.434,3.249
		c0.121,2.242,1.07,3.182,2.565,3.101l2.004-0.107L221.88,350.755z"/>
	<path fill="#FFFFFF" d="M210.521,352.243c-0.502,7.89-3.789,8.611-7.136,8.397c-3.348-0.213-6.516-1.345-6.014-9.235l0.289-4.544
		c0.516-8.098,3.453-8.991,7.159-8.755c3.707,0.236,6.507,1.494,5.991,9.594L210.521,352.243z M206.625,347.433
		c0.335-5.26-0.394-6.057-2.008-6.159c-1.614-0.104-2.439,0.595-2.774,5.854l-0.289,4.543c-0.295,4.632,0.447,5.7,2.031,5.801
		c1.585,0.102,2.456-0.864,2.751-5.496L206.625,347.433z"/>
	<path fill="#FFFFFF" d="M192.459,356.97c-0.272,1.472-1.068,1.995-2.511,1.729l-5.417-1.001c-3.562-0.656-4.318-3.322-3.764-6.325
		c0.516-2.797,1.515-3.923,3.447-4.327c-1.955-1.121-2.069-2.482-1.613-4.955l0.419-2.268c0.217-1.177,0.147-2.286,0.343-3.346
		c0.114-0.618,0.793-1.163,2.118-0.918c1.472,0.271,2.241,1.053,2.045,2.448l-0.823,5.449c-0.212,1.483,0.388,2.354,1.918,2.637
		l1.708,0.314l1.402-7.595c0.228-1.237,1.287-1.863,2.347-1.669c1.061,0.196,1.826,1.159,1.598,2.396L192.459,356.97z
		 M189.78,349.382l-1.531-0.283c-1.59-0.293-2.839,0.207-3.263,2.504c-0.391,2.119,0.094,3.123,1.978,3.47l1.708,0.315
		L189.78,349.382z"/>
	<path fill="#FFFFFF" d="M164.736,352.473c-1.432-0.438-1.777-1.356-1.479-2.33c0.298-0.975,1.098-1.544,2.53-1.106l3.036,0.928
		l4.761-15.578c0.367-1.204,1.492-1.706,2.522-1.392c1.032,0.316,1.683,1.36,1.315,2.563l-4.761,15.58l3.036,0.928
		c1.432,0.438,1.777,1.357,1.479,2.331s-1.098,1.543-2.529,1.106L164.736,352.473z"/>
	<path fill="#FFFFFF" d="M162.443,332.283l-5.65-2.477c-1.372-0.602-1.607-1.557-1.198-2.487c0.408-0.934,1.27-1.405,2.641-0.805
		l7.351,3.223c1.344,0.59,1.71,1.47,1.109,2.841l-6.927,15.798c-0.601,1.371-1.497,1.697-2.841,1.108l-7.158-3.139
		c-1.372-0.601-1.608-1.555-1.199-2.487c0.409-0.932,1.27-1.405,2.642-0.805l5.458,2.395l1.997-4.553l-5.102-2.237
		c-1.371-0.601-1.607-1.555-1.198-2.487c0.409-0.932,1.27-1.405,2.642-0.805l5.102,2.238L162.443,332.283z"/>
	<path fill="#FFFFFF" d="M138.064,318.826c-1.252-0.82-1.327-1.8-0.769-2.65c0.557-0.853,1.485-1.176,2.737-0.356l6.589,4.314
		c1.228,0.803,1.443,1.73,0.623,2.984l-9.709,14.832c-0.689,1.052-1.908,1.22-2.81,0.63c-0.902-0.592-1.236-1.776-0.547-2.828
		l8.922-13.629L138.064,318.826z"/>
	<path fill="#FFFFFF" d="M128.843,324.128c-5.06,6.075-8.14,4.719-10.717,2.573c-2.577-2.146-4.469-4.93,0.59-11.006l2.913-3.498
		c5.194-6.237,8.093-5.227,10.946-2.85c2.854,2.376,4.374,5.045-0.82,11.281L128.843,324.128z M128.534,317.947
		c3.373-4.05,3.254-5.125,2.011-6.159c-1.243-1.034-2.32-0.957-5.693,3.093l-2.913,3.498c-2.971,3.567-3,4.868-1.781,5.883
		c1.22,1.016,2.493,0.751,5.463-2.815L128.534,317.947z"/>
	<path fill="#FFFFFF" d="M116.982,312.726c-5.519,5.233-8.547,5.216-11.864,1.719c-2.74-2.89-2.402-6.058-0.251-8.098
		c1.021-0.968,2.088-1.277,3.139-0.17c1.071,1.13,0.863,1.823-0.276,3.233c-0.942,1.182-1.03,2.09-0.309,2.85
		c1.257,1.326,2.461,1.421,7.133-3.008l0.868-0.824c3.737-3.544,5.567-5.443,3.856-7.247c-0.7-0.738-2.035-0.753-2.967,0.048
		c-1.842,1.583-2.718,1.92-3.873,0.702c-0.948-0.999-0.727-2.115,0.315-3.104c3.258-3.091,6.375-2.415,9.053,0.41
		c4.326,4.562,0.692,8.257-2.349,11.141L116.982,312.726z"/>
	<path fill="#FFFFFF" d="M109.38,293.833l3.603-1.679c1.241-0.59,1.995-0.479,2.765,0.552c0.715,0.959,0.576,1.923-0.264,2.549
		c-0.287,0.216-0.893,0.556-1.462,0.794l-15.223,6.576c-2.055,0.899-2.882,0.844-4.224-0.955c-1.217-1.632-1.161-2.607,0.287-4.321
		l10.562-12.625c0.438-0.514,0.877-1.027,1.141-1.225c1.08-0.805,2.079-0.318,2.669,0.475c0.877,1.175,0.737,1.988-0.638,3.5
		l-2.167,2.401L109.38,293.833z M104.259,292.276l-6.117,6.769l0.036,0.049l8.266-3.89L104.259,292.276z"/>
	<path fill="#FFFFFF" d="M98.86,274.453c-0.752-1.295-0.379-2.204,0.5-2.715c0.881-0.511,1.855-0.384,2.606,0.91l3.955,6.81
		c0.737,1.269,0.513,2.195-0.782,2.947l-15.328,8.901c-1.088,0.631-2.253,0.234-2.794-0.698c-0.541-0.932-0.309-2.141,0.779-2.772
		l14.085-8.18L98.86,274.453z"/>
	<path fill="#FFFFFF" d="M91.714,251.812c0.954-0.356,1.689-0.185,2.089,0.881c0.379,1.009-0.171,1.759-1.096,2.106l-0.533,0.199
		l0.021,0.056c1.763,0.267,2.955,1.228,3.596,2.938c1.662,4.43-1.906,6.856-7.682,9.022l-2.047,0.768
		c-6.842,2.566-9.964,1.659-11.689-2.939c-1.504-4.009,0.406-6.677,2.761-7.561c1.374-0.516,2.443-0.309,2.949,1.037
		c0.494,1.318-0.032,1.963-1.708,2.783c-0.837,0.41-1.535,1.279-0.967,2.794c0.505,1.346,1.686,2.022,6.341,0.276l2.804-1.052
		c4.907-1.841,6.656-2.977,5.877-5.051c-0.62-1.655-2.426-1.521-4.893-0.597l-1.15,0.432l0.579,1.543
		c0.399,1.064-0.161,1.787-1.03,2.113c-1.122,0.42-1.83-0.018-2.208-1.027l-1.178-3.14c-0.505-1.347-0.115-2.1,1.146-2.573
		L91.714,251.812z"/>
	<path fill="#FFFFFF" d="M73.335,253.645c-1.454,0.356-2.258-0.155-2.607-1.58l-1.312-5.352c-0.862-3.52,1.259-5.303,4.226-6.03
		c2.763-0.677,4.199-0.228,5.361,1.368c0.221-2.242,1.416-2.905,3.858-3.504l2.239-0.549c1.164-0.285,2.146-0.804,3.193-1.06
		c0.61-0.15,1.386,0.246,1.707,1.555c0.356,1.454-0.041,2.476-1.394,2.869l-5.308,1.485c-1.44,0.415-1.989,1.32-1.618,2.833
		l0.414,1.687l7.503-1.839c1.222-0.299,2.228,0.409,2.484,1.457c0.256,1.047-0.308,2.141-1.53,2.44L73.335,253.645z M79.156,248.087
		l-0.371-1.512c-0.385-1.571-1.354-2.505-3.622-1.949c-2.094,0.513-2.81,1.367-2.354,3.229l0.413,1.687L79.156,248.087z"/>
	<path fill="#FFFFFF" d="M83.016,231.666l3.961,0.333c1.371,0.106,1.97,0.576,2.125,1.854c0.145,1.189-0.456,1.956-1.497,2.082
		c-0.357,0.044-1.051,0.037-1.664-0.039l-16.483-1.859c-2.231-0.242-2.92-0.701-3.191-2.931c-0.245-2.021,0.289-2.84,2.397-3.608
		l15.445-5.706c0.636-0.229,1.271-0.457,1.599-0.496c1.337-0.162,1.962,0.757,2.081,1.738c0.177,1.456-0.35,2.094-2.293,2.722
		l-3.075,1.007L83.016,231.666z M79.345,227.768l-8.675,2.833l0.007,0.059l9.108,0.735L79.345,227.768z"/>
	<path fill="#FFFFFF" d="M65.532,210.23c-0.02-1.497,0.751-2.106,1.769-2.12c1.018-0.014,1.805,0.574,1.825,2.072l0.042,3.175
		l16.292-0.217c1.258-0.016,2.079,0.901,2.093,1.979c0.015,1.078-0.781,2.018-2.04,2.034l-16.292,0.216l0.042,3.175
		c0.02,1.497-0.75,2.106-1.769,2.12s-1.805-0.575-1.825-2.073L65.532,210.23z"/>
	<path fill="#FFFFFF" d="M67.409,204.312c-1.25-0.136-1.954-1.146-1.838-2.217c0.116-1.071,1.02-1.908,2.27-1.772l13.695,1.482
		c2.353,0.255,3.531-0.612,3.695-2.13c0.161-1.489-0.804-2.587-3.156-2.842l-13.696-1.482c-1.25-0.136-1.955-1.146-1.838-2.217
		c0.116-1.072,1.02-1.907,2.27-1.772l14.083,1.525c3.752,0.406,5.958,2.844,5.494,7.13c-0.464,4.288-3.144,6.227-6.896,5.821
		L67.409,204.312z"/>
	<path fill="#FFFFFF" d="M62.534,182.154c-0.328-0.494-0.333-0.77-0.239-1.239c0.124-0.616,0.73-1.197,1.522-1.038
		c0.529,0.106,0.928,0.553,1.203,1.006l1.676,2.751c0.229,0.382,0.34,0.74,0.257,1.151c-0.154,0.764-0.806,1.121-1.541,0.973
		c-0.352-0.071-0.669-0.317-0.88-0.636L62.534,182.154z M69.734,186.75c-1.232-0.248-1.842-1.317-1.629-2.375
		c0.213-1.057,1.188-1.807,2.421-1.559l17.849,3.594c1.233,0.248,1.843,1.317,1.63,2.375c-0.213,1.057-1.189,1.807-2.422,1.559
		L69.734,186.75z"/>
	<path fill="#FFFFFF" d="M73.116,166.74c0.426-1.436,1.343-1.789,2.319-1.5c0.977,0.289,1.554,1.085,1.128,2.521l-0.901,3.045
		l15.625,4.626c1.207,0.356,1.718,1.477,1.412,2.511c-0.306,1.034-1.345,1.695-2.552,1.338l-15.624-4.626l-0.902,3.044
		c-0.425,1.436-1.341,1.79-2.318,1.5s-1.553-1.085-1.128-2.521L73.116,166.74z"/>
	<path fill="#FFFFFF" d="M82.519,164.938c-7.271-3.106-6.854-6.445-5.536-9.529s3.442-5.694,10.712-2.588l4.186,1.788
		c7.463,3.188,7.325,6.255,5.866,9.67c-1.458,3.415-3.579,5.635-11.042,2.447L82.519,164.938z M88.351,162.87
		c4.847,2.07,5.841,1.648,6.477,0.161c0.635-1.487,0.252-2.497-4.594-4.567l-4.186-1.788c-4.268-1.824-5.523-1.48-6.146-0.02
		c-0.624,1.459-0.005,2.603,4.264,4.426L88.351,162.87z"/>
	<path fill="#FFFFFF" d="M98.25,129.841c1.748-2.396,5.137-2.927,7.533-1.181c2.396,1.748,2.927,5.137,1.18,7.533
		s-5.137,2.927-7.533,1.18C97.035,135.626,96.504,132.236,98.25,129.841z"/>
</g>
</svg>
