<?xml version="1.0" encoding="utf-8"?>
<!-- Generator: Adobe Illustrator 16.0.0, SVG Export Plug-In . SVG Version: 6.00 Build 0)  -->
<!DOCTYPE svg PUBLIC "-//W3C//DTD SVG 1.1//EN" "http://www.w3.org/Graphics/SVG/1.1/DTD/svg11.dtd">
<svg version="1.1" id="Layer_1" xmlns="http://www.w3.org/2000/svg" xmlns:xlink="http://www.w3.org/1999/xlink" x="0px" y="0px"
	 width="425.2px" height="425.2px" viewBox="0 0 425.2 425.2" enable-background="new 0 0 425.2 425.2" xml:space="preserve">
<g>
	<path fill="#39B54A" d="M407.471,212.779c0-105.377-87.422-191.085-194.88-191.085c-107.458,0-194.88,85.708-194.88,191.085
		c0,20.041,3.146,39.806,9.367,58.7c1.099,3.318,4.718,5.172,8.082,4.066c3.402-1.061,5.248-4.611,4.165-7.934
		c-5.797-17.651-8.753-36.104-8.753-54.833c0-98.407,81.644-178.472,182.019-178.472s182.026,80.065,182.026,178.472
		c0,98.42-81.651,178.485-182.026,178.485c-16.358,0-32.564-2.121-48.168-6.313c-10.801-2.906-21.374-6.808-31.413-11.61
		c-8.032-3.855-15.859-8.303-23.228-13.261c-2.933-1.983-6.934-1.221-8.937,1.632c-2.014,2.88-1.259,6.819,1.663,8.761
		c7.903,5.328,16.267,10.111,24.879,14.212c10.741,5.137,22.076,9.317,33.625,12.414c16.721,4.489,34.067,6.767,51.578,6.767
		C320.049,403.866,407.471,318.148,407.471,212.779 M42.499,212.779c0,93.938,76.148,170.102,170.092,170.102
		c93.937,0,170.107-76.163,170.107-170.102c0-93.956-76.171-170.109-170.107-170.109C118.646,42.67,42.499,118.824,42.499,212.779
		 M34.668,290.855c4.768,10.404,10.519,20.474,17.136,29.91c1.232,1.773,3.25,2.738,5.291,2.738c1.243,0,2.517-0.358,3.627-1.095
		c2.944-1.983,3.685-5.904,1.663-8.784c-6.152-8.799-11.53-18.2-16-27.927c-1.427-3.165-5.249-4.6-8.482-3.165
		C34.668,283.952,33.215,287.689,34.668,290.855"/>
	<path fill="#FFFFFF" d="M299.65,246.703c2.057-5.37,3.62-10.953,4.673-16.621c0.858-4.527,1.373-9.146,1.552-13.727
		c0.062-1.699-1.262-3.14-2.914-3.187c-1.674-0.05-3.097,1.288-3.165,2.99c-0.16,4.281-0.641,8.61-1.423,12.821
		c-0.984,5.278-2.456,10.516-4.371,15.512c-2.8,7.251-6.549,14.15-11.164,20.481c-13.707,18.826-33.777,31.149-56.482,34.724
		c-22.716,3.577-45.364-2.048-63.786-15.828c-20.825-15.592-32.595-39.117-34.308-63.589l18.83,4.707
		c1.201,0.29,2.426-0.458,2.735-1.671c0.301-1.213-0.427-2.448-1.633-2.757l-20.142-5.02c-0.049-3.116,0.05-6.255,0.309-9.351
		l22.057,5.485c1.202,0.309,2.415-0.458,2.716-1.672c0.309-1.225-0.4-2.457-1.602-2.737l-22.648-5.646
		c1.972-13.956,7.281-27.658,16.126-39.792c13.715-18.816,33.777-31.165,56.501-34.736c22.697-3.555,45.338,2.052,63.768,15.84
		c7.228,5.404,13.51,11.886,18.696,19.234c0.977,1.375,2.868,1.672,4.241,0.675c1.343-0.994,1.675-2.925,0.71-4.298
		c-5.558-7.876-12.289-14.804-20.024-20.588c-19.723-14.755-43.949-20.77-68.279-16.958c-24.33,3.813-45.807,17.024-60.491,37.167
		c-9.333,12.825-14.974,27.25-17.155,41.974l-5.1-1.262c-1.201-0.309-2.426,0.446-2.716,1.672c-0.309,1.203,0.412,2.439,1.614,2.738
		l5.656,1.394c-0.32,3.125-0.481,6.24-0.481,9.35l-17.209-4.302c-1.178-0.29-2.403,0.446-2.7,1.673
		c-0.309,1.212,0.396,2.45,1.602,2.738l18.41,4.611c1.312,26.908,14.005,52.978,36.913,70.11
		c9.821,7.346,20.771,12.545,32.309,15.413c11.591,2.887,23.758,3.451,35.963,1.521c24.318-3.821,45.783-17.019,60.464-37.164
		C292.641,261.838,296.66,254.458,299.65,246.703"/>
	<path fill="#FFFFFF" d="M257.463,219.364l2.896-11.692c1.091-4.302-1.473-8.671-5.706-9.718l-73.886-18.449
		c-1.228-0.276-2.452,0.479-2.753,1.693l-4.314,17.276c-0.305,1.232,0.419,2.466,1.647,2.786l79.371,19.782
		C255.941,221.344,257.143,220.6,257.463,219.364 M192.769,200.86l-14.124-3.522l3.185-12.804l14.143,3.515L192.769,200.86z
		 M219.822,207.611l-22.675-5.654l3.2-12.802l22.667,5.655L219.822,207.611z M253.626,216.029l-29.425-7.331l3.203-12.806
		l26.135,6.534c1.812,0.446,2.906,2.309,2.452,4.151L253.626,216.029z"/>
	<path fill="#FFFFFF" d="M196.213,213.136c-1.209-0.297-2.441,0.469-2.762,1.697c-0.293,1.236,0.431,2.468,1.648,2.777l6.122,1.514
		c1.205,0.32,2.426-0.438,2.738-1.673c0.297-1.226-0.412-2.479-1.644-2.788L196.213,213.136z"/>
	<path fill="#FFFFFF" d="M248.752,245.796c0.298-5.576-3.318-10.732-8.833-12.117c-5.512-1.373-11.114,1.491-13.476,6.571
		l-5.519-1.381c-1.225-0.313-2.453,0.436-2.746,1.671c-0.31,1.243,0.419,2.479,1.617,2.754l5.522,1.396
		c-0.286,5.6,3.326,10.764,8.837,12.137c5.52,1.377,11.11-1.503,13.483-6.579l20.355,5.088c1.197,0.301,2.422-0.458,2.742-1.693
		l8.052-32.248c0.152-0.664,0.022-1.381-0.39-1.93l-5.977-8.121c2.109-10.83-4.478-21.502-15.1-24.15l-86.129-21.475
		c-1.202-0.298-2.426,0.437-2.735,1.682l-14.272,57.19c-0.309,1.221,0.431,2.472,1.644,2.776l10.256,2.563
		c-0.301,5.561,3.311,10.74,8.822,12.121c5.519,1.384,11.129-1.491,13.49-6.568l23.502,5.866c1.221,0.305,2.452-0.45,2.762-1.678
		c0.313-1.229-0.428-2.476-1.64-2.785l-23.518-5.858c0.297-5.572-3.307-10.748-8.818-12.113c-5.519-1.383-11.137,1.495-13.498,6.553
		l-8.074-2.021l3.498-13.931l24.929,6.203c1.224,0.32,2.452-0.438,2.746-1.682c0.32-1.226-0.423-2.47-1.617-2.769l-24.94-6.225
		l8.544-34.317l83.959,20.918c8.536,2.14,13.754,10.983,11.553,19.683c-0.134,0.677-0.016,1.394,0.389,1.953l5.958,8.084
		l-2.632,10.564l-61.994-15.462c-1.213-0.308-2.457,0.446-2.777,1.693c-0.29,1.221,0.45,2.456,1.655,2.769l62.002,15.471
		l-3.486,13.929L248.752,245.796z M235.27,252.375c-3.86-0.965-6.19-4.946-5.222-8.86c0.973-3.943,4.912-6.339,8.769-5.374
		c3.863,0.966,6.179,4.928,5.206,8.838C243.054,250.926,239.114,253.31,235.27,252.375 M170.804,228.751
		c0.988-3.933,4.909-6.362,8.761-5.397c3.856,0.977,6.209,4.951,5.229,8.864c-1,3.921-4.917,6.331-8.761,5.366
		c-3.856-0.957-6.202-4.932-5.24-8.833H170.804z"/>
	<path fill="#FFFFFF" d="M138.51,187.818c-1.206-0.3-2.434,0.45-2.723,1.674c-0.305,1.224,0.416,2.439,1.617,2.738l16.828,4.201
		c1.193,0.29,2.406-0.459,2.727-1.672c0.29-1.217-0.439-2.451-1.633-2.738L138.51,187.818z"/>
	<path fill="#FFFFFF" d="M169.362,82.584l-6.511,2.487l1.682,4.401l5.786-2.199c0.664-0.259,1.434,0.08,1.682,0.746l0.866,2.283
		c0.267,0.664-0.072,1.423-0.755,1.69l-5.778,2.212l3.475,9.047c0.259,0.709-0.1,1.507-0.801,1.776l-2.883,1.104
		c-0.702,0.278-1.491-0.021-1.77-0.717l-8.395-21.925c-0.24-0.673,0.111-1.432,0.767-1.69l10.771-4.125
		c0.671-0.267,1.434,0.081,1.693,0.75l0.938,2.457C170.388,81.568,170.06,82.325,169.362,82.584"/>
	<path fill="#FFFFFF" d="M184.207,79.707c-0.175-0.786-0.965-1.253-1.735-1.083l-2.704,0.616l1.304,5.664l2.7-0.625
		c0.774-0.18,1.263-0.967,1.083-1.743L184.207,79.707z M193.116,98.035l-3.104,0.727c-0.74,0.169-1.492-0.309-1.663-1.045
		l-1.75-7.638c-0.222-0.923-0.732-1.342-1.515-1.163l-2.925,0.687l2.083,9.061c0.175,0.736-0.29,1.493-1.03,1.663l-3.024,0.696
		c-0.729,0.169-1.472-0.307-1.659-1.043l-5.214-22.731c-0.179-0.755,0.286-1.482,1.042-1.673l8.788-2.02
		c2.975-0.666,5.538,0.854,6.141,3.494l0.729,3.234c0.61,2.64,0.171,4.691-2.403,5.538c2.857-0.49,4.39,1.213,4.981,3.843
		l1.567,6.72C194.321,97.12,193.852,97.867,193.116,98.035"/>
	<path fill="#FFFFFF" d="M209.536,96.473l-11.69,0.956c-0.721,0.04-1.354-0.496-1.423-1.225l-1.88-23.378
		c-0.061-0.727,0.477-1.354,1.198-1.413l11.484-0.936c0.717-0.057,1.342,0.479,1.411,1.205l0.221,2.609
		c0.049,0.738-0.484,1.373-1.206,1.434l-6.979,0.557l0.389,4.71l6.171-0.519c0.729-0.061,1.373,0.486,1.415,1.215l0.195,2.41
		c0.064,0.727-0.469,1.353-1.19,1.414l-6.202,0.509l0.484,5.792l7.17-0.587c0.74-0.05,1.37,0.49,1.423,1.205l0.21,2.62
		C210.81,95.777,210.264,96.402,209.536,96.473"/>
	<path fill="#FFFFFF" d="M225.654,97.11l-11.702-0.637c-0.732-0.05-1.282-0.656-1.251-1.383l1.274-23.438
		c0.049-0.727,0.656-1.273,1.392-1.233l11.519,0.624c0.71,0.04,1.278,0.669,1.229,1.386l-0.142,2.628
		c-0.038,0.727-0.655,1.283-1.381,1.243l-6.991-0.387l-0.247,4.699l6.179,0.347c0.729,0.032,1.273,0.66,1.255,1.386l-0.134,2.418
		c-0.042,0.717-0.648,1.283-1.385,1.243l-6.197-0.337l-0.313,5.795l7.187,0.389c0.728,0.038,1.293,0.667,1.243,1.394l-0.142,2.618
		C226.996,96.58,226.387,97.16,225.654,97.11"/>
	<path fill="#FFFFFF" d="M248.367,101.898l-10.275-2.696c-0.74-0.191-1.19-0.959-0.988-1.693l5.908-22.561
		c0.21-0.727,0.95-1.167,1.693-0.976l2.982,0.776c0.732,0.189,1.171,0.946,0.973,1.693l-4.916,18.796l5.965,1.566
		c0.676,0.187,1.103,0.906,0.916,1.609l-0.66,2.542C249.801,101.658,249.061,102.078,248.367,101.898"/>
	<path fill="#FFFFFF" d="M267.472,88.109c0.473-1.165-0.012-2.517-1.125-2.965c-1.129-0.469-2.434,0.127-2.903,1.304l-5.148,12.394
		c-0.492,1.146,0,2.5,1.121,2.977c1.121,0.46,2.426-0.16,2.895-1.314L267.472,88.109z M257.543,106.319
		c-3.955-1.642-6.426-5.365-4.634-9.716l5.164-12.396c1.797-4.34,6.179-5.227,10.146-3.585c3.99,1.663,6.465,5.345,4.649,9.728
		l-5.148,12.397C265.907,107.126,261.533,107.982,257.543,106.319"/>
	<path fill="#FFFFFF" d="M273.2,114.256c-3.669-2.212-5.542-6.265-3.112-10.296l6.938-11.492c2.422-4.039,6.881-4.249,10.546-2.039
		c3.711,2.239,5.614,6.253,3.166,10.306l-0.48,0.803c-0.39,0.66-1.251,0.87-1.899,0.49l-2.64-1.604
		c-0.648-0.396-0.861-1.245-0.477-1.901l0.5-0.807c0.633-1.056,0.358-2.479-0.68-3.095c-1.045-0.627-2.433-0.218-3.066,0.835
		l-6.941,11.5c-0.633,1.066-0.37,2.498,0.679,3.125c1.042,0.62,2.407,0.2,3.056-0.866l0.835-1.394
		c0.408-0.646,1.247-0.866,1.903-0.469l2.64,1.585c0.655,0.4,0.865,1.255,0.473,1.92l-0.832,1.375
		C281.351,116.285,276.896,116.495,273.2,114.256"/>
	<path fill="#FFFFFF" d="M300.505,109.079l-7.43,5.961l2.85,2.369L300.505,109.079z M294.276,128.988l-2.364-1.97
		c-0.591-0.486-0.561-1.285-0.172-1.953l1.815-3.345l-4.287-3.572l-2.959,2.399c-0.568,0.496-1.343,0.656-1.935,0.17l-2.372-1.983
		c-0.572-0.479-0.797-1.463-0.168-1.932l18.75-14.734c0.622-0.477,1.362-0.667,1.961-0.191l4.653,3.916
		c0.595,0.496,0.545,1.253,0.187,1.949l-11.16,21.079C295.875,129.516,294.856,129.488,294.276,128.988"/>
	<path fill="#FFFFFF" d="M304.018,139.721l-7.117-7.904c-0.495-0.549-0.449-1.433,0.107-1.939l17.312-15.634
		c0.568-0.505,1.449-0.456,1.973,0.111l2.044,2.279c0.519,0.57,0.469,1.455-0.092,1.962l-14.455,13.025l4.131,4.588
		c0.499,0.517,0.45,1.364-0.092,1.85l-1.941,1.752C305.342,140.301,304.502,140.249,304.018,139.721"/>
	<path fill="#FFFFFF" d="M335.313,148.93l-1.693-2.845l-16.916,10.016c-0.652,0.377-1.514,0.169-1.896-0.5l-1.56-2.649
		c-0.4-0.656-0.184-1.502,0.48-1.89l16.904-10.025l-1.693-2.849c-0.37-0.625-0.16-1.422,0.465-1.81l2.09-1.246
		c0.626-0.36,1.415-0.16,1.793,0.469l6.373,10.76c0.37,0.62,0.148,1.426-0.469,1.792l-2.067,1.245
		C336.495,149.767,335.675,149.559,335.313,148.93"/>
	<path fill="#FFFFFF" d="M340.553,163.307c0.729-0.309,1.079-1.156,0.797-1.911l-1.067-2.54l-5.39,2.22l1.072,2.569
		c0.309,0.727,1.178,1.097,1.903,0.776L340.553,163.307z M323.98,175.176l-1.228-2.938c-0.294-0.706,0.049-1.522,0.751-1.802
		l7.22-3.026c0.882-0.366,1.213-0.946,0.9-1.691l-1.151-2.76l-8.604,3.566c-0.698,0.309-1.511-0.031-1.801-0.738l-1.193-2.828
		c-0.29-0.706,0.03-1.533,0.731-1.819l21.535-8.994c0.705-0.295,1.514,0.04,1.804,0.74l3.493,8.343
		c1.168,2.805,0.092,5.582-2.414,6.621l-3.07,1.283c-2.476,1.045-4.6,0.956-5.843-1.443c0.953,2.746-0.477,4.529-2.956,5.574
		l-6.365,2.657C325.095,176.22,324.286,175.88,323.98,175.176"/>
	<path fill="#FFFFFF" d="M345.751,181.615l-9.508,0.41l0.881,3.585L345.751,181.615z M328.92,193.953l-0.729-3.005
		c-0.172-0.727,0.32-1.347,1.022-1.663l3.437-1.623l-1.313-5.417l-3.791,0.179c-0.771,0.047-1.491-0.279-1.678-1.005l-0.726-3.005
		c-0.19-0.74,0.241-1.653,1.004-1.676l23.849-0.704c0.764-0.032,1.48,0.276,1.663,1.017l1.423,5.902
		c0.198,0.755-0.309,1.343-0.999,1.673l-21.496,10.346C329.904,195.316,329.1,194.689,328.92,193.953"/>
	<path fill="#FFFFFF" d="M330.557,211.784l-0.283-3.553c-0.072-0.896,0.584-1.306,1.252-1.672l12.228-6.444l-12.655,0.996
		c-0.744,0.07-1.423-0.517-1.495-1.263l-0.24-3.068c-0.058-0.767,0.519-1.423,1.274-1.493l23.258-1.842
		c0.747-0.057,1.423,0.519,1.499,1.276l0.263,3.515c0.076,0.937-0.583,1.303-1.273,1.632l-12.479,6.532l12.922-1.017
		c0.763-0.059,1.441,0.526,1.491,1.276l0.24,3.066c0.072,0.755-0.511,1.423-1.263,1.482l-23.25,1.84
		C331.284,213.109,330.613,212.529,330.557,211.784"/>
	<path fill="#FFFFFF" d="M329.18,222.698c0.32-4.303,2.524-7.766,7.765-7.369l1.591,0.11c0.755,0.06,1.335,0.727,1.273,1.485
		l-0.209,3.065c-0.069,0.767-0.729,1.312-1.491,1.243l-1.595-0.107c-1.231-0.091-2.376,0.767-2.456,1.961
		c-0.114,1.495,0.705,2.25,1.938,2.338l1.231,0.08c1.251,0.11,1.873-0.785,3.021-2.338l3.387-4.463
		c1.503-1.998,3.733-2.546,6.103-2.349c5.046,0.36,7.582,3.253,7.189,8.463c-0.34,4.523-3.032,7.728-7.754,7.377l-0.95-0.077
		c-0.739-0.061-1.323-0.717-1.273-1.476l0.225-3.078c0.05-0.747,0.74-1.335,1.487-1.273l0.935,0.061
		c1.553,0.122,2.392-0.816,2.457-1.892c0.095-1.213-0.596-2.17-1.999-2.27l-0.946-0.061c-1.144-0.1-1.575,0.499-2.559,1.781
		l-3.346,4.412c-2.04,2.682-3.265,3.356-6.788,3.086C330.934,231.013,328.79,228.045,329.18,222.698"/>
	<path fill="#FFFFFF" d="M346.289,246.94c0.771,0.183,1.563-0.317,1.743-1.091l0.599-2.674l-7.56-1.713l-0.603,2.67
		c-0.172,0.778,0.313,1.563,1.095,1.739L346.289,246.94z M335.24,245.578l1.175-5.179l-7.205-1.614
		c-0.759-0.175-1.221-0.923-1.061-1.662l0.675-3.006c0.16-0.748,0.92-1.213,1.659-1.045l22.751,5.156
		c0.756,0.16,1.209,0.916,1.041,1.645l-2.078,9.188c-0.58,2.609-3.25,4.592-5.866,3.993l-7.441-1.682
		C336.273,250.777,334.652,248.176,335.24,245.578"/>
	<path fill="#FFFFFF" d="M339.92,266.167c1.151,0.446,2.502-0.05,2.944-1.187c0.438-1.133-0.198-2.41-1.361-2.876l-12.499-4.896
		c-1.163-0.458-2.506,0.049-2.948,1.182c-0.45,1.125,0.194,2.43,1.347,2.876L339.92,266.167z M321.509,256.604
		c1.571-3.997,5.237-6.537,9.597-4.806l12.518,4.89c4.379,1.709,5.362,6.08,3.791,10.065c-1.594,4.031-5.232,6.579-9.646,4.855
		l-12.495-4.897C320.86,264.98,319.927,260.629,321.509,256.604"/>
	<path fill="#FFFFFF" d="M330.613,284.905c0.671,0.389,1.557,0.16,1.976-0.526l1.389-2.392l-5.027-2.94l-1.388,2.41
		c-0.404,0.68-0.16,1.595,0.529,1.983L330.613,284.905z M311.135,278.879l1.599-2.746c0.373-0.66,1.231-0.877,1.888-0.511
		l6.77,3.936c0.832,0.496,1.491,0.397,1.881-0.297l1.51-2.609l-8.04-4.668c-0.663-0.374-0.903-1.236-0.511-1.892l1.541-2.67
		c0.393-0.656,1.243-0.889,1.915-0.496l20.164,11.694c0.652,0.381,0.878,1.243,0.508,1.892l-4.527,7.808
		c-1.529,2.635-4.413,3.455-6.747,2.108l-2.864-1.67c-2.354-1.358-3.547-3.09-2.399-5.546c-1.598,2.426-3.901,2.38-6.235,1.015
		l-5.942-3.444C310.975,280.404,310.734,279.551,311.135,278.879"/>
	<path fill="#FFFFFF" d="M318.622,303.808l2.014-2.628l-15.535-12.033c-0.603-0.473-0.701-1.335-0.229-1.941l1.873-2.422
		c0.454-0.606,1.335-0.725,1.941-0.252l15.534,12.041l2.029-2.62c0.446-0.587,1.289-0.694,1.85-0.244l1.915,1.48
		c0.568,0.457,0.683,1.266,0.229,1.854l-7.65,9.863c-0.442,0.571-1.263,0.687-1.843,0.24l-1.922-1.484
		C318.264,305.215,318.152,304.399,318.622,303.808"/>
	<path fill="#FFFFFF" d="M289.104,313.625c2.277-1.739,5.512-1.293,7.285,0.969c1.724,2.235,1.323,5.523-0.965,7.27
		c-2.239,1.717-5.546,1.289-7.277-0.945C286.393,318.633,286.862,315.356,289.104,313.625"/>
	<path fill="#FFFFFF" d="M259.931,344.34l6.477-2.674l-1.819-4.348l-5.71,2.372c-0.69,0.278-1.426-0.038-1.735-0.709l-0.911-2.235
		c-0.278-0.679,0.022-1.434,0.702-1.713l5.729-2.372l-3.704-8.951c-0.313-0.702,0.038-1.519,0.732-1.801l2.854-1.183
		c0.69-0.301,1.491-0.03,1.781,0.676l8.967,21.675c0.297,0.68-0.02,1.442-0.694,1.725l-10.646,4.409
		c-0.675,0.278-1.441-0.054-1.731-0.718l-0.995-2.43C258.958,345.396,259.256,344.618,259.931,344.34"/>
	<path fill="#FFFFFF" d="M245.186,347.639c0.198,0.764,1.019,1.244,1.773,1.034l2.686-0.687l-1.457-5.634l-2.682,0.702
		c-0.773,0.19-1.231,0.984-1.045,1.754L245.186,347.639z M235.788,329.545l3.078-0.785c0.747-0.198,1.479,0.251,1.682,0.983
		l1.972,7.575c0.248,0.938,0.778,1.339,1.545,1.137l2.926-0.756l-2.35-9.009c-0.19-0.739,0.255-1.502,0.995-1.693l2.976-0.777
		c0.747-0.176,1.491,0.259,1.682,1.007l5.866,22.571c0.175,0.736-0.26,1.495-0.992,1.693l-8.749,2.258
		c-2.93,0.767-5.53-0.694-6.225-3.314l-0.832-3.223c-0.671-2.602-0.278-4.684,2.27-5.592c-2.856,0.562-4.439-1.102-5.118-3.722
		l-1.717-6.66C234.605,330.503,235.056,329.743,235.788,329.545"/>
	<path fill="#FFFFFF" d="M219.41,331.566l11.679-1.266c0.706-0.069,1.365,0.449,1.445,1.178l2.525,23.315
		c0.088,0.729-0.435,1.373-1.163,1.457l-11.469,1.232c-0.714,0.08-1.354-0.446-1.442-1.156l-0.282-2.616
		c-0.088-0.732,0.432-1.377,1.163-1.453l6.953-0.759l-0.511-4.669l-6.152,0.656c-0.729,0.08-1.373-0.446-1.453-1.163l-0.248-2.399
		c-0.08-0.739,0.438-1.373,1.152-1.453l6.167-0.667l-0.629-5.786l-7.171,0.786c-0.713,0.072-1.361-0.438-1.441-1.171l-0.274-2.609
		C218.179,332.295,218.701,331.65,219.41,331.566"/>
	<path fill="#FFFFFF" d="M203.288,331.368l11.706,0.306c0.731,0.042,1.3,0.641,1.293,1.357l-0.642,23.456
		c-0.019,0.726-0.629,1.305-1.361,1.274l-11.519-0.32c-0.725-0.008-1.285-0.618-1.274-1.351l0.08-2.608
		c0.019-0.74,0.622-1.305,1.343-1.285l6.995,0.19l0.125-4.722l-6.202-0.16c-0.721-0.02-1.289-0.614-1.277-1.343l0.068-2.422
		c0.023-0.732,0.629-1.305,1.354-1.281l6.206,0.167l0.145-5.813l-7.201-0.19c-0.732-0.03-1.293-0.625-1.266-1.354l0.069-2.636
		C201.961,331.918,202.556,331.33,203.288,331.368"/>
	<path fill="#FFFFFF" d="M180.446,327.195l10.352,2.411c0.736,0.179,1.201,0.927,1.037,1.663l-5.286,22.709
		c-0.191,0.755-0.931,1.213-1.686,1.045l-2.994-0.706c-0.729-0.172-1.198-0.919-1.019-1.663l4.413-18.929l-5.996-1.4
		c-0.709-0.171-1.144-0.877-0.995-1.575l0.595-2.566C179.039,327.485,179.736,327.035,180.446,327.195"/>
	<path fill="#FFFFFF" d="M161.738,341.514c-0.45,1.167,0.076,2.51,1.213,2.944c1.122,0.428,2.411-0.229,2.864-1.381l4.798-12.544
		c0.45-1.156-0.08-2.51-1.213-2.948c-1.114-0.428-2.407,0.229-2.853,1.396L161.738,341.514z M171.155,323.034
		c4.012,1.522,6.568,5.191,4.897,9.577l-4.817,12.533c-1.686,4.394-6.022,5.408-10.039,3.875c-4.039-1.548-6.61-5.176-4.917-9.596
		l4.806-12.549C162.779,322.466,167.108,321.482,171.155,323.034"/>
	<path fill="#FFFFFF" d="M155.288,315.54c3.727,2.12,5.725,6.103,3.395,10.191l-6.629,11.679c-2.307,4.104-6.751,4.432-10.5,2.322
		c-3.746-2.132-5.767-6.095-3.433-10.218l0.465-0.824c0.385-0.655,1.224-0.896,1.896-0.507l2.674,1.521
		c0.652,0.366,0.9,1.225,0.53,1.873l-0.469,0.824c-0.618,1.063-0.298,2.479,0.744,3.089c1.06,0.576,2.422,0.142,3.063-0.957
		l6.61-11.679c0.603-1.076,0.29-2.479-0.759-3.086c-1.053-0.599-2.418-0.141-3.047,0.946l-0.782,1.423
		c-0.381,0.648-1.228,0.885-1.903,0.507l-2.67-1.515c-0.664-0.365-0.904-1.22-0.526-1.876l0.805-1.419
		C147.092,313.705,151.52,313.396,155.288,315.54"/>
	<path fill="#FFFFFF" d="M128.155,321.463l7.247-6.183l-2.91-2.288L128.155,321.463z M133.819,301.371l2.418,1.91
		c0.599,0.488,0.587,1.274,0.221,1.953l-1.712,3.406l4.367,3.443l2.902-2.479c0.568-0.488,1.343-0.71,1.93-0.214l2.426,1.896
		c0.58,0.477,0.831,1.453,0.221,1.941l-18.338,15.241c-0.61,0.5-1.346,0.702-1.945,0.221l-4.768-3.761
		c-0.603-0.48-0.58-1.251-0.24-1.952l10.565-21.366C132.202,300.901,133.231,300.901,133.819,301.371"/>
	<path fill="#FFFFFF" d="M123.784,290.916l7.334,7.697c0.511,0.549,0.5,1.426-0.054,1.952l-16.877,16.088
		c-0.549,0.526-1.45,0.508-1.972-0.049l-2.125-2.231c-0.522-0.55-0.492-1.423,0.061-1.953l14.07-13.418l-4.245-4.462
		c-0.507-0.52-0.488-1.351,0.05-1.851l1.907-1.822C122.445,290.371,123.277,290.39,123.784,290.916"/>
	<path fill="#FFFFFF" d="M92.253,282.556l1.774,2.815l16.637-10.474c0.648-0.412,1.503-0.206,1.892,0.427l1.652,2.609
		c0.416,0.648,0.213,1.502-0.431,1.899L97.15,290.321l1.762,2.814c0.389,0.61,0.194,1.427-0.408,1.805l-2.044,1.285
		c-0.622,0.389-1.43,0.206-1.815-0.412l-6.656-10.562c-0.396-0.613-0.213-1.415,0.401-1.812l2.041-1.281
		C91.063,281.755,91.872,281.945,92.253,282.556"/>
	<path fill="#FFFFFF" d="M86.631,268.325c-0.729,0.332-1.068,1.194-0.729,1.923l1.121,2.528l5.309-2.388l-1.133-2.532
		c-0.332-0.713-1.209-1.053-1.934-0.713L86.631,268.325z M102.853,256.002l1.319,2.906c0.309,0.71,0,1.515-0.702,1.831l-7.128,3.208
		c-0.874,0.408-1.194,0.995-0.854,1.72l1.225,2.738l8.494-3.813c0.687-0.316,1.522,0,1.842,0.697l1.251,2.812
		c0.313,0.687,0,1.503-0.698,1.823l-21.26,9.573c-0.69,0.32-1.518,0-1.838-0.687l-3.7-8.23c-1.262-2.792-0.24-5.6,2.228-6.69
		l3.024-1.381c2.441-1.091,4.573-1.075,5.896,1.286c-1.041-2.705,0.339-4.551,2.803-5.656l6.271-2.834
		C101.72,255.003,102.547,255.305,102.853,256.002"/>
	<path fill="#FFFFFF" d="M80.914,250.175l9.504-0.656l-0.973-3.585L80.914,250.175z M97.41,237.394l0.805,2.967
		c0.198,0.729-0.271,1.362-0.973,1.701l-3.406,1.713l1.472,5.378l3.795-0.278c0.774-0.072,1.503,0.229,1.693,0.965l0.824,2.975
		c0.19,0.74-0.191,1.663-0.977,1.705l-23.796,1.377c-0.774,0.016-1.503-0.252-1.712-0.977l-1.591-5.889
		c-0.202-0.736,0.279-1.335,0.961-1.689l21.21-10.924C96.392,236.047,97.211,236.665,97.41,237.394"/>
	<path fill="#FFFFFF" d="M95.289,219.593l0.377,3.555c0.096,0.893-0.557,1.313-1.216,1.694l-12.045,6.777l12.632-1.347
		c0.751-0.076,1.434,0.488,1.514,1.236l0.328,3.066c0.08,0.755-0.477,1.434-1.232,1.514l-23.186,2.468
		c-0.755,0.092-1.446-0.477-1.514-1.221l-0.389-3.517c-0.091-0.927,0.572-1.312,1.228-1.655l12.312-6.888l-12.911,1.385
		c-0.751,0.08-1.434-0.47-1.514-1.236l-0.328-3.055c-0.072-0.767,0.473-1.442,1.232-1.526l23.178-2.464
		C94.519,218.297,95.198,218.846,95.289,219.593"/>
	<path fill="#FFFFFF" d="M96.361,208.658c-0.194,4.321-2.296,7.817-7.552,7.58l-1.594-0.072c-0.771-0.04-1.354-0.687-1.312-1.453
		l0.129-3.08c0.05-0.753,0.694-1.312,1.453-1.284l1.591,0.071c1.243,0.067,2.357-0.807,2.406-2.02
		c0.088-1.495-0.751-2.233-1.991-2.283l-1.243-0.059c-1.263-0.05-1.858,0.847-2.968,2.418l-3.253,4.569
		c-1.453,2.046-3.665,2.643-6.041,2.523c-5.039-0.227-7.651-3.07-7.399-8.284c0.209-4.521,2.814-7.787,7.56-7.579l0.911,0.052
		c0.774,0.028,1.366,0.675,1.324,1.441l-0.133,3.076c-0.046,0.767-0.69,1.365-1.45,1.316l-0.923-0.04
		c-1.564-0.071-2.365,0.887-2.422,1.97c-0.05,1.206,0.66,2.142,2.071,2.203l0.935,0.05c1.141,0.049,1.548-0.557,2.514-1.854
		l3.223-4.501c1.972-2.746,3.177-3.456,6.701-3.286C94.385,200.393,96.613,203.29,96.361,208.658"/>
	<path fill="#FFFFFF" d="M78.61,184.893c-0.782-0.16-1.56,0.347-1.72,1.137l-0.53,2.685l7.609,1.493l0.53-2.666
		c0.16-0.786-0.358-1.552-1.148-1.712L78.61,184.893z M89.686,185.959l-1.03,5.185l7.262,1.436c0.751,0.147,1.243,0.883,1.083,1.609
		l-0.599,3.038c-0.141,0.748-0.885,1.234-1.625,1.087l-22.861-4.521c-0.759-0.149-1.251-0.875-1.099-1.632l1.831-9.23
		c0.511-2.619,3.097-4.678,5.751-4.152l7.46,1.476C88.519,180.791,90.201,183.331,89.686,185.959"/>
	<path fill="#FFFFFF" d="M84.45,165.508c-1.164-0.427-2.514,0.12-2.922,1.255c-0.416,1.144,0.271,2.42,1.438,2.839l12.636,4.548
		c1.178,0.427,2.513-0.12,2.921-1.253c0.408-1.146-0.259-2.432-1.434-2.839L84.45,165.508z M103.112,174.547
		c-1.461,4.045-5.062,6.671-9.474,5.069l-12.636-4.539c-4.417-1.604-5.515-5.925-4.062-9.966c1.472-4.076,5.027-6.711,9.501-5.109
		l12.617,4.562C103.531,166.154,104.592,170.466,103.112,174.547"/>
	<path fill="#FFFFFF" d="M93.237,146.504c-0.706-0.37-1.594-0.121-1.964,0.583l-1.331,2.431l5.107,2.777l1.323-2.43
		c0.401-0.696,0.119-1.592-0.561-1.979L93.237,146.504z M112.868,151.979l-1.506,2.805c-0.385,0.669-1.209,0.917-1.892,0.549
		l-6.857-3.734c-0.854-0.467-1.507-0.337-1.888,0.34l-1.457,2.666l8.189,4.441c0.671,0.358,0.916,1.205,0.561,1.882l-1.48,2.688
		c-0.358,0.673-1.201,0.923-1.88,0.557l-20.489-11.133c-0.656-0.366-0.908-1.213-0.549-1.869l4.31-7.946
		c1.45-2.666,4.314-3.576,6.683-2.279l2.91,1.583c2.376,1.295,3.616,2.985,2.544,5.487c1.541-2.481,3.837-2.502,6.209-1.196
		l6.045,3.286C112.994,150.473,113.23,151.31,112.868,151.979"/>
	<path fill="#FFFFFF" d="M104.721,127.285l-1.953,2.672l15.847,11.606c0.61,0.45,0.759,1.316,0.309,1.932l-1.831,2.479
		c-0.439,0.637-1.312,0.757-1.934,0.297l-15.859-11.589l-1.96,2.671c-0.431,0.576-1.258,0.704-1.834,0.277l-1.96-1.423
		c-0.583-0.429-0.702-1.253-0.278-1.842l7.376-10.086c0.431-0.576,1.247-0.708,1.838-0.277l1.953,1.442
		C105.026,125.872,105.156,126.688,104.721,127.285"/>
	<path fill="#FFFFFF" d="M133.929,116.663c-2.223,1.802-5.465,1.445-7.308-0.767c-1.785-2.199-1.464-5.475,0.767-7.287
		c2.205-1.792,5.511-1.443,7.304,0.767C136.508,111.584,136.126,114.88,133.929,116.663"/>
</g>
</svg>
