<?xml version="1.0" standalone="no"?>
<!DOCTYPE svg PUBLIC "-//W3C//DTD SVG 20010904//EN"
 "http://www.w3.org/TR/2001/REC-SVG-20010904/DTD/svg10.dtd">
<svg version="1.0" xmlns="http://www.w3.org/2000/svg"
 width="370.000000pt" height="370.000000pt" viewBox="0 0 370.000000 370.000000"
 preserveAspectRatio="xMidYMid meet">
<metadata>
Created by potrace 1.15, written by Peter Selinger 2001-2017
</metadata>
<g transform="translate(0.000000,370.000000) scale(0.100000,-0.100000)"
fill="#000000" stroke="none">
<path d="M1661 3689 c-256 -25 -539 -119 -766 -256 -596 -359 -944 -1036 -887
-1725 30 -363 153 -688 365 -970 378 -503 997 -781 1620 -730 172 15 290 39
450 92 798 267 1318 1056 1249 1893 -21 246 -82 471 -187 681 -346 690 -1071
1090 -1844 1015z m387 -145 c29 -20 31 -85 2 -114 -42 -42 -120 -14 -120 42 0
29 1 30 40 26 22 -2 40 -1 40 3 0 12 -31 19 -57 12 -22 -5 -25 -3 -20 11 4 10
7 22 7 27 0 15 84 10 108 -7z m-547 -51 c7 -20 6 -28 -3 -35 -18 -11 -32 -10
-46 4 -9 9 -15 9 -23 1 -15 -15 -3 -33 22 -33 12 0 19 -7 19 -20 0 -11 -7 -20
-15 -20 -8 0 -15 -7 -15 -15 0 -8 7 -15 15 -15 9 0 18 7 21 15 10 25 51 18 56
-10 4 -20 -1 -27 -27 -40 -50 -23 -92 -20 -111 10 -9 14 -13 32 -9 45 5 15 1
25 -10 34 -29 21 -16 68 25 88 53 27 88 24 101 -9z m-160 -39 c12 -33 7 -38
-36 -38 -27 0 -35 -4 -35 -17 0 -28 17 -32 40 -9 23 23 34 25 47 8 10 -14 36
-99 31 -102 -2 -2 -29 -13 -61 -26 -49 -19 -60 -21 -68 -9 -16 25 -10 37 26
49 19 6 35 18 35 25 0 11 -6 11 -30 -2 -28 -13 -33 -13 -55 1 -54 35 -40 109
25 132 54 19 69 17 81 -12z m1194 -30 c30 -20 31 -24 5 -54 -22 -26 -27 -54
-7 -48 6 3 17 19 22 36 15 43 19 46 54 27 34 -17 38 -27 18 -47 -8 -7 -19 -24
-26 -37 -11 -20 -11 -22 6 -19 10 2 23 17 28 35 15 44 19 47 54 28 37 -18 38
-27 10 -54 -12 -11 -23 -31 -24 -45 -5 -42 -13 -47 -46 -31 -16 9 -29 19 -29
24 0 5 -8 7 -18 4 -10 -2 -26 5 -36 16 -11 12 -27 21 -36 21 -10 0 -28 8 -41
19 -23 18 -23 18 -5 67 10 27 19 55 22 62 5 16 20 15 49 -4z m-1367 -45 c-20
-12 31 -111 53 -104 31 10 28 -21 -5 -42 -58 -41 -60 -40 -95 37 -17 39 -36
68 -41 65 -5 -3 -14 4 -20 15 -10 19 -6 23 42 44 48 22 54 23 65 8 10 -12 10
-17 1 -23z m-204 -95 c4 -9 5 -17 4 -18 -35 -14 -68 -50 -56 -62 4 -3 17 1 30
10 12 9 35 16 50 16 22 0 32 -7 45 -34 15 -32 15 -37 -1 -61 -9 -14 -33 -33
-52 -43 -32 -15 -38 -15 -62 -1 -15 8 -37 30 -49 48 -38 57 -28 106 30 141 39
24 53 25 61 4z m1850 -15 c32 -25 34 -66 5 -103 -28 -35 -73 -35 -111 1 -33
32 -35 47 -8 91 16 26 26 32 54 32 19 0 45 -9 60 -21z m-749 -44 c198 -32 411
-116 573 -227 105 -72 267 -231 342 -336 295 -411 343 -954 125 -1410 -71
-148 -139 -246 -258 -369 -266 -275 -615 -423 -997 -423 -291 0 -578 92 -812
260 -105 75 -264 237 -336 342 -234 342 -303 779 -187 1183 34 120 128 310
205 417 75 105 237 264 342 336 158 108 373 194 563 226 109 19 330 19 440 1z
m879 -57 c23 -33 20 -56 -13 -89 -36 -36 -60 -37 -100 -3 -34 28 -39 55 -16
74 19 15 47 -4 38 -26 -7 -19 21 -18 38 2 11 14 9 20 -15 40 -22 20 -26 27
-16 39 10 13 16 13 40 0 16 -8 36 -25 44 -37z m-2099 -20 c65 -60 62 -132 -6
-172 -27 -16 -33 -17 -46 -4 -12 13 -11 17 11 32 17 10 26 26 26 42 l0 26 -31
-26 c-17 -14 -37 -26 -45 -26 -17 0 -64 44 -64 60 0 24 32 70 58 84 40 22 59
19 97 -16z m2254 -124 c28 -36 26 -70 -5 -99 -36 -33 -69 -31 -105 4 -34 34
-36 50 -10 82 l19 24 31 -29 c22 -21 31 -25 31 -14 0 9 -10 22 -22 30 -20 13
-21 18 -9 31 16 20 39 10 70 -29z m-2401 24 c7 -7 12 -22 12 -34 0 -16 8 -23
29 -27 37 -8 47 -37 27 -76 -19 -36 -53 -61 -83 -61 -23 0 -56 37 -47 52 3 4
-8 8 -25 8 -61 0 -64 68 -5 120 36 31 72 38 92 18z m2511 -149 l24 -30 -31
-43 c-29 -40 -30 -44 -16 -65 18 -25 60 -25 58 0 -1 9 7 21 16 27 15 9 22 5
44 -28 25 -38 25 -40 7 -49 -10 -6 -21 -8 -23 -5 -3 3 -19 -9 -36 -26 -17 -16
-35 -30 -41 -30 -10 0 -35 37 -36 53 0 4 -5 11 -10 15 -6 4 -23 26 -39 50 -23
33 -27 45 -17 55 7 7 17 12 23 12 6 0 18 11 26 24 16 24 16 24 -8 10 -13 -8
-32 -23 -42 -34 -17 -20 -17 -20 -42 10 -25 31 -23 43 10 49 10 3 35 11 54 20
47 20 51 20 79 -15z m-2689 -132 c15 -27 30 -44 34 -39 3 6 4 16 1 24 -3 7 1
22 8 32 13 17 14 17 44 -1 l31 -19 -34 -54 c-20 -30 -39 -61 -43 -68 -12 -21
-40 -3 -61 39 -11 21 -34 54 -51 73 -30 35 -30 35 -13 65 17 29 19 30 37 13
11 -9 32 -39 47 -65z m2842 -117 c2 -7 11 -22 21 -32 20 -21 22 -49 5 -66 -20
-20 -45 -14 -71 18 -35 41 -44 38 -17 -7 17 -29 18 -38 8 -44 -21 -14 -26 -11
-53 28 -32 48 -32 76 3 102 15 12 38 31 51 42 l25 21 12 -24 c7 -14 14 -31 16
-38z m-2895 30 c59 -35 72 -95 33 -150 -23 -32 -28 -34 -49 -21 -11 7 -11 13
3 32 9 13 16 31 16 40 0 30 -24 27 -40 -5 -18 -36 -50 -45 -86 -22 -33 23 -33
74 2 115 31 37 73 41 121 11z m3037 -193 c17 -42 18 -49 6 -57 -23 -15 -27
-12 -39 20 -5 17 -14 30 -20 30 -5 0 -4 -12 4 -27 18 -35 5 -60 -42 -80 -44
-18 -80 -10 -88 20 -4 12 -13 37 -22 55 -18 41 -11 62 21 62 13 0 39 7 57 15
19 8 50 14 69 12 31 -2 36 -7 54 -50z m-3156 -22 c26 -30 43 -42 47 -34 4 6 2
15 -5 19 -9 6 -9 13 2 32 12 24 15 24 45 12 l32 -14 -25 -67 c-14 -37 -27 -71
-30 -75 -8 -13 -31 2 -86 56 -29 29 -59 55 -67 58 -12 3 -12 10 -1 40 16 44
28 41 88 -27z m3164 -197 c1 -13 2 -30 3 -38 1 -8 7 -25 14 -38 14 -26 7 -58
-15 -66 -23 -9 -53 11 -68 47 -16 36 -21 13 -6 -27 5 -15 6 -26 1 -26 -5 0
-16 -2 -23 -5 -29 -11 -52 111 -25 133 6 5 27 13 45 17 17 3 32 11 32 16 0 5
9 9 20 9 14 0 21 -7 22 -22z m-3181 -11 c27 -18 35 -30 37 -61 3 -37 -13 -96
-27 -96 -18 1 -27 19 -26 54 0 23 -5 41 -12 43 -8 3 -13 -5 -13 -19 0 -42 -25
-63 -72 -59 -48 3 -65 86 -27 135 27 35 91 36 140 3z m-111 -177 c0 -20 -5
-30 -15 -30 -8 0 -15 -7 -15 -15 0 -8 7 -15 15 -15 9 0 18 7 21 15 9 23 44 19
44 -5 0 -11 7 -20 15 -20 17 0 21 26 4 32 -6 2 -8 14 -4 30 6 22 10 25 33 19
25 -7 27 -12 27 -58 -1 -28 -7 -58 -14 -67 -14 -17 -66 -22 -75 -7 -3 5 -23 7
-45 4 -32 -4 -41 -2 -55 18 -19 27 -20 54 -5 98 9 25 16 31 40 31 26 0 29 -4
29 -30z m3274 -86 c3 -9 6 -29 6 -45 0 -19 4 -28 11 -23 6 4 8 20 4 40 -5 27
-2 36 11 41 23 8 34 -14 34 -69 0 -52 -23 -78 -70 -78 -78 0 -108 111 -37 140
31 12 34 12 41 -6z m-3269 -60 c12 -13 19 -14 28 -5 35 35 87 -6 87 -69 0 -63
-52 -104 -88 -68 -9 9 -16 7 -32 -7 -42 -38 -98 21 -86 94 10 62 56 90 91 55z
m3239 -83 c3 -4 26 -14 51 -21 44 -12 45 -13 45 -56 0 -41 -2 -43 -37 -53 -21
-6 -43 -11 -49 -11 -7 0 -15 -7 -18 -16 -5 -13 2 -15 46 -12 l53 3 -4 -40 c-1
-22 -5 -42 -7 -44 -2 -2 -17 2 -35 9 -17 7 -47 13 -68 12 l-36 -2 9 76 c9 66
12 75 31 73 11 -1 34 0 50 1 26 1 27 3 10 10 -11 5 -35 6 -52 3 -33 -5 -33 -5
-33 36 0 34 3 41 19 41 11 0 22 -4 25 -9z m-3072 -401 c10 -36 16 -75 13 -88
-6 -26 -53 -48 -74 -35 -9 6 -23 0 -43 -19 -36 -33 -55 -35 -62 -8 -3 11 -8
29 -12 39 -4 16 1 21 30 26 19 4 37 13 40 21 7 18 -4 23 -29 13 -11 -4 -15 -8
-10 -8 12 -2 -16 -21 -30 -21 -6 0 -16 21 -23 47 -14 50 -5 68 30 57 23 -7
101 17 111 34 18 29 40 7 59 -58z m3090 0 c23 0 28 -4 28 -25 0 -13 -6 -30
-13 -36 -7 -7 -11 -25 -9 -40 5 -33 -26 -54 -69 -45 -16 3 -29 1 -29 -4 0 -5
-9 -18 -21 -29 -24 -22 -18 -41 12 -41 13 0 24 10 30 30 12 32 16 35 37 22 17
-11 5 -65 -20 -91 -25 -28 -75 -27 -105 1 -27 26 -29 59 -6 99 14 23 23 29 41
24 l23 -6 -21 21 c-24 24 -25 43 -5 60 22 18 11 27 -26 22 -29 -4 -31 -3 -24
19 3 13 9 32 11 41 4 15 10 15 72 -3 37 -10 79 -19 94 -19z m-3092 -182 c25
-42 25 -59 -1 -92 l-21 -27 25 6 c32 8 75 -29 83 -72 5 -25 2 -33 -16 -43 -26
-14 -42 1 -37 34 3 25 -14 30 -38 12 -18 -13 -18 -15 -2 -40 19 -28 15 -46 -9
-46 -17 0 -54 57 -54 84 0 11 10 31 23 44 18 20 19 24 4 19 -40 -14 -97 38
-97 88 0 29 46 65 85 65 29 0 39 -6 55 -32z m175 -214 c14 -22 15 -28 4 -35
-8 -4 -23 -15 -34 -23 -18 -13 -18 -15 -3 -16 15 0 38 -27 38 -45 0 -9 -91
-95 -100 -95 -14 0 -42 51 -36 66 3 8 13 14 23 14 25 1 56 26 48 39 -8 14 -44
-4 -63 -31 -18 -25 -25 -23 -46 13 -19 32 -13 50 19 55 17 2 72 40 98 66 24
24 32 23 52 -8z m2661 -69 c18 -14 40 -25 49 -25 29 0 30 -32 2 -56 -15 -13
-27 -29 -27 -37 0 -40 -47 -47 -93 -15 -18 13 -33 22 -35 20 -1 -1 -9 1 -17 5
-12 7 -11 13 8 36 l22 28 38 -28 c25 -18 41 -23 48 -16 10 10 -8 32 -33 37 -7
2 -21 6 -30 11 -17 7 -16 9 3 36 11 16 23 29 26 29 3 0 21 -11 39 -25z m-2597
-120 c39 -45 40 -76 2 -108 -17 -14 -28 -27 -25 -30 3 -3 -3 -10 -14 -16 -18
-9 -24 -6 -42 19 -12 17 -18 30 -13 31 4 0 -2 4 -14 9 -27 11 -40 54 -23 75
18 21 34 19 70 -11 40 -34 48 -25 14 16 -22 26 -25 33 -13 41 21 13 24 12 58
-26z m2498 -29 c15 -13 38 -26 51 -30 29 -10 28 -19 -8 -49 -16 -14 -30 -30
-30 -35 0 -19 -39 -44 -59 -37 -31 9 -35 41 -11 80 12 19 17 35 11 35 -5 0
-18 -13 -28 -30 -20 -34 -26 -36 -42 -16 -16 19 -3 44 40 80 37 32 40 32 76 2z
m-2273 -127 c56 -51 69 -82 44 -107 -7 -7 -22 -12 -34 -12 -17 0 -20 -5 -17
-23 5 -27 -19 -57 -45 -57 -10 0 -45 23 -79 51 -54 44 -61 53 -51 69 7 10 16
17 20 14 9 -6 73 64 73 80 1 16 15 36 25 36 5 0 34 -23 64 -51z m2157 6 c13
-13 29 -25 35 -25 6 0 17 -7 24 -15 11 -13 9 -20 -10 -40 -28 -29 -48 -32 -57
-7 -8 22 -34 52 -45 52 -20 0 -5 -30 27 -54 l35 -27 -30 -25 c-32 -28 -46 -25
-60 12 -6 14 -18 27 -27 31 -45 16 -45 25 4 74 26 26 55 48 64 49 9 0 27 -11
40 -25z m-182 -128 c6 -8 9 -16 6 -19 -3 -3 2 -24 10 -48 19 -55 20 -55 -12
-75 -21 -14 -30 -15 -45 -6 -15 9 -17 8 -15 -9 1 -13 -8 -27 -25 -37 -26 -17
-28 -16 -70 17 -24 18 -48 37 -54 42 -8 5 -9 -6 -3 -40 14 -83 12 -91 -23
-105 -29 -12 -35 -12 -46 2 -12 14 -13 13 -9 -6 4 -18 -1 -24 -30 -34 -35 -11
-36 -11 -78 36 l-43 47 -7 -30 c-3 -17 -3 -46 0 -65 7 -34 6 -36 -32 -46 -32
-9 -40 -8 -50 6 -12 15 -13 15 -13 -3 0 -15 -10 -24 -35 -31 -34 -11 -35 -10
-60 33 -14 24 -30 44 -35 44 -15 0 -12 40 3 45 6 3 23 6 37 7 21 3 25 -1 26
-23 1 -14 6 -34 13 -45 10 -16 11 -10 5 34 -4 32 -2 52 4 52 6 0 17 3 25 6 10
4 24 -9 41 -38 29 -48 34 -44 10 8 -9 19 -15 36 -13 38 9 6 125 48 139 49 9 1
16 -8 18 -25 2 -14 9 -32 17 -38 12 -10 13 -6 5 22 -14 47 -13 56 11 69 17 9
23 7 34 -8 33 -45 44 -57 45 -46 0 6 -6 18 -13 25 -30 30 -24 42 39 80 77 47
91 48 86 7 -1 -4 7 -14 18 -24 19 -17 19 -17 3 23 -13 34 -13 44 -3 57 18 22
30 19 69 -17 33 -31 27 -16 -11 26 -17 19 -17 20 10 38 32 21 36 22 51 5z
m-1877 -22 c58 -39 62 -54 30 -119 -15 -30 -30 -56 -33 -56 -3 0 -17 10 -31
23 -14 12 -38 29 -54 37 -16 9 -30 24 -32 33 -8 41 45 62 84 32 10 -8 23 -15
28 -15 15 0 -25 39 -45 45 -15 5 -17 10 -9 26 14 24 18 24 62 -6z m157 -100
c54 -27 60 -33 55 -55 -5 -24 -5 -24 14 -6 16 14 24 15 41 6 27 -14 26 -25 -5
-52 -17 -15 -23 -29 -20 -43 9 -34 -6 -48 -37 -34 -19 8 -27 20 -27 37 0 24
-1 24 -19 8 -15 -14 -24 -15 -40 -6 -12 6 -21 15 -21 20 0 11 29 40 40 40 5 0
8 18 7 40 -1 22 -2 40 -3 40 -6 0 -43 -73 -40 -78 2 -4 -1 -15 -8 -24 -12 -16
-15 -16 -44 2 -34 21 -41 37 -18 46 13 5 23 24 40 77 7 21 3 22 85 -18z m454
-101 c11 -4 13 -13 7 -37 -7 -32 -6 -33 26 -29 24 3 35 -1 41 -15 8 -14 10
-75 4 -127 -1 -12 -74 3 -83 17 -6 9 -8 9 -8 0 0 -7 -6 -11 -12 -9 -7 3 -25 7
-40 10 l-28 6 16 39 c9 22 17 63 19 93 1 29 3 54 4 56 2 4 39 2 54 -4z m-186
-16 c15 -6 34 -10 40 -9 7 1 22 -3 34 -9 19 -10 20 -18 15 -77 -3 -36 -7 -67
-9 -69 -7 -7 -71 16 -79 28 -5 9 -8 9 -8 1 0 -8 -9 -8 -37 0 -21 6 -39 12 -41
13 -2 1 6 19 17 40 12 21 18 46 15 56 -6 19 2 38 16 38 5 0 21 -5 37 -12z
m418 -79 c7 -8 15 -40 19 -71 l6 -58 -62 1 c-88 1 -98 5 -98 38 0 29 19 42 75
54 11 3 1 5 -22 6 -35 1 -43 5 -43 19 0 10 3 22 8 26 11 12 102 0 117 -15z"/>
<path d="M1680 3068 c-183 -26 -408 -143 -517 -268 -57 -66 -113 -163 -140
-244 -24 -72 -27 -96 -27 -221 -1 -141 2 -156 49 -270 8 -20 8 -20 -14 0 l-23
20 -29 -35 c-43 -52 -58 -91 -69 -172 -13 -96 -25 -570 -16 -630 8 -56 8 -55
172 -63 65 -3 136 -8 156 -11 21 -3 53 -1 72 6 28 9 44 7 96 -10 34 -11 98
-23 143 -26 103 -6 147 -13 147 -22 0 -4 -20 -18 -45 -31 -70 -37 -126 -91
-151 -145 -29 -62 -29 -79 -4 -134 15 -34 29 -47 65 -63 40 -18 61 -20 198
-16 83 3 224 5 312 6 141 2 163 4 193 23 l33 20 49 -21 c122 -52 283 4 306
107 3 15 17 51 31 80 23 47 25 58 15 90 -6 20 -10 37 -9 37 86 51 112 83 123
155 4 25 15 55 26 67 11 11 22 39 25 60 12 90 -63 146 -196 147 -42 1 -92 -1
-111 -4 -32 -5 -35 -3 -41 28 -12 61 -54 92 -138 101 -31 3 -56 12 -59 19 -3
9 4 11 25 6 46 -10 290 -95 361 -125 120 -50 97 -22 -86 104 -75 52 -177 120
-227 151 -96 61 -94 58 44 -66 36 -32 59 -58 53 -58 -18 0 -211 74 -272 105
l-55 27 40 -42 40 -43 -33 7 c-63 11 -187 68 -267 121 -72 48 -180 145 -162
145 5 0 40 -22 80 -49 84 -57 247 -151 261 -151 5 0 -15 26 -45 57 -98 103
-146 179 -71 111 21 -19 58 -48 84 -66 48 -33 249 -142 262 -142 4 0 -19 29
-51 64 -54 59 -123 166 -108 166 4 0 24 -13 44 -29 20 -16 106 -63 191 -104
160 -78 268 -153 324 -225 l28 -37 -6 44 c-10 67 -31 98 -132 202 -52 53 -94
101 -94 106 0 6 -20 8 -49 5 -70 -6 -99 3 -122 42 -15 26 -28 35 -58 40 -49 7
-95 57 -85 90 17 55 107 116 174 116 19 0 54 -9 78 -20 40 -18 43 -18 50 -2 4
9 7 53 7 97 0 74 -3 86 -40 154 -48 90 -150 196 -230 237 -45 24 -55 33 -50
49 12 44 17 105 11 130 -10 41 -94 124 -157 155 -61 31 -195 61 -268 59 -25
-1 -75 -6 -111 -11z m265 -58 c92 -24 150 -55 195 -106 28 -33 32 -42 27 -81
-6 -52 -30 -83 -66 -83 -25 0 -26 3 -23 40 3 26 -2 49 -12 65 -22 34 -33 31
-28 -5 2 -18 -2 -40 -12 -55 -19 -28 -85 -65 -117 -65 l-23 0 22 20 c17 16 22
32 22 70 0 41 -5 55 -31 85 -28 32 -59 49 -44 25 35 -57 12 -128 -58 -177 -90
-64 -168 -67 -234 -7 l-38 35 43 -7 c62 -9 102 10 102 48 0 86 -98 125 -197
77 -46 -22 -103 -90 -142 -167 -48 -95 -43 -98 29 -19 40 42 75 75 80 72 4 -3
20 -25 34 -50 l26 -44 -36 -48 c-61 -79 -98 -185 -92 -259 l3 -39 24 45 c24
46 50 80 60 80 3 0 6 -51 6 -113 0 -91 5 -125 23 -179 43 -123 138 -233 279
-321 24 -15 46 -27 49 -27 4 0 -34 38 -84 85 -144 136 -202 244 -202 378 0
125 84 235 233 306 45 22 100 43 122 47 22 3 61 15 88 27 44 18 49 19 66 3 27
-25 84 -32 100 -12 18 22 39 20 89 -9 141 -81 251 -235 252 -354 l0 -55 -25
50 c-15 29 -58 83 -104 127 -141 137 -285 183 -454 143 -115 -27 -196 -77
-246 -153 -108 -163 -25 -389 210 -574 44 -34 78 -64 75 -66 -2 -2 -37 3 -77
12 -84 17 -187 63 -289 129 -38 25 -70 43 -70 40 0 -10 63 -99 93 -131 46 -49
22 -40 -59 22 -177 136 -323 341 -356 499 -18 84 0 169 61 291 l50 100 -44
-48 c-65 -71 -126 -199 -132 -278 -10 -116 52 -283 163 -441 55 -79 55 -80 23
-62 -57 33 -163 146 -197 211 -79 150 -80 370 -4 520 65 127 191 246 337 318
171 85 345 107 510 65z m-866 -1115 c30 -33 40 -51 36 -65 -5 -16 3 -24 47
-43 91 -41 143 -110 155 -205 6 -52 -11 -215 -29 -274 l-11 -38 -59 0 c-32 0
-58 3 -58 6 0 4 12 50 27 103 36 129 38 266 6 327 -12 23 -29 44 -38 48 -62
24 -75 -18 -82 -271 l-6 -203 -44 0 -43 0 0 173 c0 251 22 487 45 487 7 0 31
-20 54 -45z m363 -149 c36 -13 114 -38 174 -55 60 -17 124 -35 142 -40 37 -11
37 -11 -15 57 -18 24 -33 47 -33 52 0 5 60 -20 133 -54 72 -35 148 -69 169
-76 35 -13 35 -14 17 -29 -17 -14 -37 -15 -137 -8 -64 4 -143 9 -174 11 -43 2
-68 11 -106 35 -66 42 -164 81 -204 81 -26 0 -39 8 -60 34 -35 44 -35 50 1 32
16 -9 58 -26 93 -40z m48 -147 c125 -59 160 -100 161 -191 l0 -53 22 75 22 75
54 3 c60 4 58 12 22 -88 -35 -94 -23 -180 24 -180 28 0 62 23 81 53 15 25 19
51 19 119 l0 88 30 -1 c17 0 53 -4 80 -9 45 -7 52 -6 70 15 25 29 115 46 115
21 0 -8 -4 -18 -10 -21 -21 -13 -9 -36 21 -42 23 -4 29 -10 27 -27 -2 -17 -10
-21 -43 -21 -37 0 -41 -3 -52 -37 -7 -21 -15 -68 -19 -105 -4 -38 -11 -74 -17
-80 -5 -7 -29 -13 -53 -13 -54 0 -54 0 -19 146 14 58 25 108 25 110 0 2 -11 4
-24 4 -22 0 -25 -6 -31 -52 -7 -54 -33 -148 -44 -159 -3 -4 -61 -9 -129 -13
-121 -7 -123 -6 -147 18 -19 19 -25 36 -26 73 l-1 48 -12 -60 -11 -60 -40 -3
c-88 -8 -217 34 -249 80 -30 43 -12 146 29 162 8 3 50 1 92 -4 78 -10 98 -5
88 22 -14 36 -124 74 -140 48 -9 -14 -23 -4 -41 31 -12 24 -13 34 -3 45 18 22
58 17 129 -17z m888 -164 c4 -4 -18 -130 -39 -227 -13 -57 -32 -62 -83 -21
l-34 26 30 111 c16 61 32 114 35 119 5 8 82 1 91 -8z m358 -37 c30 -14 27 -38
-6 -55 -20 -10 -27 -9 -40 2 -43 38 -133 21 -167 -32 -22 -33 -21 -83 2 -99
25 -19 99 -18 136 2 17 8 33 13 36 10 12 -12 -9 -36 -49 -58 -35 -18 -59 -23
-126 -23 -79 0 -85 1 -108 28 -29 34 -31 77 -4 131 36 75 136 120 243 110 32
-3 70 -10 83 -16z m-816 -285 c0 -22 -28 -69 -85 -143 -23 -30 -54 -76 -69
-102 l-28 -48 -70 0 c-88 0 -108 10 -108 56 0 27 9 43 43 78 54 54 166 111
201 102 19 -5 29 -1 40 16 9 12 16 30 16 40 0 13 8 18 30 18 22 0 30 -5 30
-17z m45 -84 c-7 -19 -5 -20 22 -6 50 26 73 30 73 13 0 -18 -53 -62 -58 -47
-5 16 -39 13 -68 -5 -34 -23 -74 -94 -74 -132 0 -31 -2 -32 -41 -32 -40 0 -41
1 -34 28 18 72 121 202 162 202 20 0 23 -4 18 -21z m189 9 c-4 -7 -20 -32 -36
-56 -29 -41 -40 -70 -52 -124 -6 -25 -11 -28 -46 -28 -39 0 -40 1 -34 28 13
51 80 157 119 184 18 13 57 9 49 -4z m86 6 c0 -3 -11 -22 -25 -42 -24 -35 -35
-102 -16 -102 17 0 58 40 92 89 24 35 42 51 62 53 16 3 27 0 27 -7 0 -40 -166
-205 -205 -205 -30 0 -55 35 -55 75 0 29 30 106 52 132 10 12 68 19 68 7z
m331 -4 c24 -13 25 -52 2 -72 -29 -26 -79 -47 -134 -59 -48 -11 -51 -13 -34
-25 26 -19 54 -17 100 6 42 21 55 19 39 -8 -27 -43 -124 -65 -178 -40 -52 23
-45 89 16 143 65 59 140 81 189 55z"/>
</g>
</svg>
