<?xml version="1.0" encoding="utf-8"?>
<!-- Generator: Adobe Illustrator 16.0.0, SVG Export Plug-In . SVG Version: 6.00 Build 0)  -->
<!DOCTYPE svg PUBLIC "-//W3C//DTD SVG 1.1//EN" "http://www.w3.org/Graphics/SVG/1.1/DTD/svg11.dtd">
<svg version="1.1" id="Layer_1" xmlns="http://www.w3.org/2000/svg" xmlns:xlink="http://www.w3.org/1999/xlink" x="0px" y="0px"
	 width="425.2px" height="130.943px" viewBox="0 0 425.2 130.943" enable-background="new 0 0 425.2 130.943" xml:space="preserve">
<g>
	<path fill="#FFFFFF" d="M136.457,65.981c1.354,0,3.688-0.053,7.005-0.154c3.315-0.101,5.821-0.154,7.519-0.154
		c0.123,0.872,0.35,2.023,0.69,3.447c0.337,1.428,0.545,2.327,0.617,2.685c-0.148,0.149-0.418,0.226-0.809,0.226
		c-0.375,0-0.588-0.103-0.632-0.309c-0.467-1.671-1.117-2.8-1.949-3.377c-0.838-0.578-1.931-0.869-3.282-0.869h-3.879
		c-1.971,0-3.009,0.168-3.112,0.499c-0.178,0.563-0.257,1.635-0.227,3.2v8.433c-0.011,0.111,0.157,0.177,0.52,0.216
		c0.359,0.036,0.833,0.059,1.417,0.059h2.392c0.751,0,1.337-0.01,1.758-0.022c0.421-0.014,0.818-0.063,1.186-0.137
		c0.369-0.075,0.637-0.172,0.801-0.295c0.165-0.115,0.326-0.291,0.473-0.508c0.153-0.216,0.265-0.472,0.348-0.775
		c0.083-0.3,0.188-0.679,0.304-1.129c0.034-0.167,0.062-0.291,0.091-0.384c0.046-0.206,0.271-0.313,0.677-0.313
		c0.361,0,0.62,0.07,0.771,0.226v8.525c-0.125,0.114-0.365,0.176-0.725,0.176c-0.391,0-0.631-0.114-0.723-0.356
		c-0.316-1.187-0.547-1.949-0.696-2.271c-0.155-0.317-0.342-0.56-0.565-0.71c-0.378-0.242-1.972-0.356-4.781-0.356h-0.698
		c-0.168,0-0.397,0-0.701,0.004c-0.297,0.014-0.535,0.021-0.72,0.04c-0.184,0.013-0.367,0.034-0.565,0.066
		c-0.193,0.026-0.337,0.069-0.428,0.123c-0.087,0.049-0.136,0.109-0.136,0.168v8.569c-0.011,0.528-0.004,1.15,0.033,1.878
		c0.038,0.715,0.119,1.133,0.238,1.234c0.272,0.207,0.607,0.339,1.006,0.384c0.395,0.044,1.13,0.07,2.197,0.07h2.165
		c1.085,0,2.147-0.115,3.189-0.326c1.047-0.22,1.876-0.521,2.494-0.891c0.645-0.392,1.163-0.943,1.558-1.64
		c0.388-0.701,0.818-1.666,1.285-2.919c0.044-0.186,0.258-0.269,0.632-0.269c0.569,0,0.946,0.083,1.128,0.269
		c-0.136,0.389-0.363,1.015-0.679,1.869c-0.317,0.855-0.568,1.553-0.756,2.09c-0.187,0.529-0.38,1.138-0.584,1.816
		c-0.205,0.675-0.346,1.248-0.42,1.711c-1.55,0-3.974-0.031-7.281-0.089c-3.309-0.062-6.007-0.092-8.096-0.092
		c-0.741,0-1.678,0.026-2.822,0.069c-1.144,0.045-1.99,0.066-2.547,0.066c-0.108-0.119-0.157-0.339-0.146-0.652
		c0.006-0.317,0.055-0.537,0.146-0.661c0.447,0,1.066-0.062,1.847-0.197c0.785-0.138,1.203-0.31,1.265-0.517
		c0.15-0.485,0.225-1.596,0.225-3.342V71.13c0-1.745-0.075-2.856-0.225-3.337c-0.062-0.216-0.48-0.388-1.265-0.524
		c-0.781-0.128-1.4-0.194-1.847-0.194c-0.091-0.123-0.14-0.344-0.146-0.656c-0.011-0.317,0.038-0.533,0.146-0.657
		C134.218,65.915,135.992,65.981,136.457,65.981"/>
	<path fill="#FFFFFF" d="M162.753,65.981c0.844,0,2.764-0.066,5.775-0.221c0.058,0.138,0.084,0.388,0.077,0.758
		c-0.006,0.361-0.064,0.556-0.17,0.556c-0.282,0-0.617,0.026-0.991,0.097c-0.375,0.063-0.754,0.222-1.14,0.45
		c-0.379,0.234-0.575,0.529-0.575,0.891c0,0.393,0.18,0.843,0.544,1.357l5.228,8.023c0.485-0.643,1.138-1.516,1.964-2.601
		c0.828-1.094,1.479-1.948,1.949-2.574c0.473-0.617,0.97-1.291,1.479-2.006c0.509-0.71,0.901-1.283,1.172-1.697
		c0.136-0.216,0.206-0.45,0.206-0.732c0-0.158-0.073-0.317-0.217-0.479c-0.141-0.159-0.454-0.309-0.935-0.464
		c-0.482-0.146-1.115-0.229-1.896-0.229c-0.09-0.014-0.149-0.19-0.167-0.547c-0.022-0.353,0.004-0.601,0.076-0.758
		c1.998,0.157,3.556,0.232,4.667,0.232c1.503,0,3.158-0.075,4.961-0.232c0.076,0.109,0.11,0.316,0.106,0.643
		c-0.009,0.327-0.073,0.547-0.196,0.662c-0.225,0-0.526,0.039-0.912,0.105c-0.379,0.062-0.894,0.256-1.535,0.555
		c-0.637,0.301-1.159,0.68-1.565,1.147c-2.74,3.248-5.504,6.736-8.301,10.465l8.887,13.261c0.391,0.6,1.01,1.05,1.858,1.357
		c0.853,0.301,1.704,0.441,2.563,0.441c0.073,0.142,0.106,0.375,0.097,0.706c-0.004,0.325-0.023,0.528-0.053,0.607
		c-0.405-0.013-0.906-0.044-1.5-0.087c-0.593-0.049-1.127-0.08-1.603-0.103c-0.472-0.026-0.987-0.03-1.543-0.03
		c-0.754,0-1.468,0.004-2.142,0.03c-0.679,0.022-1.444,0.054-2.297,0.103c-0.862,0.043-1.574,0.074-2.145,0.087
		c-0.108-0.119-0.159-0.365-0.159-0.745c0-0.374,0.051-0.568,0.159-0.568c0.404,0,0.941-0.11,1.612-0.343
		c0.67-0.234,1-0.539,1-0.917c0-0.054-0.07-0.238-0.221-0.539l-6.879-10.598c-1.444,1.922-2.974,4.021-4.581,6.295
		c-1.607,2.263-2.57,3.703-2.885,4.303c-0.15,0.45-0.227,0.688-0.227,0.724c0,0.193,0.112,0.37,0.329,0.524
		c0.216,0.163,0.594,0.295,1.139,0.396c0.542,0.11,1.206,0.154,2.006,0.154c0.09,0.124,0.139,0.362,0.15,0.706
		c0.004,0.343-0.016,0.547-0.06,0.607c-2.781-0.149-4.479-0.22-5.096-0.22c-0.693,0-2.544,0.07-5.546,0.22
		c-0.061-0.149-0.08-0.388-0.048-0.713c0.03-0.323,0.076-0.521,0.134-0.601c0.513,0,1.309-0.154,2.394-0.468
		c1.08-0.317,1.895-0.819,2.434-1.511c1.005-1.293,1.983-2.58,2.932-3.845c0.949-1.27,1.978-2.667,3.092-4.175
		c1.111-1.508,2.05-2.777,2.815-3.795l-6.359-9.744c-0.541-0.846-1.017-1.484-1.431-1.927c-0.413-0.448-0.93-0.846-1.548-1.186
		c-0.354-0.216-0.792-0.388-1.305-0.524c-0.513-0.128-0.919-0.194-1.218-0.194c-0.105,0-0.159-0.194-0.159-0.563
		c0-0.384,0.053-0.626,0.159-0.75c0.513,0.014,1.128,0.045,1.85,0.089c0.72,0.049,1.367,0.079,1.939,0.101
		C161.478,65.973,162.092,65.981,162.753,65.981"/>
	<path fill="#FFFFFF" d="M209.052,74.014c0,2.737-0.913,4.933-2.738,6.587c-1.83,1.657-4.221,2.481-7.184,2.481
		c-0.813,0-1.457-0.119-1.939-0.356c-0.423-0.292-0.63-0.622-0.63-0.997c0-0.026,0.004-0.062,0.025-0.102
		c0.013-0.03,0.037-0.07,0.066-0.101c0.028-0.026,0.072-0.04,0.134-0.022c0.767,0.206,1.335,0.313,1.71,0.313
		c1.867,0,3.401-0.617,4.605-1.868c1.203-1.248,1.806-2.963,1.806-5.163c0-2.302-0.633-4.113-1.898-5.444
		c-1.261-1.332-3.11-2.002-5.545-2.002c-1.367,0-2.119,0.155-2.255,0.454c-0.149,0.361-0.227,1.486-0.227,3.386v19.208
		c0,1.746,0.077,2.856,0.227,3.342c0.057,0.212,0.479,0.384,1.263,0.517c0.781,0.136,1.397,0.206,1.847,0.206
		c0.09,0.123,0.138,0.335,0.149,0.657c0.005,0.309-0.042,0.528-0.149,0.652c-3.082-0.154-4.84-0.225-5.277-0.225
		c-0.465,0-2.24,0.07-5.322,0.225c-0.106-0.124-0.154-0.344-0.147-0.652c0.007-0.322,0.06-0.534,0.147-0.657
		c0.45,0,1.068-0.07,1.85-0.206c0.78-0.133,1.203-0.305,1.265-0.517c0.146-0.485,0.225-1.596,0.225-3.342V71.126
		c0-1.745-0.08-2.853-0.225-3.333c-0.062-0.216-0.485-0.388-1.265-0.524c-0.782-0.128-1.4-0.198-1.85-0.198
		c-0.087-0.124-0.14-0.34-0.147-0.657c-0.006-0.313,0.042-0.528,0.147-0.652c3.082,0.154,4.856,0.229,5.322,0.229
		c0.513,0,1.467-0.017,2.868-0.048c1.396-0.026,2.577-0.043,3.538-0.043c1.64,0,3.177,0.299,4.611,0.911
		c1.437,0.609,2.628,1.543,3.573,2.805C208.58,70.879,209.052,72.348,209.052,74.014"/>
	<path fill="#FFFFFF" d="M217.56,65.981c1.35,0,3.687-0.053,7.001-0.154c3.315-0.101,5.819-0.154,7.521-0.154
		c0.115,0.872,0.348,2.023,0.688,3.447c0.335,1.428,0.542,2.327,0.617,2.685c-0.149,0.149-0.424,0.226-0.812,0.226
		c-0.378,0-0.582-0.103-0.63-0.309c-0.463-1.671-1.115-2.8-1.953-3.377c-0.829-0.578-1.922-0.869-3.28-0.869h-3.879
		c-1.971,0-3.007,0.168-3.112,0.499c-0.182,0.563-0.257,1.635-0.225,3.2v8.433c-0.014,0.111,0.153,0.177,0.52,0.216
		c0.357,0.036,0.834,0.059,1.42,0.059h2.394c0.749,0,1.335-0.01,1.755-0.022c0.423-0.014,0.814-0.063,1.186-0.137
		c0.366-0.075,0.631-0.172,0.798-0.295c0.168-0.115,0.326-0.291,0.477-0.508c0.149-0.216,0.269-0.472,0.348-0.775
		c0.084-0.3,0.181-0.679,0.309-1.129c0.026-0.167,0.058-0.291,0.084-0.384c0.053-0.206,0.273-0.313,0.679-0.313
		c0.361,0,0.617,0.07,0.768,0.226v8.525c-0.115,0.114-0.362,0.176-0.719,0.176c-0.393,0-0.631-0.114-0.728-0.356
		c-0.313-1.187-0.546-1.949-0.697-2.271c-0.149-0.317-0.335-0.56-0.563-0.71c-0.375-0.242-1.966-0.356-4.779-0.356h-0.696
		c-0.168,0-0.4,0-0.705,0.004c-0.3,0.014-0.538,0.021-0.719,0.04c-0.181,0.013-0.366,0.034-0.568,0.066
		c-0.194,0.026-0.335,0.069-0.424,0.123c-0.093,0.049-0.136,0.109-0.136,0.168v8.569c-0.014,0.528-0.006,1.15,0.034,1.878
		c0.04,0.715,0.115,1.133,0.238,1.234c0.27,0.207,0.604,0.339,1.001,0.384c0.397,0.044,1.129,0.07,2.195,0.07h2.169
		c1.085,0,2.151-0.115,3.191-0.326c1.041-0.22,1.879-0.521,2.496-0.891c0.643-0.392,1.164-0.943,1.552-1.64
		c0.388-0.701,0.819-1.666,1.287-2.919c0.044-0.186,0.256-0.269,0.63-0.269c0.569,0,0.947,0.083,1.125,0.269
		c-0.133,0.389-0.354,1.015-0.671,1.869c-0.317,0.855-0.569,1.553-0.758,2.09c-0.186,0.529-0.384,1.138-0.591,1.816
		c-0.198,0.675-0.335,1.248-0.414,1.711c-1.552,0-3.978-0.031-7.283-0.089c-3.306-0.062-6.004-0.092-8.095-0.092
		c-0.739,0-1.679,0.026-2.821,0.069c-1.146,0.045-1.992,0.066-2.548,0.066c-0.106-0.119-0.158-0.339-0.15-0.652
		c0.009-0.317,0.062-0.537,0.15-0.661c0.45,0,1.067-0.062,1.853-0.197c0.775-0.138,1.198-0.31,1.261-0.517
		c0.149-0.485,0.229-1.596,0.229-3.342V71.13c0-1.745-0.079-2.856-0.229-3.337c-0.063-0.216-0.485-0.388-1.261-0.524
		c-0.785-0.128-1.403-0.194-1.853-0.194c-0.088-0.123-0.141-0.344-0.15-0.656c-0.008-0.317,0.044-0.533,0.15-0.657
		C215.315,65.915,217.089,65.981,217.56,65.981"/>
	<path fill="#FFFFFF" d="M255.376,74.102c0-2.085-0.564-3.729-1.675-4.945c-1.12-1.214-2.883-1.817-5.272-1.817
		c-1.367,0-2.116,0.155-2.254,0.454c-0.153,0.361-0.229,1.486-0.229,3.382l0.022,9.426h2.416c1.852,0,3.482-0.605,4.884-1.817
		C254.675,77.575,255.376,76.02,255.376,74.102 M250.412,65.898c1.059,0,2.107,0.171,3.174,0.507
		c1.059,0.339,2.042,0.824,2.954,1.454c0.908,0.635,1.641,1.45,2.213,2.469c0.56,1.014,0.847,2.139,0.847,3.368
		c0,1.552-0.635,3.047-1.892,4.479c-1.256,1.438-2.676,2.426-4.271,2.972c1.939,3.228,4.364,6.763,7.291,10.598
		c0.671,0.887,1.39,1.535,2.151,1.949c0.759,0.414,1.737,0.665,2.945,0.758c0.089,0.163,0.115,0.397,0.075,0.711
		c-0.039,0.303-0.075,0.501-0.124,0.599c-2.931,0-4.92-0.181-5.955-0.546c-0.961-0.345-1.702-0.75-2.213-1.214
		c-0.252-0.229-0.495-0.489-0.715-0.771c-0.396-0.524-1.362-1.931-2.9-4.219c-1.543-2.284-2.968-4.436-4.276-6.472
		c-0.238-0.357-0.692-0.538-1.357-0.538h-2.39v8.394c0,1.737,0.079,2.848,0.229,3.333c0.063,0.212,0.485,0.384,1.262,0.517
		c0.784,0.136,1.401,0.206,1.851,0.206c0.089,0.123,0.142,0.335,0.15,0.657c0.005,0.309-0.049,0.528-0.15,0.652
		c-3.076-0.154-4.84-0.233-5.271-0.233c-0.473,0-2.249,0.079-5.326,0.233c-0.105-0.124-0.158-0.344-0.149-0.652
		c0.009-0.322,0.058-0.534,0.149-0.657c0.45,0,1.067-0.07,1.848-0.206c0.78-0.133,1.203-0.305,1.265-0.517
		c0.115-0.38,0.194-1.489,0.226-3.333l-0.027-19.27c0-1.741-0.075-2.853-0.221-3.333c-0.057-0.216-0.48-0.388-1.265-0.524
		c-0.785-0.128-1.401-0.198-1.852-0.198c-0.088-0.124-0.136-0.34-0.146-0.657c-0.004-0.313,0.044-0.528,0.146-0.652
		c3.086,0.154,4.857,0.229,5.326,0.229c0.511,0,1.463-0.017,2.86-0.048C248.273,65.915,249.451,65.898,250.412,65.898"/>
	<path fill="#FFFFFF" d="M272.041,65.981c0.44,0,2.195-0.066,5.271-0.221c0.115,0.124,0.158,0.34,0.15,0.657
		c-0.005,0.313-0.058,0.533-0.15,0.656c-0.44,0-1.058,0.066-1.842,0.194c-0.781,0.137-1.204,0.309-1.262,0.524
		c-0.149,0.48-0.229,1.592-0.229,3.337v19.257c0,1.746,0.079,2.856,0.229,3.342c0.058,0.207,0.48,0.379,1.262,0.517
		c0.784,0.136,1.401,0.197,1.842,0.197c0.093,0.124,0.146,0.344,0.15,0.661c0.008,0.313-0.035,0.533-0.15,0.652
		c-3.076-0.149-4.831-0.22-5.271-0.22c-0.468,0-2.24,0.07-5.326,0.22c-0.102-0.119-0.149-0.339-0.142-0.652
		c0.01-0.317,0.053-0.537,0.142-0.661c0.454,0,1.066-0.062,1.856-0.197c0.779-0.138,1.199-0.31,1.261-0.517
		c0.149-0.485,0.224-1.596,0.224-3.342V71.13c0-1.745-0.074-2.856-0.224-3.337c-0.062-0.216-0.481-0.388-1.261-0.524
		c-0.79-0.128-1.402-0.194-1.856-0.194c-0.089-0.123-0.132-0.344-0.142-0.656c-0.008-0.317,0.04-0.533,0.142-0.657
		C269.801,65.915,271.573,65.981,272.041,65.981"/>
	<path fill="#FFFFFF" d="M286.654,65.981c1.354,0,3.69-0.053,7.006-0.154c3.314-0.101,5.818-0.154,7.516-0.154
		c0.129,0.872,0.354,2.023,0.692,3.447c0.335,1.428,0.546,2.327,0.622,2.685c-0.155,0.149-0.428,0.226-0.815,0.226
		c-0.37,0-0.586-0.103-0.631-0.309c-0.468-1.671-1.12-2.8-1.953-3.377c-0.833-0.578-1.922-0.869-3.28-0.869h-3.88
		c-1.97,0-3.006,0.168-3.112,0.499c-0.18,0.563-0.255,1.635-0.225,3.2v8.433c-0.013,0.111,0.159,0.177,0.516,0.216
		c0.361,0.036,0.838,0.059,1.43,0.059h2.39c0.749,0,1.331-0.01,1.754-0.022c0.423-0.014,0.819-0.063,1.181-0.137
		c0.371-0.075,0.635-0.172,0.808-0.295c0.162-0.115,0.321-0.291,0.472-0.508c0.149-0.216,0.265-0.472,0.349-0.775
		c0.083-0.3,0.18-0.679,0.308-1.129c0.026-0.167,0.058-0.291,0.084-0.384c0.053-0.206,0.273-0.313,0.679-0.313
		c0.362,0,0.622,0.07,0.768,0.226v8.525c-0.119,0.114-0.361,0.176-0.723,0.176c-0.388,0-0.626-0.114-0.724-0.356
		c-0.317-1.187-0.547-1.949-0.696-2.271c-0.149-0.317-0.335-0.56-0.564-0.71c-0.379-0.242-1.966-0.356-4.778-0.356h-0.697
		c-0.167,0-0.405,0-0.705,0.004c-0.3,0.014-0.538,0.021-0.723,0.04c-0.177,0.013-0.366,0.034-0.564,0.066
		c-0.194,0.026-0.336,0.069-0.423,0.123c-0.093,0.049-0.138,0.109-0.138,0.168v8.569c-0.013,0.528-0.004,1.15,0.036,1.878
		c0.039,0.715,0.119,1.133,0.237,1.234c0.27,0.207,0.604,0.339,1.001,0.384c0.396,0.044,1.129,0.07,2.195,0.07h2.17
		c1.079,0,2.142-0.115,3.191-0.326c1.044-0.22,1.878-0.521,2.495-0.891c0.644-0.392,1.163-0.943,1.551-1.64
		c0.394-0.701,0.82-1.666,1.288-2.919c0.045-0.186,0.255-0.269,0.631-0.269c0.567,0,0.947,0.083,1.129,0.269
		c-0.138,0.389-0.362,1.015-0.675,1.869c-0.318,0.855-0.569,1.553-0.759,2.09c-0.185,0.529-0.388,1.138-0.586,1.816
		c-0.203,0.675-0.344,1.248-0.419,1.711c-1.543,0-3.977-0.031-7.283-0.089c-3.307-0.062-6.005-0.092-8.094-0.092
		c-0.741,0-1.68,0.026-2.821,0.069c-1.146,0.045-1.993,0.066-2.549,0.066c-0.105-0.119-0.158-0.339-0.146-0.652
		c0.005-0.317,0.054-0.537,0.146-0.661c0.45,0,1.067-0.062,1.852-0.197c0.78-0.138,1.2-0.31,1.261-0.517
		c0.15-0.485,0.226-1.596,0.226-3.342V71.13c0-1.745-0.075-2.856-0.226-3.337c-0.061-0.216-0.48-0.388-1.261-0.524
		c-0.784-0.128-1.401-0.194-1.852-0.194c-0.092-0.123-0.141-0.344-0.146-0.656c-0.013-0.317,0.04-0.533,0.146-0.657
		C284.419,65.915,286.187,65.981,286.654,65.981"/>
	<path fill="#FFFFFF" d="M312.206,65.85c1.446,0,2.588-0.026,3.426-0.089c0.758,1.173,3.46,4.598,8.12,10.276
		c4.664,5.673,7.847,9.703,9.562,12.092V85.52V71.038c0-0.935-0.021-1.601-0.065-2.007c-0.044-0.404-0.172-0.775-0.389-1.102
		c-0.113-0.211-0.607-0.414-1.472-0.607c-0.864-0.204-1.517-0.301-1.948-0.301c-0.106-0.149-0.163-0.374-0.168-0.675
		c-0.009-0.299,0.018-0.515,0.079-0.63c3.006,0.149,4.735,0.225,5.185,0.225c0.617,0,1.154-0.013,1.631-0.03
		c0.477-0.022,0.996-0.062,1.569-0.105c0.573-0.045,1.115-0.071,1.622-0.089c0.23,0.375,0.23,0.812,0,1.305
		c-0.418,0-1.075,0.089-1.97,0.278c-0.895,0.176-1.411,0.393-1.547,0.63c-0.19,0.313-0.317,0.675-0.366,1.075
		c-0.058,0.416-0.084,1.072-0.084,1.993v18.353c0,2.584,0.026,4.664,0.088,6.229c-0.026,0.181-0.22,0.265-0.581,0.265
		c-0.168,0-0.406-0.079-0.715-0.247c-0.309-0.163-0.591-0.428-0.869-0.789l-19.661-24.854v20.478c0,0.93,0.018,1.604,0.066,2.01
		c0.043,0.41,0.176,0.775,0.383,1.103c0.119,0.215,0.604,0.414,1.455,0.612c0.851,0.189,1.495,0.286,1.932,0.286
		c0.101,0.158,0.162,0.379,0.162,0.688c0.009,0.301-0.017,0.507-0.075,0.631c-3.01-0.154-4.721-0.225-5.145-0.225
		c-0.616,0-1.163,0.004-1.631,0.03c-0.477,0.022-0.997,0.054-1.569,0.103c-0.573,0.043-1.11,0.069-1.622,0.092
		c-0.229-0.384-0.229-0.815,0-1.318c0.419,0,1.075-0.084,1.97-0.264c0.896-0.178,1.416-0.389,1.548-0.635
		c0.193-0.309,0.317-0.671,0.371-1.08c0.053-0.406,0.079-1.072,0.079-1.984V70.905c0-0.921-0.026-1.583-0.079-1.987
		c-0.054-0.41-0.178-0.768-0.371-1.085c-0.132-0.238-0.652-0.45-1.548-0.63c-0.895-0.182-1.551-0.27-1.97-0.27
		c-0.229-0.494-0.229-0.935,0-1.31c0.479,0.022,1.225,0.058,2.23,0.123C310.845,65.818,311.637,65.85,312.206,65.85"/>
	<path fill="#FFFFFF" d="M357.72,65.536c3.46,0,6.644,0.313,9.562,0.948c0.688,4.148,1.036,6.374,1.036,6.674
		c0.013,0.133-0.088,0.273-0.313,0.397c-0.229,0.127-0.454,0.193-0.679,0.193c-0.226,0-0.406-0.053-0.543-0.137
		c-0.859-4.391-3.804-6.591-8.839-6.591c-2.134,0-4.061,0.671-5.775,1.983c-1.715,1.327-3.011,2.981-3.896,4.974
		c-0.891,1.975-1.332,4.029-1.332,6.172c0,1.433,0.15,2.821,0.464,4.184c0.304,1.357,0.775,2.649,1.419,3.87
		c0.64,1.218,1.415,2.28,2.318,3.201c0.913,0.921,2.016,1.648,3.307,2.187c1.292,0.542,2.698,0.815,4.219,0.815
		c2.333,0,4.313-0.724,5.952-2.168c1.354-1.218,2.274-2.963,2.75-5.229c0.525-0.053,1.014,0.071,1.446,0.354
		c0,0.576-0.194,1.741-0.582,3.5c-0.378,1.764-0.714,2.76-0.996,3.002c-2.407,1.35-5.639,2.028-9.699,2.028
		c-2.177,0-4.214-0.397-6.109-1.2c-1.896-0.798-3.491-1.855-4.783-3.195c-1.296-1.345-2.31-2.91-3.055-4.718
		c-0.741-1.798-1.12-3.698-1.12-5.683c0-2.094,0.388-4.082,1.15-5.986c0.771-1.904,1.812-3.558,3.135-4.964
		c1.322-1.401,2.945-2.526,4.85-3.364C353.514,65.95,355.555,65.536,357.72,65.536"/>
	<path fill="#FFFFFF" d="M378.082,65.981c1.35,0,3.687-0.053,7.001-0.154c3.315-0.101,5.828-0.154,7.521-0.154
		c0.124,0.872,0.353,2.023,0.688,3.447c0.339,1.428,0.547,2.327,0.626,2.685c-0.149,0.149-0.428,0.226-0.82,0.226
		c-0.37,0-0.582-0.103-0.626-0.309c-0.463-1.671-1.115-2.8-1.949-3.377c-0.832-0.578-1.927-0.869-3.284-0.869h-3.879
		c-1.971,0-3.003,0.168-3.108,0.499c-0.185,0.563-0.264,1.635-0.229,3.2v8.433c-0.013,0.111,0.159,0.177,0.521,0.216
		c0.362,0.036,0.838,0.059,1.42,0.059h2.394c0.754,0,1.336-0.01,1.755-0.022c0.423-0.014,0.819-0.063,1.181-0.137
		c0.375-0.075,0.636-0.172,0.808-0.295c0.168-0.115,0.317-0.291,0.477-0.508c0.146-0.216,0.265-0.472,0.344-0.775
		c0.079-0.3,0.186-0.679,0.309-1.129c0.026-0.167,0.057-0.291,0.087-0.384c0.045-0.206,0.274-0.313,0.68-0.313
		c0.356,0,0.617,0.07,0.767,0.226v8.525c-0.123,0.114-0.361,0.176-0.723,0.176c-0.393,0-0.635-0.114-0.724-0.356
		c-0.316-1.187-0.551-1.949-0.7-2.271c-0.146-0.317-0.34-0.56-0.56-0.71c-0.38-0.242-1.976-0.356-4.788-0.356h-0.696
		c-0.168,0-0.396,0-0.696,0.004c-0.31,0.014-0.548,0.021-0.724,0.04c-0.18,0.013-0.37,0.034-0.563,0.066
		c-0.198,0.026-0.336,0.069-0.424,0.123c-0.097,0.049-0.142,0.109-0.142,0.168v8.569c-0.013,0.528,0,1.15,0.036,1.878
		c0.04,0.715,0.114,1.133,0.238,1.234c0.269,0.207,0.6,0.339,1,0.384c0.393,0.044,1.133,0.07,2.2,0.07h2.165
		c1.08,0,2.146-0.115,3.191-0.326c1.054-0.22,1.882-0.521,2.49-0.891c0.645-0.392,1.169-0.943,1.562-1.64
		c0.388-0.701,0.819-1.666,1.278-2.919c0.048-0.186,0.255-0.269,0.634-0.269c0.574,0,0.944,0.083,1.129,0.269
		c-0.137,0.389-0.361,1.015-0.679,1.869c-0.309,0.855-0.564,1.553-0.759,2.09c-0.18,0.529-0.388,1.138-0.581,1.816
		c-0.203,0.675-0.34,1.248-0.415,1.711c-1.551,0-3.977-0.031-7.287-0.089c-3.307-0.062-6.009-0.092-8.098-0.092
		c-0.731,0-1.676,0.026-2.817,0.069c-1.146,0.045-1.992,0.066-2.553,0.066c-0.097-0.119-0.15-0.339-0.141-0.652
		c0.009-0.317,0.053-0.537,0.141-0.661c0.449,0,1.071-0.062,1.852-0.197c0.785-0.138,1.208-0.31,1.266-0.517
		c0.146-0.485,0.225-1.596,0.225-3.342V71.13c0-1.745-0.079-2.856-0.225-3.337c-0.058-0.216-0.48-0.388-1.266-0.524
		c-0.78-0.128-1.402-0.194-1.852-0.194c-0.088-0.123-0.132-0.344-0.141-0.656c-0.01-0.317,0.044-0.533,0.141-0.657
		C375.843,65.915,377.615,65.981,378.082,65.981"/>
	<path fill="#FFFFFF" d="M408.96,65.585c0.66,0,1.282,0.035,1.86,0.109c0.577,0.075,1.049,0.164,1.428,0.261
		c0.38,0.097,0.926,0.238,1.632,0.424c0.705,0.188,1.331,0.344,1.887,0.467c0.202,1.309,0.404,3.447,0.63,6.401
		c0.022,0.137-0.088,0.26-0.313,0.353c-0.225,0.097-0.433,0.146-0.626,0.146c-0.217,0-0.38-0.058-0.503-0.182
		c-0.062-0.467-0.186-0.974-0.38-1.529c-0.193-0.556-0.484-1.129-0.858-1.715c-0.38-0.587-0.798-1.115-1.274-1.592
		c-0.477-0.472-1.045-0.859-1.701-1.159c-0.671-0.3-1.367-0.458-2.099-0.458c-0.873,0-1.645,0.158-2.311,0.467
		c-0.67,0.305-1.182,0.719-1.552,1.229c-0.361,0.508-0.617,1.045-0.798,1.601c-0.172,0.556-0.252,1.129-0.252,1.711
		c0,0.441,0.045,0.864,0.159,1.266c0.097,0.4,0.229,0.771,0.388,1.084c0.164,0.317,0.38,0.64,0.68,0.952
		c0.29,0.327,0.555,0.6,0.793,0.828c0.247,0.226,0.573,0.49,0.996,0.776c0.424,0.296,0.768,0.524,1.04,0.701
		c0.274,0.177,0.653,0.405,1.138,0.696c0.485,0.296,0.86,0.524,1.116,0.688c0.242,0.149,0.63,0.396,1.172,0.723
		c0.543,0.326,0.979,0.608,1.327,0.82c0.335,0.202,0.758,0.493,1.278,0.863c0.521,0.366,0.943,0.696,1.278,0.987
		c0.326,0.301,0.688,0.662,1.075,1.085c0.397,0.428,0.702,0.852,0.927,1.252c0.234,0.405,0.414,0.868,0.564,1.394
		c0.149,0.511,0.225,1.04,0.225,1.587c0,1.198-0.26,2.319-0.789,3.368c-0.521,1.044-1.226,1.917-2.107,2.627
		c-0.882,0.701-1.892,1.261-3.024,1.653c-1.133,0.401-2.301,0.604-3.505,0.604c-0.709,0-1.473-0.057-2.288-0.158
		c-0.82-0.101-1.493-0.207-2.045-0.317c-0.538-0.102-1.226-0.256-2.06-0.454c-0.832-0.189-1.414-0.313-1.728-0.379
		c-0.233-1.187-0.454-2.562-0.652-4.113c-0.198-1.561-0.295-2.513-0.295-2.878c0.361-0.357,0.749-0.543,1.172-0.543
		c0.291,0,0.45,0.137,0.499,0.41c0.087,0.432,0.22,0.895,0.392,1.384c0.176,0.494,0.459,1.076,0.847,1.772
		c0.397,0.688,0.851,1.301,1.367,1.82c0.511,0.529,1.203,0.979,2.063,1.357c0.855,0.38,1.799,0.561,2.821,0.561
		c1.535,0,2.821-0.489,3.854-1.472c1.035-0.983,1.561-2.333,1.561-4.025c0-0.45-0.053-0.883-0.142-1.287
		c-0.088-0.406-0.202-0.759-0.348-1.059c-0.142-0.3-0.34-0.6-0.604-0.895s-0.511-0.533-0.736-0.728
		c-0.225-0.203-0.524-0.424-0.912-0.675c-0.384-0.242-0.719-0.441-0.997-0.595c-0.272-0.164-0.652-0.37-1.128-0.626
		c-0.468-0.256-0.855-0.468-1.133-0.635c-0.63-0.375-1.036-0.613-1.208-0.705c-0.172-0.103-0.56-0.335-1.163-0.711
		c-0.601-0.384-1.015-0.652-1.23-0.824c-0.216-0.176-0.577-0.458-1.076-0.851c-0.511-0.392-0.864-0.719-1.08-0.979
		c-0.198-0.265-0.472-0.604-0.807-1.027c-0.335-0.419-0.573-0.819-0.715-1.195c-0.141-0.374-0.272-0.802-0.388-1.278
		c-0.127-0.471-0.18-0.956-0.18-1.45c0-1.533,0.422-2.913,1.269-4.147c0.855-1.239,1.94-2.179,3.29-2.821
		C406.011,65.902,407.443,65.585,408.96,65.585"/>
	<path fill="#FFFFFF" d="M142.21,25.798l-4.15,11.003c0,0.124,0.031,0.176,0.087,0.176c1.565,0.066,2.934,0.093,4.107,0.093
		c1.13,0,2.394-0.044,3.792-0.137c0.03,0,0.059-0.009,0.087-0.04c0.031-0.066,0.045-0.106,0.045-0.136v-0.049L142.21,25.798z
		 M133.366,43.974c3.972-10.21,6.876-17.652,8.708-22.33c0.123-0.225,0.388-0.502,0.8-0.824c0.414-0.318,0.718-0.484,0.915-0.484
		c0.045,0,0.094,0.021,0.147,0.057c0.053,0.04,0.092,0.07,0.123,0.083l9.177,24.08c0.751,1.945,1.139,2.936,1.155,2.98
		c0.189,0.462,0.663,0.838,1.408,1.12c0.742,0.273,1.296,0.415,1.655,0.415c0.091,0.136,0.137,0.357,0.137,0.661
		c0,0.318-0.018,0.524-0.046,0.644c-3.006-0.146-4.658-0.22-4.961-0.22c-0.618,0-1.191,0.018-1.726,0.031
		c-0.533,0.022-1.128,0.057-1.792,0.102c-0.66,0.044-1.232,0.074-1.717,0.088c-0.102-0.119-0.152-0.339-0.143-0.652
		c0.006-0.313,0.068-0.538,0.191-0.652c0.346,0,0.809-0.063,1.389-0.168c0.577-0.114,0.957-0.25,1.137-0.422
		c0.121-0.119,0.179-0.327,0.179-0.631c0-0.405-0.253-1.335-0.765-2.804c-0.509-1.467-1.023-2.83-1.536-4.095l-0.768-1.891
		c-0.086-0.124-0.179-0.181-0.265-0.181c-0.393-0.036-1.88-0.049-4.47-0.049c-1.894,0-3.518,0.049-4.872,0.138l-0.225,0.136
		c-0.842,2.227-1.517,4.061-2.03,5.506c-0.418,1.227-0.63,2.297-0.63,3.201c0,0.255,0.138,0.477,0.416,0.652
		c0.28,0.177,0.613,0.309,1.015,0.393c0.399,0.083,0.74,0.136,1.027,0.172c0.286,0.03,0.507,0.044,0.652,0.044
		c0.062,0.062,0.106,0.255,0.125,0.599c0.024,0.34,0.011,0.573-0.033,0.706c-0.437-0.014-0.911-0.044-1.422-0.088
		c-0.512-0.044-0.987-0.079-1.417-0.102c-0.441-0.013-0.946-0.031-1.539-0.031c-0.615,0-1.159,0.018-1.632,0.031
		c-0.474,0.022-0.994,0.057-1.565,0.102c-0.575,0.044-1.113,0.074-1.627,0.088c-0.061-0.053-0.088-0.256-0.088-0.583
		c0-0.33,0.027-0.573,0.088-0.722c0.377,0,0.873-0.083,1.493-0.238c0.615-0.154,1.02-0.361,1.214-0.617
		C131.881,47.386,132.586,45.971,133.366,43.974"/>
	<path fill="#FFFFFF" d="M164.695,20.608c0.781,0,1.997-0.074,3.653-0.225c0.255,0.811,0.934,2.54,2.039,5.189
		c1.106,2.645,2.429,5.788,3.959,9.435c1.531,3.646,2.72,6.529,3.562,8.649c0.033,0.061,0.09,0.093,0.185,0.093
		c0.104,0,0.179-0.062,0.223-0.185c4.391-11.317,6.689-17.243,6.899-17.767l1.988-5.414c1.924,0.119,3.11,0.181,3.563,0.181
		c1.864,0,3.546-0.063,5.05-0.181l0.134,1.31c-0.417,0-1.032,0.08-1.834,0.265c-0.809,0.167-1.261,0.352-1.365,0.546
		c-0.152,0.331-0.227,0.895-0.227,1.711c0.031,0.917,0.068,2.539,0.125,4.863c0.051,2.322,0.113,5.047,0.179,8.16
		c0.066,3.121,0.117,5.351,0.146,6.691c0.059,2.099,0.24,3.562,0.542,4.373c0.09,0.274,0.52,0.467,1.293,0.591
		c0.776,0.114,1.394,0.176,1.865,0.176c0.104,0.181,0.155,0.41,0.155,0.696c0,0.287-0.018,0.49-0.066,0.609
		c-3.004-0.146-4.798-0.22-5.367-0.22c-0.62,0-1.201,0.018-1.755,0.031c-0.56,0.022-1.19,0.057-1.9,0.102
		c-0.703,0.044-1.29,0.074-1.756,0.088c-0.063-0.053-0.097-0.242-0.102-0.551c-0.006-0.304,0.026-0.565,0.102-0.754
		c0.359,0,0.877-0.044,1.556-0.146c0.675-0.097,1.133-0.215,1.378-0.348c0.267-0.15,0.405-0.781,0.405-1.896
		c0-0.212-0.017-0.644-0.048-1.296c-0.031-0.652-0.042-1.098-0.042-1.323c-0.26-9.262-0.452-15.694-0.586-19.3
		c0-0.172-0.038-0.353-0.104-0.582c-0.066-0.212-0.171-0.317-0.303-0.317c-0.062,0-0.137,0.102-0.225,0.308
		c-0.69,1.72-3.867,9.672-9.519,23.864c-0.151,0.327-0.422,0.789-0.813,1.367c-0.39,0.577-0.692,0.886-0.904,0.93
		c-0.04,0.017-0.178-0.009-0.401-0.088l-11.006-26.345c-0.062,2.891-0.139,6.216-0.238,9.98c-0.1,3.77-0.184,6.859-0.25,9.267
		c-0.068,2.416-0.099,3.654-0.099,3.712c0,0.617,0.061,1.084,0.176,1.397c0.124,0.286,0.617,0.494,1.49,0.621
		c0.871,0.128,1.565,0.195,2.079,0.195c0.101,0.115,0.156,0.34,0.156,0.652c0,0.317-0.023,0.533-0.07,0.652
		c-0.401-0.014-0.908-0.044-1.51-0.088c-0.604-0.044-1.15-0.079-1.644-0.102c-0.501-0.013-1.038-0.031-1.625-0.031
		c-0.617,0-1.192,0.018-1.728,0.031c-0.531,0.022-1.135,0.057-1.812,0.102c-0.681,0.044-1.259,0.074-1.739,0.088
		c-0.061-0.053-0.095-0.242-0.099-0.551c-0.009-0.304,0.024-0.565,0.099-0.754c0.494,0,1.184-0.07,2.061-0.216
		c0.882-0.146,1.414-0.34,1.591-0.6c0.318-0.446,0.499-1.2,0.547-2.253c0.417-11.229,0.628-18.418,0.628-21.557
		c0-0.873-0.061-1.473-0.178-1.808c-0.077-0.242-0.524-0.459-1.344-0.648c-0.82-0.198-1.424-0.295-1.815-0.295
		c-0.048,0-0.068-0.208-0.068-0.626c0-0.41,0.02-0.644,0.068-0.684c0.525,0.026,1.055,0.066,1.592,0.102
		c0.531,0.036,1.019,0.07,1.466,0.088C163.549,20.601,164.076,20.608,164.695,20.608"/>
	<path fill="#FFFFFF" d="M63.871,107.438l0.002-13.021l-6.079,6.078l-6.135-6.127v13.07L7.323,63.099h13.102l-6.156-6.154
		l6.068-6.076L7.314,50.877L51.659,6.537v13.058l6.137-6.132l6.086,6.079V6.537l44.332,44.328H95.189l6.119,6.124l-6.105,6.107
		l13.016-0.006L63.871,107.438z M13.603,65.708l35.451,35.444v-9.39l-6.632-6.627h6.632v-11.21l-8.224-8.227H29.635v6.608
		l-6.606-6.608L13.603,65.708z M66.476,91.811v9.342l35.459-35.458h-9.334l-6.65,6.653v-6.653H74.759l-8.281,8.284v11.157h6.675
		L66.476,91.811z M51.659,90.687l6.135,6.132l6.079-6.084v-2.993H51.659V90.687z M51.659,85.136h12.216v-8.561l-6.088,6.084
		l-6.127-6.124V85.136z M51.659,72.854l6.127,6.127l6.088-6.088v-7.194H51.659V72.854z M66.478,65.694v4.599l4.6-4.599H66.478z
		 M44.511,65.699l4.543,4.55v-4.55H44.511z M17.95,56.944l6.156,6.154h2.925v-12.23h-3.013L17.95,56.944z M29.635,50.868v12.227
		h8.591l-5.916-5.917l6.311-6.309H29.635z M41.907,63.095h7.146V50.868H42.3l-6.309,6.309L41.907,63.095z M51.659,50.868v12.227
		h12.216l0.003-12.227H51.659z M66.48,50.868l-0.002,12.227h7.206l5.91-5.904l-6.319-6.322H66.48z M76.956,50.868l6.317,6.322
		l-5.908,5.904h8.583l-0.002-12.23L76.956,50.868z M88.552,50.864l0.002,12.23h2.97l6.103-6.107l-6.116-6.124H88.552z
		 M49.054,12.819L13.601,48.272h9.341l6.693-6.692v6.692l11.587-0.004l7.832-7.834V28.817h-6.621l6.621-6.621V12.819z
		 M49.054,44.115l-4.15,4.153h4.15V44.115z M51.659,41.514v6.754h12.219V41.47l-6.091-6.084L51.659,41.514z M66.48,44.075v4.193
		h4.193L66.48,44.075z M66.48,40.394l7.872,7.874h11.594v-6.649l6.642,6.649h9.342L66.483,12.819v9.329l6.674,6.679H66.48V40.394z
		 M51.659,28.817v9.015l6.127-6.132l6.091,6.092v-8.966L51.659,28.817z M51.659,26.221h12.219l0.004-2.994l-6.086-6.083
		l-6.137,6.132V26.221z M99.128,98.317H74.377L99.128,73.56V98.317z M80.66,95.717h15.862V79.85L80.66,95.717z M16.44,98.287V73.542
		l24.745,24.745H16.44z M19.043,79.823v15.862l15.859-0.009L19.043,79.823z M99.128,40.412L74.377,15.654h24.751V40.412z
		 M80.66,18.26l15.862,15.865V18.26H80.66z M16.468,40.412V15.654H41.22L16.468,40.412z M19.072,18.26v15.865L34.938,18.26H19.072z"
		/>
	<path fill="#FFFFFF" d="M136.219,119.364v4.897h-0.866v-4.897l-4.394-6.988h0.75c0.078,0,0.141,0.022,0.188,0.058
		c0.049,0.039,0.092,0.093,0.138,0.154l3.403,5.458c0.077,0.128,0.144,0.256,0.201,0.379c0.056,0.119,0.109,0.242,0.15,0.361
		c0.046-0.119,0.097-0.242,0.149-0.361c0.057-0.123,0.126-0.251,0.203-0.379l3.395-5.458c0.033-0.062,0.075-0.109,0.125-0.149
		c0.049-0.035,0.115-0.063,0.192-0.063h0.756L136.219,119.364z"/>
	<path fill="#FFFFFF" d="M151.62,118.314c0-0.824-0.117-1.569-0.344-2.23c-0.231-0.666-0.551-1.222-0.97-1.688
		c-0.418-0.45-0.919-0.807-1.509-1.045c-0.584-0.242-1.236-0.365-1.956-0.365c-0.702,0-1.35,0.123-1.935,0.365
		c-0.584,0.238-1.089,0.595-1.51,1.045c-0.425,0.467-0.751,1.022-0.985,1.688c-0.229,0.661-0.344,1.406-0.344,2.23
		c0,0.834,0.115,1.583,0.344,2.239c0.234,0.657,0.56,1.218,0.985,1.675c0.421,0.464,0.926,0.816,1.51,1.055
		c0.584,0.238,1.232,0.361,1.935,0.361c0.72,0,1.372-0.123,1.956-0.361c0.59-0.238,1.091-0.591,1.509-1.055
		c0.419-0.457,0.739-1.018,0.97-1.675C151.503,119.897,151.62,119.148,151.62,118.314 M152.508,118.314
		c0,0.922-0.136,1.751-0.41,2.504c-0.278,0.745-0.664,1.38-1.159,1.909c-0.497,0.529-1.096,0.943-1.79,1.229
		c-0.696,0.283-1.461,0.433-2.309,0.433c-0.834,0-1.598-0.149-2.292-0.433c-0.694-0.286-1.29-0.7-1.789-1.229
		c-0.5-0.529-0.887-1.164-1.163-1.909c-0.278-0.753-0.417-1.582-0.417-2.504c0-0.912,0.139-1.746,0.417-2.491
		c0.276-0.739,0.664-1.384,1.163-1.913c0.499-0.528,1.094-0.935,1.789-1.229c0.694-0.295,1.457-0.433,2.292-0.433
		c0.847,0,1.612,0.138,2.309,0.429c0.694,0.29,1.293,0.7,1.79,1.229c0.496,0.533,0.881,1.178,1.159,1.917
		C152.372,116.568,152.508,117.402,152.508,118.314"/>
	<path fill="#FFFFFF" d="M159.698,123.653c0.569,0,1.082-0.102,1.532-0.3c0.45-0.202,0.835-0.477,1.146-0.828
		c0.315-0.354,0.554-0.771,0.72-1.248c0.163-0.48,0.246-0.996,0.246-1.548v-7.349h0.855v7.349c0,0.652-0.101,1.271-0.309,1.834
		c-0.207,0.568-0.504,1.063-0.895,1.485c-0.386,0.42-0.862,0.755-1.421,0.993c-0.554,0.242-1.18,0.365-1.874,0.365
		c-0.692,0-1.323-0.123-1.877-0.365c-0.556-0.238-1.03-0.573-1.418-0.993c-0.39-0.423-0.688-0.917-0.897-1.485
		c-0.205-0.563-0.308-1.182-0.308-1.834v-7.349h0.864v7.335c0,0.561,0.082,1.076,0.251,1.553c0.163,0.48,0.397,0.891,0.71,1.247
		c0.31,0.357,0.689,0.626,1.144,0.834C158.619,123.552,159.125,123.653,159.698,123.653"/>
	<path fill="#FFFFFF" d="M168.734,118.249h2.065c0.527,0,0.996-0.063,1.416-0.194c0.418-0.119,0.77-0.3,1.058-0.533
		c0.289-0.243,0.51-0.517,0.657-0.855c0.157-0.331,0.229-0.705,0.229-1.111c0-0.847-0.278-1.477-0.829-1.891
		c-0.558-0.41-1.362-0.613-2.425-0.613h-2.171V118.249z M168.734,118.888v5.374h-0.856v-11.886h3.027
		c1.375,0,2.398,0.265,3.077,0.799c0.677,0.528,1.016,1.305,1.016,2.332c0,0.454-0.078,0.864-0.236,1.238
		c-0.154,0.375-0.381,0.71-0.674,0.991c-0.293,0.278-0.65,0.513-1.064,0.697c-0.415,0.181-0.88,0.3-1.4,0.353
		c0.134,0.084,0.253,0.194,0.357,0.34l4.093,5.136h-0.747c-0.091,0-0.168-0.018-0.229-0.048c-0.066-0.036-0.128-0.089-0.19-0.172
		l-3.804-4.819c-0.097-0.123-0.201-0.202-0.306-0.256c-0.11-0.053-0.282-0.079-0.511-0.079H168.734z"/>
	<path fill="#FFFFFF" d="M182.455,119.946h5.324l-2.427-6.001c-0.04-0.097-0.077-0.207-0.117-0.33
		c-0.039-0.114-0.074-0.242-0.114-0.379c-0.04,0.137-0.082,0.265-0.121,0.379c-0.038,0.123-0.077,0.233-0.115,0.33L182.455,119.946z
		 M190.41,124.262h-0.664c-0.077,0-0.144-0.021-0.196-0.062c-0.046-0.045-0.087-0.098-0.117-0.164l-1.401-3.456h-5.838l-1.394,3.456
		c-0.021,0.059-0.06,0.115-0.115,0.164c-0.059,0.04-0.124,0.062-0.203,0.062h-0.654l4.857-11.881h0.86L190.41,124.262z"/>
	<path fill="#FFFFFF" d="M201.4,118.314c0-0.824-0.115-1.564-0.344-2.217c-0.231-0.644-0.551-1.199-0.972-1.646
		c-0.416-0.449-0.919-0.792-1.508-1.022c-0.586-0.233-1.238-0.357-1.952-0.357h-3.471v10.493h3.471c0.713,0,1.366-0.115,1.952-0.354
		c0.589-0.232,1.092-0.577,1.508-1.026c0.421-0.445,0.741-0.992,0.972-1.645C201.286,119.897,201.4,119.148,201.4,118.314
		 M202.291,118.314c0,0.922-0.138,1.741-0.412,2.482c-0.276,0.731-0.66,1.357-1.159,1.869c-0.499,0.516-1.098,0.912-1.788,1.186
		c-0.694,0.273-1.466,0.41-2.307,0.41h-4.334v-11.886h4.334c0.841,0,1.613,0.142,2.307,0.415c0.69,0.273,1.29,0.67,1.788,1.186
		c0.5,0.516,0.883,1.138,1.159,1.873C202.153,116.582,202.291,117.402,202.291,118.314"/>
	<path fill="#FFFFFF" d="M203.038,112.381h0.679c0.08,0,0.146,0.022,0.196,0.058c0.047,0.044,0.089,0.105,0.117,0.163l4.046,9.861
		c0.102,0.261,0.19,0.529,0.261,0.824c0.062-0.295,0.142-0.577,0.242-0.824l4.043-9.861c0.026-0.053,0.07-0.11,0.123-0.155
		c0.053-0.043,0.115-0.065,0.194-0.065h0.67l-4.902,11.881h-0.768L203.038,112.381z"/>
	<polygon fill="#FFFFFF" points="215.506,112.381 215.506,124.262 222.621,124.262 222.621,123.548 216.361,123.548 
		216.361,118.597 221.572,118.597 221.572,117.896 216.361,117.896 216.361,113.091 222.621,113.091 222.621,112.381 	"/>
	<g>
		<path fill="#FFFFFF" d="M226.033,112.407c0.044,0.022,0.088,0.065,0.141,0.137l7.693,10.299c-0.018-0.177-0.026-0.336-0.026-0.495
			v-9.967h0.754v11.881h-0.406c-0.131,0-0.233-0.054-0.313-0.167l-7.729-10.316c0.019,0.167,0.026,0.33,0.026,0.48v10.003h-0.749
			v-11.881h0.424C225.928,112.381,225.984,112.386,226.033,112.407"/>
	</g>
	<polygon fill="#FFFFFF" points="236.653,112.381 236.653,113.108 240.854,113.108 240.854,124.262 241.709,124.262 
		241.709,113.108 245.88,113.108 245.88,112.381 	"/>
	<g>
		<path fill="#FFFFFF" d="M252.335,123.653c0.572,0,1.075-0.102,1.529-0.3c0.454-0.202,0.833-0.477,1.151-0.828
			c0.308-0.354,0.55-0.771,0.713-1.248c0.168-0.48,0.247-0.996,0.247-1.548v-7.349h0.855v7.349c0,0.652-0.101,1.271-0.309,1.834
			c-0.208,0.568-0.503,1.063-0.895,1.485c-0.388,0.42-0.86,0.755-1.416,0.993c-0.556,0.242-1.186,0.365-1.877,0.365
			c-0.697,0-1.323-0.123-1.878-0.365c-0.556-0.238-1.032-0.573-1.42-0.993c-0.388-0.423-0.688-0.917-0.891-1.485
			c-0.212-0.563-0.313-1.182-0.313-1.834v-7.349h0.86v7.335c0,0.561,0.083,1.076,0.251,1.553c0.163,0.48,0.405,0.891,0.715,1.247
			c0.313,0.357,0.691,0.626,1.141,0.834C251.25,123.552,251.762,123.653,252.335,123.653"/>
		<path fill="#FFFFFF" d="M261.372,118.249h2.063c0.529,0,0.996-0.063,1.416-0.194c0.418-0.119,0.771-0.3,1.053-0.533
			c0.296-0.243,0.512-0.517,0.662-0.855c0.149-0.331,0.229-0.705,0.229-1.111c0-0.847-0.277-1.477-0.828-1.891
			c-0.556-0.41-1.367-0.613-2.421-0.613h-2.173V118.249z M261.372,118.888v5.374h-0.855v-11.886h3.028
			c1.372,0,2.395,0.265,3.073,0.799c0.679,0.528,1.014,1.305,1.014,2.332c0,0.454-0.079,0.864-0.229,1.238
			c-0.159,0.375-0.389,0.71-0.685,0.991c-0.295,0.278-0.639,0.513-1.058,0.697c-0.41,0.181-0.886,0.3-1.406,0.353
			c0.141,0.084,0.256,0.194,0.365,0.34l4.088,5.136h-0.749c-0.089,0-0.168-0.018-0.23-0.048c-0.061-0.036-0.123-0.089-0.186-0.172
			l-3.808-4.819c-0.089-0.123-0.194-0.202-0.301-0.256c-0.114-0.053-0.281-0.079-0.511-0.079H261.372z"/>
	</g>
	<polygon fill="#FFFFFF" points="270.859,112.381 270.859,124.262 277.983,124.262 277.983,123.548 271.723,123.548 
		271.723,118.597 276.93,118.597 276.93,117.896 271.723,117.896 271.723,113.091 277.983,113.091 277.983,112.381 	"/>
	<g>
		<path fill="#FFFFFF" d="M289.78,113.827c-0.053,0.088-0.124,0.146-0.221,0.146c-0.075,0-0.168-0.058-0.282-0.163
			c-0.114-0.102-0.273-0.221-0.467-0.34c-0.194-0.133-0.441-0.242-0.736-0.357c-0.296-0.101-0.657-0.153-1.094-0.153
			c-0.433,0-0.811,0.065-1.142,0.185c-0.325,0.123-0.604,0.291-0.828,0.507c-0.217,0.212-0.389,0.458-0.503,0.736
			c-0.115,0.281-0.168,0.572-0.168,0.877c0,0.406,0.079,0.737,0.256,1.001c0.167,0.264,0.393,0.485,0.674,0.674
			c0.278,0.19,0.605,0.34,0.953,0.464c0.357,0.123,0.728,0.247,1.103,0.379c0.37,0.119,0.735,0.26,1.093,0.405
			c0.357,0.149,0.675,0.331,0.956,0.56c0.282,0.226,0.503,0.499,0.68,0.824c0.167,0.331,0.255,0.732,0.255,1.227
			c0,0.498-0.088,0.97-0.255,1.401c-0.177,0.44-0.424,0.824-0.749,1.151c-0.322,0.325-0.719,0.581-1.191,0.762
			c-0.467,0.195-1.004,0.282-1.608,0.282c-0.785,0-1.46-0.132-2.023-0.414c-0.565-0.272-1.063-0.661-1.49-1.137l0.238-0.366
			c0.062-0.084,0.141-0.129,0.229-0.129c0.058,0,0.124,0.032,0.199,0.098c0.075,0.07,0.172,0.154,0.286,0.252
			c0.114,0.093,0.247,0.202,0.405,0.321c0.159,0.11,0.335,0.216,0.547,0.313c0.202,0.098,0.44,0.182,0.715,0.252
			c0.265,0.07,0.572,0.102,0.911,0.102c0.473,0,0.896-0.075,1.262-0.216c0.375-0.142,0.684-0.336,0.938-0.582
			c0.256-0.252,0.45-0.539,0.583-0.883c0.14-0.335,0.202-0.696,0.202-1.084c0-0.419-0.084-0.767-0.256-1.031
			c-0.168-0.282-0.396-0.503-0.679-0.688c-0.277-0.18-0.591-0.33-0.952-0.454c-0.353-0.127-0.719-0.246-1.099-0.365
			c-0.374-0.115-0.735-0.242-1.097-0.393c-0.354-0.146-0.675-0.339-0.953-0.56c-0.281-0.22-0.507-0.507-0.679-0.847
			c-0.172-0.339-0.255-0.763-0.255-1.27c0-0.401,0.079-0.78,0.229-1.151c0.149-0.374,0.371-0.7,0.662-0.978
			c0.295-0.283,0.652-0.507,1.085-0.679c0.422-0.178,0.915-0.257,1.463-0.257c0.621,0,1.173,0.093,1.662,0.296
			c0.489,0.189,0.938,0.494,1.345,0.891L289.78,113.827z"/>
	</g>
	<polygon fill="#FFFFFF" points="291.332,112.381 291.332,113.108 295.528,113.108 295.528,124.262 296.385,124.262 
		296.385,113.108 300.56,113.108 300.56,112.381 	"/>
	<g>
		<path fill="#FFFFFF" d="M302.64,119.946h5.325l-2.424-6.001c-0.04-0.097-0.085-0.207-0.119-0.33
			c-0.035-0.114-0.079-0.242-0.115-0.379c-0.039,0.137-0.079,0.265-0.123,0.379c-0.035,0.123-0.079,0.233-0.115,0.33L302.64,119.946
			z M310.597,124.262h-0.665c-0.08,0-0.146-0.021-0.189-0.062c-0.053-0.045-0.098-0.098-0.124-0.164l-1.401-3.456h-5.837
			l-1.394,3.456c-0.022,0.059-0.062,0.115-0.114,0.164c-0.062,0.04-0.124,0.062-0.203,0.062h-0.652l4.857-11.881h0.856
			L310.597,124.262z"/>
		<path fill="#FFFFFF" d="M313.582,118.249h2.067c0.528,0,0.996-0.063,1.41-0.194c0.423-0.119,0.776-0.3,1.063-0.533
			c0.287-0.243,0.508-0.517,0.657-0.855c0.149-0.331,0.229-0.705,0.229-1.111c0-0.847-0.278-1.477-0.834-1.891
			c-0.551-0.41-1.361-0.613-2.42-0.613h-2.173V118.249z M313.582,118.888v5.374h-0.855v-11.886h3.028
			c1.376,0,2.398,0.265,3.077,0.799c0.675,0.528,1.014,1.305,1.014,2.332c0,0.454-0.079,0.864-0.229,1.238
			c-0.159,0.375-0.388,0.71-0.688,0.991c-0.291,0.278-0.639,0.513-1.053,0.697c-0.414,0.181-0.887,0.3-1.406,0.353
			c0.141,0.084,0.255,0.194,0.36,0.34l4.092,5.136h-0.745c-0.093,0-0.172-0.018-0.234-0.048c-0.061-0.036-0.123-0.089-0.185-0.172
			l-3.805-4.819c-0.093-0.123-0.198-0.202-0.309-0.256c-0.109-0.053-0.277-0.079-0.512-0.079H313.582z"/>
	</g>
	<polygon fill="#FFFFFF" points="321.23,112.381 321.23,113.108 325.423,113.108 325.423,124.262 326.282,124.262 326.282,113.108 
		330.458,113.108 330.458,112.381 	"/>
	<g>
		<path fill="#FFFFFF" d="M338.265,113.827c-0.053,0.088-0.123,0.146-0.216,0.146c-0.075,0-0.172-0.058-0.281-0.163
			c-0.119-0.102-0.274-0.221-0.473-0.34c-0.194-0.133-0.44-0.242-0.736-0.357c-0.296-0.101-0.657-0.153-1.089-0.153
			c-0.433,0-0.815,0.065-1.142,0.185c-0.335,0.123-0.604,0.291-0.824,0.507c-0.225,0.212-0.388,0.458-0.507,0.736
			c-0.115,0.281-0.172,0.572-0.172,0.877c0,0.406,0.079,0.737,0.255,1.001c0.173,0.264,0.397,0.485,0.675,0.674
			c0.278,0.19,0.604,0.34,0.957,0.464c0.353,0.123,0.723,0.247,1.093,0.379c0.379,0.119,0.741,0.26,1.103,0.405
			c0.353,0.149,0.67,0.331,0.951,0.56c0.283,0.226,0.513,0.499,0.68,0.824c0.167,0.331,0.256,0.732,0.256,1.227
			c0,0.498-0.089,0.97-0.256,1.401c-0.167,0.44-0.415,0.824-0.744,1.151c-0.323,0.325-0.72,0.581-1.191,0.762
			c-0.472,0.195-1.009,0.282-1.608,0.282c-0.789,0-1.464-0.132-2.028-0.414c-0.564-0.272-1.058-0.661-1.486-1.137l0.234-0.366
			c0.066-0.084,0.146-0.129,0.234-0.129c0.053,0,0.118,0.032,0.198,0.098c0.074,0.07,0.167,0.154,0.281,0.252
			c0.114,0.093,0.247,0.202,0.405,0.321c0.159,0.11,0.34,0.216,0.547,0.313c0.203,0.098,0.445,0.182,0.714,0.252
			c0.27,0.07,0.573,0.102,0.909,0.102c0.476,0,0.898-0.075,1.27-0.216c0.37-0.142,0.679-0.336,0.934-0.582
			c0.261-0.252,0.45-0.539,0.588-0.883c0.136-0.335,0.202-0.696,0.202-1.084c0-0.419-0.084-0.767-0.261-1.031
			c-0.167-0.282-0.396-0.503-0.679-0.688c-0.272-0.18-0.59-0.33-0.952-0.454c-0.353-0.127-0.719-0.246-1.102-0.365
			c-0.366-0.115-0.732-0.242-1.094-0.393c-0.353-0.146-0.67-0.339-0.952-0.56c-0.282-0.22-0.508-0.507-0.675-0.847
			c-0.172-0.339-0.26-0.763-0.26-1.27c0-0.401,0.079-0.78,0.229-1.151c0.154-0.374,0.369-0.7,0.66-0.978
			c0.301-0.283,0.658-0.507,1.081-0.679c0.432-0.178,0.921-0.257,1.472-0.257c0.613,0,1.169,0.093,1.658,0.296
			c0.493,0.189,0.939,0.494,1.345,0.891L338.265,113.827z"/>
	</g>
	<polygon fill="#FFFFFF" points="352.83,112.381 352.83,117.918 345.393,117.918 345.393,112.381 344.524,112.381 344.524,124.262 
		345.393,124.262 345.393,118.566 352.83,118.566 352.83,124.262 353.694,124.262 353.694,112.381 	"/>
	<polygon fill="#FFFFFF" points="357.226,112.381 357.226,124.262 364.346,124.262 364.346,123.548 358.09,123.548 358.09,118.597 
		363.297,118.597 363.297,117.896 358.09,117.896 358.09,113.091 364.346,113.091 364.346,112.381 	"/>
	<g>
		<path fill="#FFFFFF" d="M368.256,118.249h2.067c0.529,0,1.001-0.063,1.415-0.194c0.424-0.119,0.771-0.3,1.063-0.533
			c0.282-0.243,0.503-0.517,0.657-0.855c0.15-0.331,0.225-0.705,0.225-1.111c0-0.847-0.278-1.477-0.828-1.891
			c-0.556-0.41-1.367-0.613-2.421-0.613h-2.178V118.249z M368.256,118.888v5.374h-0.851v-11.886h3.028
			c1.371,0,2.394,0.265,3.073,0.799c0.679,0.528,1.022,1.305,1.022,2.332c0,0.454-0.079,0.864-0.238,1.238
			c-0.158,0.375-0.388,0.71-0.679,0.991c-0.291,0.278-0.645,0.513-1.059,0.697c-0.414,0.181-0.886,0.3-1.401,0.353
			c0.133,0.084,0.256,0.194,0.357,0.34l4.09,5.136h-0.745c-0.092,0-0.166-0.018-0.232-0.048c-0.066-0.036-0.129-0.089-0.189-0.172
			l-3.8-4.819c-0.098-0.123-0.199-0.202-0.31-0.256c-0.11-0.053-0.282-0.079-0.502-0.079H368.256z"/>
	</g>
	<polygon fill="#FFFFFF" points="377.747,112.381 377.747,124.262 384.867,124.262 384.867,123.548 378.615,123.548 
		378.615,118.597 383.822,118.597 383.822,117.896 378.615,117.896 378.615,113.091 384.867,113.091 384.867,112.381 	"/>
</g>
</svg>
