<?xml version="1.0" encoding="utf-8"?>
<!-- Generator: Adobe Illustrator 16.0.0, SVG Export Plug-In . SVG Version: 6.00 Build 0)  -->
<!DOCTYPE svg PUBLIC "-//W3C//DTD SVG 1.1//EN" "http://www.w3.org/Graphics/SVG/1.1/DTD/svg11.dtd">
<svg version="1.1" id="Layer_1" xmlns="http://www.w3.org/2000/svg" xmlns:xlink="http://www.w3.org/1999/xlink" x="0px" y="0px"
	 width="220px" height="283px" viewBox="0 0 220 283" enable-background="new 0 0 220 283" xml:space="preserve">
<g>
	<path fill="#A5A7AA" d="M153.216,60.193c0.023,0,0.592,0.307,2.284,0.307h48.865L152.75,15.767v40.858
		C152.75,59.444,153.16,60.116,153.216,60.193C153.216,60.193,153.216,60.193,153.216,60.193z"/>
	<path fill="#A5A7AA" d="M155.5,71.5c-9.124,0-13.75-5.005-13.75-14.875V11H26.333c-6.627,0-12,5.373-12,12v236
		c0,6.627,5.373,12,12,12H199c6.627,0,12-5.373,12-12V71.5H155.5z"/>
</g>
<g>
	<path fill="#FFFFFF" d="M37.202,74.412V41.244h14.294c1.619,0,3.113,0.335,4.484,1.005c1.371,0.669,2.546,1.541,3.527,2.615
		c0.98,1.075,1.751,2.306,2.312,3.691c0.561,1.387,0.841,2.78,0.841,4.181c0,1.464-0.265,2.889-0.794,4.274
		c-0.53,1.386-1.269,2.616-2.218,3.69c-0.951,1.075-2.103,1.932-3.457,2.57c-1.354,0.637-2.842,0.957-4.461,0.957h-5.419v10.184
		H37.202z M46.311,56.286h4.812c0.56,0,1.082-0.257,1.565-0.771c0.482-0.513,0.724-1.44,0.724-2.779c0-1.37-0.28-2.304-0.841-2.803
		c-0.56-0.498-1.121-0.747-1.681-0.747h-4.579V56.286z"/>
	<path fill="#FFFFFF" d="M66.304,74.412V41.244h12.753c2.74,0,5.154,0.437,7.241,1.309c2.086,0.873,3.83,2.056,5.231,3.55
		c1.402,1.495,2.46,3.247,3.177,5.255c0.716,2.009,1.074,4.151,1.074,6.423c0,2.523-0.396,4.805-1.191,6.844
		c-0.794,2.04-1.923,3.785-3.387,5.233c-1.464,1.447-3.223,2.568-5.278,3.363c-2.056,0.793-4.345,1.191-6.867,1.191H66.304z
		 M86.531,57.781c0-1.276-0.171-2.443-0.513-3.503c-0.344-1.058-0.834-1.961-1.472-2.708c-0.639-0.748-1.425-1.332-2.359-1.752
		c-0.934-0.42-1.978-0.63-3.129-0.63h-3.644V66.47h3.644c1.183,0,2.242-0.217,3.176-0.653c0.935-0.436,1.721-1.043,2.359-1.822
		c0.638-0.778,1.121-1.696,1.448-2.756C86.367,60.18,86.531,59.027,86.531,57.781z"/>
	<path fill="#FFFFFF" d="M99.75,74.412V41.244h22.75v7.942h-13.64v5.512h11.117v7.381H108.86v12.333H99.75z"/>
</g>
<path fill="#FFFFFF" d="M192.41,179.5H32.923c-1.933,0-3.5-1.568-3.5-3.5c0-1.934,1.567-3.5,3.5-3.5H192.41
	c1.933,0,3.5,1.566,3.5,3.5C195.91,177.932,194.343,179.5,192.41,179.5z"/>
<path fill="#FFFFFF" d="M192.41,211.75H32.923c-1.933,0-3.5-1.568-3.5-3.5c0-1.934,1.567-3.5,3.5-3.5H192.41
	c1.933,0,3.5,1.566,3.5,3.5C195.91,210.182,194.343,211.75,192.41,211.75z"/>
<path fill="#FFFFFF" d="M192.41,244H32.923c-1.933,0-3.5-1.568-3.5-3.5c0-1.934,1.567-3.5,3.5-3.5H192.41c1.933,0,3.5,1.566,3.5,3.5
	C195.91,242.432,194.343,244,192.41,244z"/>
<path fill="#FFFFFF" d="M192.41,115H32.923c-1.933,0-3.5-1.568-3.5-3.5c0-1.934,1.567-3.5,3.5-3.5H192.41c1.933,0,3.5,1.566,3.5,3.5
	C195.91,113.432,194.343,115,192.41,115z"/>
<path fill="#FFFFFF" d="M192.41,147.25H32.923c-1.933,0-3.5-1.568-3.5-3.5c0-1.934,1.567-3.5,3.5-3.5H192.41
	c1.933,0,3.5,1.566,3.5,3.5C195.91,145.682,194.343,147.25,192.41,147.25z"/>
</svg>
