<?xml version="1.0" encoding="utf-8"?>
<!-- Generator: Adobe Illustrator 16.0.0, SVG Export Plug-In . SVG Version: 6.00 Build 0)  -->
<!DOCTYPE svg PUBLIC "-//W3C//DTD SVG 1.1//EN" "http://www.w3.org/Graphics/SVG/1.1/DTD/svg11.dtd">
<svg version="1.1" id="Layer_1" xmlns="http://www.w3.org/2000/svg" xmlns:xlink="http://www.w3.org/1999/xlink" x="0px" y="0px"
	 width="599.667px" height="92.88px" viewBox="0 0 599.667 92.88" enable-background="new 0 0 599.667 92.88" xml:space="preserve">
<polygon fill="#FFF200" points="63.444,18.062 72.665,36.745 93.283,39.741 78.364,54.283 81.886,74.818 63.444,65.123 
	45.003,74.818 48.525,54.283 33.605,39.741 54.224,36.745 "/>
<polygon fill="#FFF200" points="181.639,18.062 190.859,36.745 211.478,39.741 196.558,54.283 200.081,74.818 181.639,65.123 
	163.198,74.818 166.719,54.283 151.8,39.741 172.418,36.745 "/>
<polygon fill="#FFF200" points="299.833,18.062 309.054,36.745 329.672,39.741 314.752,54.283 318.275,74.818 299.833,65.123 
	281.392,74.818 284.914,54.283 269.995,39.741 290.612,36.745 "/>
<polygon fill="#FFF200" points="418.028,18.062 427.249,36.745 447.867,39.741 432.947,54.283 436.469,74.818 418.028,65.123 
	399.586,74.818 403.108,54.283 388.188,39.741 408.806,36.745 "/>
<polygon fill="#FFF200" points="536.222,18.062 545.443,36.745 566.061,39.741 551.141,54.283 554.664,74.818 536.222,65.123 
	517.782,74.818 521.302,54.283 506.383,39.741 527.001,36.745 "/>
</svg>
