<?xml version="1.0" encoding="utf-8"?>
<!-- Generator: Adobe Illustrator 16.0.0, SVG Export Plug-In . SVG Version: 6.00 Build 0)  -->
<!DOCTYPE svg PUBLIC "-//W3C//DTD SVG 1.1//EN" "http://www.w3.org/Graphics/SVG/1.1/DTD/svg11.dtd">
<svg version="1.1" id="Layer_1" xmlns="http://www.w3.org/2000/svg" xmlns:xlink="http://www.w3.org/1999/xlink" x="0px" y="0px"
	 width="425.2px" height="226.77px" viewBox="0 0 425.2 226.77" enable-background="new 0 0 425.2 226.77" xml:space="preserve">
<g>
	<path fill="#FFFFFF" d="M292.544,111.865c0.102-0.158,0.157-0.277,0.21-0.372c0.095-0.182,0.137-0.315,0.207-0.487
		c0.231-0.895-0.088-1.754-0.891-2.249c-0.516-0.312-1.158-0.463-2.13-0.463h-10.597l-2.104,3.199l2.087,0.221
		c0.229,0.039,0.411,0.084,0.53,0.105l-17.209,27.708l-0.123,0.231c-0.158,0.291-0.256,0.513-0.344,0.765
		c-0.263,0.943,0.011,1.849,0.762,2.393c0.561,0.417,1.343,0.656,2.356,0.656h10.51l1.933-3.406l-2.073-0.084
		c-0.379-0.015-0.597-0.043-0.769-0.063c0-0.042,0.004-0.053,0.004-0.053L292.544,111.865z"/>
	<path fill="#FFFFFF" d="M316.448,135.903c-0.217,0.053-0.421,0.06-0.624,0.06c-0.617,0-0.855-0.154-0.926-0.183
		c-0.028-0.018-0.119-0.091-0.189-0.306l-1.291-6.825c3.402-0.271,6.496-1.4,9.33-3.424c3.228-2.294,5.381-5.244,6.427-8.794
		c0.975-3.262-0.231-5.149-1.425-6.156c-1.55-1.326-3.984-1.981-7.38-1.981h-22.229l-1.922,3.258l2.023,0.179
		c0.211,0.014,0.383,0.031,0.498,0.07L281.28,139.52l-0.116,0.238c-0.186,0.295-0.291,0.513-0.368,0.762
		c-0.252,0.95,0,1.852,0.786,2.398c0.582,0.449,1.326,0.653,2.343,0.653h10.59l2.214-3.406l-2.245-0.084
		c-0.315-0.015-0.533-0.032-0.709-0.057l6.7-10.628h1.494l1.284,11.077c0.154,1.179,0.747,2.076,1.69,2.521
		c0.516,0.277,1.501,0.576,4.479,0.576c1.448,0,2.55-0.057,3.354-0.095c0.979-0.092,1.543-0.204,2.01-0.456
		c0.526-0.246,1.042-0.751,1.561-1.467c0.46-0.663,1.189-1.911,2.221-3.852l1.206-2.245l-2.525,0.352
		C316.946,135.868,316.705,135.886,316.448,135.903z M308.595,122.068h-3.42l4.132-6.552h4.992c1.743,0,2.325,0.287,2.497,0.403
		c0.011,0,0.035,0.102-0.053,0.364c-0.589,1.919-1.519,3.329-2.873,4.308C312.481,121.574,310.724,122.068,308.595,122.068z"/>
	<path fill="#FFFFFF" d="M349.659,142.188c0.625-0.522,1.769-1.729,4.153-6.128l1.011-1.911h-3.936l-0.394,0.48
		c-0.34,0.441-0.736,0.75-1.136,0.947c-0.414,0.186-1,0.287-1.646,0.287h-12.07l4.992-7.99h10.344c2.017,0,3.459-0.33,4.455-1.046
		c0.933-0.688,1.915-2.069,3.076-4.363l0.95-1.869h-14.178l2.855-4.687h12.48c1.536,0,2.764-0.344,3.672-1.003
		c0.579-0.418,1.474-1.369,3.266-4.722l1.011-1.891h-31.082l-1.884,3.258l1.992,0.189c0.211,0.003,0.383,0.021,0.498,0.06
		l-16.689,26.908l-0.597,1.021c-0.168,0.302-0.28,0.533-0.322,0.793c-0.302,1.031,0.021,1.954,0.919,2.487
		c0.604,0.382,1.424,0.562,2.638,0.562h21.439C347.127,143.571,348.544,143.098,349.659,142.188z"/>
	<path fill="#FFFFFF" d="M410.897,108.757c-0.59-0.302-1.403-0.463-2.575-0.463h-8.559l-1.807,3.318l1.996,0.14
		c0.203,0.01,0.351,0.045,0.47,0.056l-10.039,16.149l-1.704-14.431c-0.225-2.042-0.807-3.399-1.761-4.167
		c-0.912-0.709-2.245-1.066-4.083-1.066h-9.906l-1.929,3.258l2.027,0.189c0.238,0.011,0.421,0.056,0.568,0.077l-17.63,27.904
		c-0.015,0.042-0.06,0.127-0.095,0.147c-0.116,0.196-0.207,0.386-0.257,0.59c-0.273,0.922-0.042,1.816,0.66,2.409
		c0.561,0.449,1.312,0.702,2.322,0.702h9.484l1.989-3.406l-2.137-0.084c-0.273-0.015-0.477-0.021-0.606-0.032l10.264-16.419
		l2.052,15.079c0.2,1.533,0.824,2.747,1.88,3.585c1.018,0.817,2.322,1.277,3.894,1.277h6.321l19.608-31.167
		c0.104-0.189,0.196-0.354,0.298-0.551c0.088-0.165,0.165-0.4,0.235-0.649C412.181,110.216,411.81,109.269,410.897,108.757z"/>
	<path fill="#FFFFFF" d="M379.156,156.262c0.705-0.877,1.056-1.999,1.056-3.35c0-0.866-0.246-1.54-0.729-1.985
		c-0.484-0.467-1.186-0.698-2.098-0.698h-6.377l-0.077,0.361c0.207,0.021,0.371,0.098,0.483,0.189
		c0.116,0.105,0.172,0.235,0.172,0.403c0,0.028,0,0.053-0.003,0.073c-0.004,0.021-0.015,0.07-0.035,0.145l-2.75,11.477v0.039
		c-0.028,0.098-0.035,0.183-0.035,0.234c0,0.187,0.056,0.334,0.175,0.432c0.123,0.105,0.288,0.145,0.506,0.145h2.942l0.095-0.369
		c-0.238-0.007-0.414-0.066-0.533-0.168c-0.122-0.099-0.182-0.238-0.182-0.428c0-0.07,0.007-0.119,0.007-0.151
		c0.003-0.035,0.007-0.056,0.014-0.084l1.115-4.637h0.982l1.512,5.044c0.084,0.305,0.229,0.516,0.418,0.628
		c0.189,0.119,0.589,0.165,1.199,0.165c0.417,0,0.736-0.011,0.954-0.025c0.218-0.027,0.357-0.066,0.428-0.119
		c0.084-0.077,0.165-0.231,0.231-0.463c0.07-0.231,0.176-0.736,0.309-1.529c-0.091,0.018-0.172,0.035-0.249,0.042
		c-0.073,0.011-0.15,0.021-0.221,0.021c-0.21,0-0.379-0.057-0.509-0.151c-0.137-0.108-0.242-0.267-0.326-0.48l-1.192-3.431h0.042
		C377.563,157.591,378.458,157.152,379.156,156.262z M375.101,155.922h-1.693l0.895-3.768h1.69c0.452,0,0.782,0.077,0.992,0.242
		c0.207,0.161,0.316,0.414,0.316,0.758c0,0.895-0.193,1.582-0.568,2.052C376.36,155.687,375.813,155.922,375.101,155.922z"/>
	<path fill="#FFFFFF" d="M355.146,150.814c-0.765-0.551-1.911-0.821-3.438-0.821c-1.382,0-2.487,0.253-3.332,0.769
		c-0.842,0.512-1.536,1.357-2.091,2.543c-0.168,0.354-0.348,0.849-0.529,1.487c-0.193,0.642-0.376,1.375-0.558,2.21
		c-0.193,0.828-0.334,1.54-0.432,2.14c-0.095,0.589-0.145,1.084-0.145,1.448c0,1.158,0.354,2.011,1.06,2.558
		c0.712,0.554,1.807,0.82,3.294,0.82c1.47,0,2.613-0.224,3.431-0.688c0.811-0.452,1.519-1.27,2.108-2.434
		c0.207-0.407,0.431-1.028,0.673-1.846c0.239-0.813,0.478-1.771,0.709-2.852c0.13-0.635,0.225-1.186,0.287-1.666
		c0.067-0.47,0.099-0.87,0.099-1.2C356.282,152.189,355.903,151.361,355.146,150.814z M352.911,156.129
		c-0.196,0.954-0.452,1.939-0.775,2.949c-0.322,0.996-0.681,1.691-1.084,2.098c-0.403,0.4-0.919,0.604-1.554,0.604
		c-0.582,0-1.034-0.15-1.354-0.449c-0.316-0.298-0.478-0.729-0.478-1.276c0-0.478,0.112-1.221,0.33-2.256
		c0.218-1.031,0.512-2.087,0.88-3.156c0.292-0.874,0.646-1.491,1.06-1.884c0.41-0.386,0.916-0.575,1.533-0.575
		c0.597,0,1.031,0.147,1.312,0.435c0.281,0.302,0.421,0.758,0.421,1.389C353.202,154.47,353.101,155.182,352.911,156.129z"/>
	<path fill="#FFFFFF" d="M345.899,150.12c0.035-0.154,0.056-0.271,0.077-0.361h-0.351c-0.05,0.182-0.141,0.294-0.264,0.361
		c-0.122,0.077-0.326,0.108-0.596,0.108h-6.647c-0.771,0-1.318,0.726-1.642,2.179c-0.038,0.188-0.07,0.329-0.091,0.428h0.364
		c0.046-0.189,0.127-0.337,0.26-0.414c0.126-0.084,0.319-0.123,0.582-0.123h1.947l-2.473,10.383
		c-0.015,0.032-0.025,0.077-0.028,0.13c-0.004,0.042-0.007,0.112-0.007,0.2c0,0.245,0.08,0.428,0.252,0.544
		c0.165,0.119,0.425,0.172,0.771,0.172h2.533l0.077-0.369c-0.238-0.014-0.414-0.084-0.544-0.196
		c-0.126-0.112-0.189-0.267-0.189-0.459c0-0.067,0-0.119,0.014-0.176c0.011-0.066,0.025-0.126,0.039-0.192l2.459-10.036h2.083
		C345.146,152.298,345.604,151.572,345.899,150.12z"/>
	<path fill="#FFFFFF" d="M369.142,150.954c0.007-0.049,0.011-0.126,0.011-0.203c0-0.189-0.063-0.315-0.183-0.399
		c-0.123-0.088-0.341-0.123-0.656-0.123h-2.729l-0.077,0.361c0.203,0.021,0.357,0.088,0.463,0.176
		c0.105,0.091,0.165,0.214,0.165,0.378c0,0.092-0.004,0.158-0.011,0.215c-0.007,0.045-0.015,0.108-0.028,0.146l-1.972,8.002
		c-0.221,0.891-0.505,1.486-0.849,1.799c-0.337,0.302-0.87,0.46-1.589,0.46c-0.642,0-1.112-0.099-1.413-0.288
		c-0.306-0.196-0.464-0.494-0.464-0.908c0-0.07,0.011-0.172,0.028-0.288c0.024-0.108,0.057-0.287,0.105-0.505l2.133-8.776
		c0.014-0.056,0.028-0.115,0.042-0.175c0.007-0.06,0.018-0.109,0.018-0.147c0-0.158-0.053-0.273-0.158-0.344
		c-0.105-0.074-0.273-0.105-0.512-0.105h-2.957l-0.074,0.361c0.204,0.021,0.358,0.098,0.471,0.203
		c0.108,0.112,0.168,0.246,0.168,0.414c0,0.046-0.007,0.099-0.018,0.154c-0.011,0.053-0.021,0.123-0.042,0.193l-2.024,8.404
		c-0.052,0.172-0.08,0.357-0.104,0.536c-0.021,0.183-0.028,0.358-0.028,0.548c0,0.996,0.348,1.719,1.049,2.175
		c0.691,0.463,1.813,0.69,3.356,0.69c1.709,0,2.989-0.273,3.827-0.817c0.842-0.547,1.421-1.466,1.74-2.764l2.279-9.222
		C369.127,151.053,369.135,151,369.142,150.954z"/>
	<path fill="#FFFFFF" d="M382.576,151.467c-0.681,0.82-1.024,1.943-1.024,3.378c0,0.579,0.102,1.042,0.309,1.386
		c0.203,0.354,0.54,0.631,0.996,0.842l2.344,1.024c0.315,0.137,0.543,0.301,0.68,0.483c0.141,0.179,0.211,0.403,0.211,0.667
		c0,0.712-0.221,1.287-0.67,1.729c-0.449,0.452-1.028,0.677-1.747,0.677h-2.287c-0.351,0-0.604-0.063-0.743-0.176
		c-0.145-0.123-0.229-0.322-0.249-0.61h-0.352l-0.406,1.754c0,0,0,0.031-0.007,0.066c-0.021,0.141-0.028,0.229-0.028,0.281
		c0,0.287,0.119,0.483,0.364,0.6c0.246,0.112,0.733,0.158,1.463,0.158h2.845c1.46,0,2.586-0.432,3.378-1.309
		c0.793-0.884,1.189-2.122,1.189-3.722c0-0.628-0.126-1.154-0.386-1.575c-0.256-0.414-0.659-0.754-1.21-1.01l-2.028-0.976
		c-0.34-0.161-0.571-0.313-0.712-0.47c-0.133-0.151-0.203-0.33-0.203-0.526c0-0.52,0.144-0.94,0.438-1.252
		c0.295-0.313,0.681-0.48,1.175-0.48h2.238c0.26,0,0.474-0.063,0.621-0.197c0.157-0.126,0.259-0.326,0.312-0.596l0.299-1.386h-3.996
		C384.196,150.229,383.257,150.643,382.576,151.467z"/>
	<path fill="#FFFFFF" d="M152.872,139.723c-0.158,0.302-0.27,0.533-0.336,0.758c-0.309,1.073,0.03,1.996,0.917,2.529
		c0.595,0.382,1.435,0.562,2.624,0.562h21.474c1.668,0,3.08-0.474,4.183-1.383c0.646-0.516,1.786-1.729,4.159-6.138l1.016-1.901
		h-3.925l-0.388,0.48c-0.368,0.441-0.758,0.75-1.163,0.947c-0.417,0.186-0.966,0.287-1.649,0.287h-12.068l5.007-7.99h10.346
		c2.003,0,3.458-0.33,4.446-1.046c0.945-0.694,1.926-2.076,3.094-4.363l0.949-1.869h-14.198l2.859-4.687h12.489
		c1.543,0,2.778-0.344,3.68-1.003c0.577-0.418,1.473-1.369,3.278-4.722l1.01-1.891h-31.101l-1.903,3.258l2.008,0.189
		c0.209,0.003,0.37,0.021,0.495,0.06l-16.728,26.908C153.182,139.147,152.998,139.516,152.872,139.723z"/>
	<path fill="#FFFFFF" d="M213.297,142.466c0.724,0.727,1.883,1.105,3.507,1.105h8.794l1.263-2.487
		c0.084,0.891,0.674,1.606,1.684,2.003c0.562,0.2,1.719,0.484,5.182,0.484h9.453c5.079,0,9.404-1.172,12.859-3.421
		c3.5-2.312,5.896-5.57,7.117-9.74c0.543-1.849,0.445-3.455-0.277-4.774c-0.709-1.27-2.06-2.29-3.964-3.01l-6.044-2.35
		c-1.157-0.453-1.498-0.755-1.575-0.866c0.271-0.954,0.87-1.716,1.793-2.326c1.007-0.646,2.164-0.957,3.543-0.957h7.468
		c1.052,0,2.023-0.207,2.771-0.61c0.811-0.418,1.495-1.074,2-1.937l3.072-5.286h-15.507c-4.22,0-7.914,1.08-10.962,3.216
		c-3.065,2.161-5.191,5.132-6.289,8.878c-0.491,1.719-0.453,3.156,0.137,4.314c0.596,1.136,1.732,2.03,3.438,2.645l7.036,2.512
		c1.003,0.337,1.298,0.631,1.361,0.729c0.035,0.014,0.102,0.115,0,0.502c-0.403,1.357-1.337,2.479-2.887,3.392
		c-1.582,0.982-3.47,1.48-5.605,1.48h-7.604c-0.972,0-1.386-0.105-1.491-0.105c-0.007,0-0.028,0-0.035,0
		c0-0.07-0.004-0.165,0.035-0.291l0.256-1.512h-3.389l-2.964,4.865l-0.095,0.087l-0.049,0.151c-0.203,0.449-0.315,0.751-0.368,0.901
		c-0.035,0.099-0.021,0.186-0.042,0.284l-1.438-0.221c-0.393-0.074-0.656-0.189-0.765-0.365c-0.126-0.141-0.088-0.498-0.042-0.726
		l5.771-26.778c0.284-1.382,0.038-2.438-0.727-3.097c-0.656-0.596-1.68-0.863-3.248-0.863h-12.06l-2.015,3.458h1.761
		c-0.083,0.077-0.146,0.154-0.239,0.214l-27.818,25.918c-0.672,0.61-1.167,1.073-1.498,1.48c-0.412,0.505-0.673,0.989-0.805,1.406
		c-0.26,0.892,0.01,1.716,0.715,2.224c0.505,0.39,1.177,0.576,2.071,0.576h9.671l1.577-3.326l-1.496-0.108l5.796-5.753h11.463
		l-1.008,4.561C212.25,140.46,212.489,141.646,213.297,142.466z M209.12,127.309l7.845-7.239l-1.705,7.239H209.12z"/>
	<path fill="#FFFFFF" d="M278.559,169.531c-54.335-0.435-103.346-5.458-138.237-13.175c1.224-3.511,2.206-7.437,2.89-11.828
		c0.153-0.972,0.256-1.946,0.328-2.915c0.958-0.417,1.864-0.901,2.717-1.463c3.502-2.312,5.896-5.57,7.115-9.74
		c0.545-1.842,0.449-3.455-0.29-4.757c-0.707-1.287-2.045-2.308-3.965-3.027l-6.045-2.343c-1.142-0.463-1.484-0.765-1.572-0.873
		c0.286-0.954,0.872-1.716,1.813-2.319c0.984-0.652,2.142-0.954,3.527-0.954h7.468c1.068,0,2.008-0.217,2.789-0.631
		c0.807-0.418,1.472-1.063,1.977-1.926l3.087-5.286h-15.513c-4.222,0-7.903,1.08-10.957,3.206c-0.054,0.045-0.098,0.084-0.149,0.119
		c-1.063-2.083-2.177-4.16-3.308-6.24c-0.007,0-2.566,0.656-15.19,4.732c-12.621,4.09-17.782,8.868-17.782,8.868
		c5.954,15.286,8.878,23.477,8.146,27.627c-13.331-5.486-20.816-11.636-20.738-18.097l0.005-0.123
		c0.126-4.588,4.062-8.951,11.19-12.992c0.451-0.253,0.917-0.505,1.399-0.762c0.044-0.018,0.083-0.049,0.125-0.066
		c0.465-0.238,0.942-0.487,1.429-0.729c0.06-0.028,0.116-0.056,0.177-0.084c0.489-0.242,0.987-0.484,1.501-0.726
		c0.054-0.021,0.108-0.046,0.163-0.067c0.53-0.252,1.071-0.495,1.624-0.733c0.024-0.014,0.054-0.028,0.081-0.039
		c7.115-3.098,16.199-5.956,26.936-8.513c-0.007,0-0.007,0-0.007,0c35.395-8.429,88.686-13.558,148.229-13.073
		c52.059,0.421,99.223,5.044,133.767,12.221c-36.213-9.671-92.161-15.936-154.956-16.051c-50.109-0.098-95.878,3.739-130.75,10.134
		c-0.705-1.309-1.405-2.617-2.085-3.932c-12.403,2.389-23.565,5.111-33.234,8.103c0.516,1.333,1.017,2.624,1.512,3.883
		c-21.039,6.573-33.323,14.497-33.342,23.053c0,0.126,0.005,0.245,0.009,0.375l0.003,0.123c0.395,7.31,9.737,14.182,25.834,20.151
		c0.011,0,2.506-0.631,7.133-0.252c4.632,0.368,11.693,2.729,13.848-1.176c-0.726,2.445-3.017,3.238-7.045,3.249
		c-10.308,0.01-17.697-0.207-24.419,6.928c-4.288-0.204-6.437-4.406-10.088-6.356c4.181-1.424,5.463,3.048,8.515,3.318
		c-0.733-1.126-1.538-2.21-2.192-3.385c-1.331-2.361-3.264-3.687-5.989-3.715c-2.363-0.021-4.73,0.183-7.081,0.042
		c-3.921-0.249-6.326-2.69-7.575-6.159c-0.674-1.881-6.288-3.364-12.423-4.301c0,0-23.933-3.224-26.266,12.648
		c-0.365,2.452,0.293,2.2,0.531,2.67c0.212,0.421,0.563,0.985,0.251,1.939c-0.011,0.015-0.02,0.032-0.023,0.049
		c-0.3,0.87-0.775,1.54-1.124,2.407c-0.344,0.862-0.109,1.375,0.938,1.396c0.403,0.018,0.571,0.288,0.666,0.47
		c0.144,0.264,0,0.72-0.116,0.87c-0.291,0.39-0.292,0.937,0.076,0.996c0.649,0.099,0.291,0.007,0.152,0.365
		c-0.107,0.28-0.207,0.604,0.212,0.681c0.605,0.104,0.758,0.505,0.775,1.021c0.022,0.624,0.357,1.007,0.898,1.291
		c0.794,0.41,1.583,0.28,2.347,0c1.242-0.445,2.494-0.575,3.8-0.522c0.107,0,0.23,0.007,0.353,0.014c0.021,0,0.046,0,0.072,0
		c0.009,0,0.014,0.003,0.02,0.003c0.231,0.018,0.477,0.046,0.752,0.092c0.083,0.014,0.17,0.031,0.254,0.053
		c0.102,0.027,0.196,0.035,0.3,0.056c0.1,0.021,0.202,0.063,0.3,0.088c0.02,0.011,0.041,0.014,0.058,0.018
		c1.906,0.547,3.658,1.884,4.94,3.609c2.177,4.848,5.465,13.981,9.971,17.055c4.691,1.108,7.994-2.354,12.637-0.54
		c1.98,0.771,4.353,0.957,6.496,0.782c1.1-0.085,2.198-0.154,3.292-0.207l1.047,0.873v-0.93c5.311,2.782,10.276,6.188,15.837,8.457
		c2.385,0.979,4.788,1.919,7.193,2.849c2.845,1.08,4.83,3.017,5.896,5.872c0.626,1.666,1.524,3.153,2.772,4.438
		c0.896,0.929,1.086,2.227,1.347,3.44c0.161,0.769,0.202,1.505,1.196,1.884c0.624-1.655-0.207-3.192-0.344-4.725
		c-0.396-4.511-1.786-8.741-5.206-11.85c-1.473-1.325-3.025-2.567-4.604-3.774c-0.054-0.919-0.561-1.726-0.759-2.585
		c-0.286-1.21-0.681-2.392-1.21-3.476c11.162,1.964,40.872,4.262,53.652-23.354c33.236,5.395,74.762,8.643,119.804,8.73
		c10.453,0.018,20.717-0.13,30.728-0.445C285.462,169.566,282.017,169.566,278.559,169.531z M60.054,166.308
		c-1.589-0.926-3.067-1.992-4.471-3.16c1.87,0.021,3.713-0.246,5.481-0.943c2.871-1.137,5.396-0.601,7.726,1.024
		c0.605,0.428,1.224,0.834,1.831,1.248C67.759,167.083,63.071,168.065,60.054,166.308z M85.425,189.736
		c-1.286-0.969-2.573-1.954-3.823-2.968c-1.273-1.024-2.583-2.01-3.909-2.957c0.168,0,0.336-0.004,0.5-0.015
		c0.725-0.003,1.443-0.052,2.161-0.102c0,0,0.26,0.077,0.746,0.187c0.298,0.361,0.574,0.757,0.812,1.199
		c0.608,1.104,1.382,2.056,2.392,2.838C84.891,188.375,85.176,189.056,85.425,189.736z"/>
	<path fill="#FFFFFF" d="M122.353,86.553c-3.326-7.275-5.809-14.788-6.197-22.733c-2.385-48.936,75.991-40.798,62.497-0.537
		c-0.037,0.105-0.07,0.2-0.109,0.295c-5.561,16.153-14.716,4.02-54.108,13.648c12.673,1.357,18.687,7.941,27.239,8.923v0.007
		c-0.137,0.193-0.279,0.393-0.421,0.593c-0.605,0.874-3.877,1.473-8.015,0.631c10.769,5.304,19.44,3.417,26.001-2.042
		c5.802-4.371,9.732-11.555,12.512-20.51c0.089-0.291,0.179-0.579,0.267-0.866h-0.003c0.039-0.123,0.081-0.235,0.11-0.365
		c5.446-18.528-3.741-38.083-20.171-42.801c-37.668-10.832-84.219,29.689-72.543,72.14C99.474,90.563,110.513,88.419,122.353,86.553
		z"/>
	<g>
		<path fill="#39B54A" d="M273.584,139.87c0.07-0.141,0.092-0.298,0.158-0.344c0.018-0.084,0.039-0.172,0.108-0.26l17.592-28.058
			c0.088-0.123,0.126-0.249,0.199-0.323c0.021-0.087,0.077-0.147,0.092-0.214c0.102-0.347,0-0.631-0.306-0.807
			c-0.298-0.189-0.8-0.288-1.483-0.288h-9.898l-0.586,0.874c0.684,0.087,1.186,0.242,1.505,0.501
			c0.315,0.252,0.421,0.561,0.315,0.947c-0.007,0.049-0.021,0.116-0.084,0.172c-0.011,0.052-0.099,0.186-0.211,0.344l-17.24,27.778
			c-0.003,0.042-0.035,0.06-0.038,0.087c-0.147,0.271-0.249,0.471-0.292,0.586c-0.122,0.436-0.024,0.8,0.295,1.035
			c0.333,0.273,0.831,0.382,1.589,0.382h9.783l0.513-0.908c-0.804-0.011-1.337-0.179-1.709-0.41
			C273.563,140.681,273.462,140.354,273.584,139.87z"/>
		<path fill="#39B54A" d="M315.824,137.229c-0.705,0-1.234-0.115-1.624-0.351c-0.39-0.273-0.617-0.655-0.733-1.175l-1.582-8.274
			h0.162c3.651,0,6.948-1.084,9.965-3.217c2.975-2.15,4.981-4.869,5.925-8.131c0.648-2.094,0.291-3.711-1.021-4.823
			c-1.309-1.123-3.48-1.68-6.542-1.68h-21.506l-0.513,0.874c0.698,0.077,1.2,0.238,1.505,0.47c0.313,0.235,0.407,0.572,0.299,0.979
			c-0.015,0.06-0.067,0.116-0.081,0.172c-0.018,0.052-0.099,0.182-0.211,0.344l-17.485,27.767c-0.007,0.053-0.007,0.07-0.057,0.098
			c-0.137,0.271-0.241,0.46-0.267,0.586c-0.154,0.436-0.056,0.807,0.267,1.024c0.361,0.277,0.881,0.393,1.606,0.393h9.928
			l0.554-0.901c-0.751-0.018-1.336-0.186-1.655-0.414c-0.323-0.228-0.425-0.6-0.302-1.023c0.028-0.193,0.095-0.302,0.119-0.39
			c0.056-0.084,0.073-0.13,0.105-0.207l7.085-11.2h3.34l1.445,12.207c0.084,0.729,0.399,1.234,0.937,1.522
			c0.582,0.276,1.897,0.406,3.938,0.406c1.414,0,2.498-0.021,3.248-0.095c0.737-0.077,1.242-0.179,1.513-0.298
			c0.34-0.183,0.726-0.526,1.126-1.115c0.406-0.533,1.115-1.765,2.129-3.673c-0.313,0.021-0.604,0.088-0.888,0.108
			C316.322,137.219,316.042,137.229,315.824,137.229z M308.595,123.349h-5.707l5.714-9.109h5.697c1.521,0,2.561,0.203,3.16,0.579
			c0.596,0.399,0.771,1.007,0.512,1.831c-0.631,2.182-1.754,3.854-3.367,5.005C312.99,122.788,310.98,123.349,308.595,123.349z"/>
		<path fill="#39B54A" d="M343.002,121.883l4.413-7.243h13.206c1.245,0,2.238-0.253,2.904-0.748
			c0.674-0.509,1.652-1.943,2.908-4.314h-28.195l-0.509,0.87c0.678,0.081,1.183,0.235,1.478,0.456
			c0.309,0.246,0.399,0.562,0.287,0.997c-0.007,0.049-0.073,0.126-0.098,0.224c-0.077,0.102-0.112,0.21-0.197,0.344l-16.686,26.88
			c-0.277,0.424-0.467,0.789-0.579,0.996c-0.105,0.207-0.196,0.396-0.225,0.522c-0.147,0.498-0.014,0.831,0.337,1.049
			c0.393,0.26,1.053,0.379,1.992,0.379h21.439c1.354,0,2.477-0.39,3.367-1.098c0.877-0.716,2.14-2.645,3.83-5.739h-1.178
			c-0.506,0.559-1.024,1.031-1.624,1.264c-0.59,0.28-1.315,0.403-2.165,0.403H333.32l6.602-10.52h11.057
			c1.719,0,2.953-0.264,3.684-0.821c0.774-0.522,1.673-1.831,2.715-3.9H343.002z"/>
		<path fill="#39B54A" d="M410.28,109.886c-0.376-0.204-1.031-0.309-1.958-0.309h-7.787l-0.491,0.909
			c0.685,0.052,1.154,0.196,1.452,0.414c0.306,0.249,0.4,0.562,0.288,1c-0.038,0.116-0.084,0.224-0.105,0.301
			c-0.035,0.067-0.08,0.126-0.104,0.193l-12.032,19.338l-2.125-18.047c-0.189-1.669-0.625-2.785-1.284-3.304
			c-0.688-0.54-1.775-0.803-3.297-0.803h-9.184l-0.512,0.874c0.701,0.077,1.206,0.238,1.521,0.491
			c0.337,0.263,0.449,0.604,0.316,0.982c-0.011,0.077-0.024,0.14-0.057,0.193c-0.042,0.056-0.098,0.189-0.221,0.351l-17.556,27.785
			c-0.063,0.108-0.123,0.224-0.176,0.326c-0.084,0.098-0.105,0.189-0.119,0.263c-0.154,0.435-0.063,0.769,0.245,1.042
			c0.309,0.28,0.811,0.399,1.505,0.399h8.748l0.523-0.901c-0.828-0.018-1.403-0.13-1.736-0.329c-0.316-0.2-0.418-0.509-0.306-0.923
			c0.046-0.112,0.108-0.28,0.26-0.505c0.035-0.077,0.049-0.105,0.049-0.151l12.235-19.523l2.55,18.594
			c0.147,1.203,0.632,2.119,1.41,2.747c0.775,0.677,1.813,0.992,3.083,0.992h5.612l19.251-30.577
			c0.063-0.123,0.144-0.252,0.21-0.389c0.042-0.126,0.105-0.273,0.154-0.466C410.785,110.426,410.645,110.093,410.28,109.886z"/>
		<path fill="#39B54A" d="M376.984,93.407c-37.252-10.25-93.95-16.181-156.935-14.964c-15.981,0.309-31.48,1.059-46.295,2.203
			c-1.88,2.396-4.013,4.483-6.384,6.104c22.772-2.522,47.865-4.065,74.293-4.392C293.901,81.716,341.648,85.971,376.984,93.407z"/>
		<path fill="#39B54A" d="M51.923,129.754c-0.035-0.452-0.037-0.915-0.011-1.368c0.891-16.325,39.095-30.938,95.871-39.143
			c-1.471-0.47-2.983-1.094-4.544-1.855c4.138,0.835,7.414,0.235,8.017-0.638c2.866-0.056,8.946-0.484,12.891-3.347
			c-3.757,2.526-12.472,2.747-12.472,2.747c-2.915-0.336-5.535-1.315-8.222-2.522c-69.153,8.362-117.249,25.61-117.924,44.758
			c-0.014,0.453-0.009,0.905,0.028,1.364c0.205,2.463,1.184,4.862,2.892,7.198c5.593-0.751,10.514-0.095,10.514-0.095
			c6.135,0.937,11.749,2.42,12.424,4.301c1.249,3.469,3.648,5.91,7.573,6.159c2.35,0.141,4.718-0.063,7.081-0.042
			c2.725,0.028,4.658,1.354,5.989,3.715c0.654,1.175,1.461,2.259,2.192,3.385c-3.05-0.271-4.334-4.742-8.515-3.318
			c3.651,1.95,5.796,6.152,10.083,6.356c1.961-2.077,3.974-3.522,6.093-4.543C63.472,146.262,52.553,138.348,51.923,129.754z"/>
		<path fill="#39B54A" d="M136.124,165.508c-0.856,1.445-1.766,2.789-2.718,4.045c28.275,3.062,60.462,4.497,94.48,3.837
			c10.481-0.203,20.759-0.6,30.77-1.171c-3.427,0.098-6.882,0.157-10.361,0.196C206.731,172.931,168.011,170.335,136.124,165.508z"
			/>
		<path fill="#39B54A" d="M183.069,126.604c1.707,0,2.948-0.264,3.696-0.821c0.752-0.522,1.654-1.831,2.704-3.9h-14.389l4.415-7.243
			h13.208c1.271,0,2.253-0.253,2.922-0.748c0.677-0.509,1.64-1.943,2.906-4.314h-28.229l-0.51,0.87
			c0.705,0.081,1.205,0.235,1.508,0.456c0.298,0.246,0.389,0.562,0.265,0.997c-0.018,0.049-0.051,0.126-0.102,0.224
			c-0.053,0.102-0.114,0.21-0.195,0.344l-16.716,26.88c-0.254,0.424-0.437,0.789-0.554,0.996c-0.116,0.207-0.191,0.396-0.233,0.522
			c-0.142,0.498-0.024,0.831,0.356,1.049c0.372,0.26,1.028,0.379,1.958,0.379h21.471c1.373,0,2.499-0.39,3.379-1.098
			c0.872-0.716,2.15-2.645,3.834-5.739h-1.178c-0.493,0.559-1.03,1.031-1.621,1.264c-0.586,0.28-1.312,0.403-2.175,0.403h-14.391
			l6.614-10.52H183.069z"/>
		<path fill="#39B54A" d="M229.197,112.012c0.169-0.912,0.063-1.536-0.336-1.894c-0.394-0.347-1.186-0.54-2.386-0.54h-11.335
			l-0.518,0.909c0.526,0,0.916,0.091,1.137,0.256c0.235,0.158,0.291,0.41,0.193,0.719c-0.053,0.182-0.162,0.389-0.35,0.61
			c-0.176,0.235-0.458,0.505-0.811,0.855l-27.837,25.905c-0.61,0.533-1.064,1.018-1.366,1.361c-0.298,0.375-0.484,0.688-0.568,0.968
			c-0.104,0.33-0.016,0.624,0.253,0.82c0.273,0.207,0.708,0.302,1.308,0.302h8.862l0.432-0.908c-0.591-0.024-0.968-0.13-1.168-0.302
			c-0.2-0.175-0.25-0.417-0.149-0.793c0.067-0.122,0.147-0.249,0.235-0.403c0.086-0.126,0.216-0.242,0.361-0.406l6.461-6.332h13.57
			l-1.356,6.104c-0.223,1.038-0.1,1.831,0.382,2.322c0.47,0.484,1.333,0.719,2.598,0.719h8.006l0.46-0.908
			c-0.755-0.108-1.298-0.403-1.614-0.835c-0.309-0.459-0.399-1.021-0.245-1.778L229.197,112.012z M216.273,128.586H205.84
			l13.347-12.302L216.273,128.586z"/>
		<path fill="#39B54A" d="M258.431,123.812l-6.047-2.343c-0.985-0.399-1.677-0.771-2.007-1.137c-0.347-0.386-0.452-0.8-0.322-1.27
			c0.379-1.27,1.15-2.276,2.357-3.048c1.186-0.762,2.596-1.158,4.223-1.158h7.465c0.842,0,1.613-0.15,2.168-0.459
			c0.603-0.319,1.102-0.807,1.494-1.459l1.95-3.36h-13.28c-3.964,0-7.366,1.003-10.215,2.999c-2.841,1.986-4.773,4.71-5.794,8.18
			c-0.4,1.413-0.394,2.525,0.052,3.36c0.425,0.846,1.337,1.519,2.701,2.023l7.055,2.516c0.964,0.319,1.599,0.716,1.942,1.144
			c0.344,0.424,0.403,0.992,0.211,1.62c-0.48,1.719-1.642,3.122-3.451,4.182c-1.793,1.094-3.88,1.627-6.272,1.627h-7.601
			c-1.176,0-1.951-0.13-2.347-0.421c-0.4-0.294-0.526-0.792-0.407-1.448h-1.15l-2.6,4.209c-0.011,0.057-0.021,0.092-0.07,0.179
			c-0.15,0.319-0.256,0.533-0.298,0.705c-0.203,0.698,0.057,1.144,0.804,1.428c0.726,0.284,2.297,0.403,4.735,0.403h9.453
			c4.841,0,8.898-1.087,12.15-3.216c3.276-2.088,5.469-5.111,6.598-8.983c0.446-1.529,0.396-2.807-0.172-3.799
			C261.202,125.274,260.094,124.457,258.431,123.812z"/>
		<path fill="#39B54A" d="M152.149,130.084c0.437-1.529,0.377-2.807-0.184-3.799c-0.558-1.011-1.656-1.828-3.313-2.474l-6.051-2.343
			c-1.003-0.399-1.673-0.771-2.024-1.137c-0.342-0.386-0.449-0.8-0.307-1.27c0.369-1.27,1.154-2.276,2.343-3.048
			c1.2-0.762,2.606-1.158,4.227-1.158h7.468c0.866,0,1.603-0.15,2.198-0.459c0.589-0.319,1.077-0.807,1.462-1.459l1.961-3.36
			h-13.282c-3.973,0-7.375,1.003-10.225,2.999c-2.85,1.986-4.779,4.71-5.792,8.18c-0.41,1.413-0.386,2.525,0.042,3.36
			c0.445,0.846,1.354,1.519,2.722,2.023l7.047,2.516c0.956,0.319,1.605,0.716,1.945,1.144c0.326,0.424,0.407,0.992,0.216,1.62
			c-0.502,1.719-1.652,3.122-3.454,4.182c-1.798,1.094-3.897,1.627-6.277,1.627h-7.596c-1.173,0-1.962-0.13-2.357-0.421
			c-0.39-0.294-0.526-0.792-0.411-1.448h-1.142l-2.592,4.209c-0.009,0.057-0.039,0.092-0.081,0.179
			c-0.162,0.319-0.261,0.533-0.296,0.705c-0.2,0.698,0.065,1.144,0.792,1.428c0.74,0.284,2.322,0.403,4.743,0.403h9.462
			c4.842,0,8.899-1.087,12.154-3.216C148.81,136.979,151.004,133.956,152.149,130.084z"/>
	</g>
</g>
</svg>
