<?xml version="1.0" encoding="utf-8"?>
<!-- Generator: Adobe Illustrator 16.0.0, SVG Export Plug-In . SVG Version: 6.00 Build 0)  -->
<!DOCTYPE svg PUBLIC "-//W3C//DTD SVG 1.1//EN" "http://www.w3.org/Graphics/SVG/1.1/DTD/svg11.dtd">
<svg version="1.1" id="Layer_1" xmlns="http://www.w3.org/2000/svg" xmlns:xlink="http://www.w3.org/1999/xlink" x="0px" y="0px"
	 width="220px" height="260px" viewBox="0 0 220 260" enable-background="new 0 0 220 260" xml:space="preserve">
<path fill="#717375" d="M188.998,158.357c-2.211-5.338-7.42-8.818-13.197-8.818h-24.797V39.043c0-7.889-6.395-14.283-14.283-14.283
	H76.611c-7.888,0-14.283,6.395-14.283,14.283v110.496H37.532c-5.777,0-10.985,3.48-13.196,8.818
	c-2.21,5.338-0.988,11.482,3.096,15.566l69.134,69.135c2.79,2.789,6.444,4.182,10.1,4.182c3.656,0,7.312-1.395,10.101-4.182
	l69.134-69.135C189.986,169.84,191.209,163.695,188.998,158.357z"/>
<path fill="#00A146" d="M192.331,152.357c-2.21-5.338-7.419-8.818-13.196-8.818h-24.797V33.043c0-7.889-6.396-14.283-14.283-14.283
	h-60.11c-7.888,0-14.283,6.395-14.283,14.283v110.496H40.865c-5.777,0-10.985,3.48-13.196,8.818
	c-2.21,5.338-0.988,11.481,3.096,15.566l69.134,69.134c2.79,2.79,6.444,4.182,10.1,4.182c3.656,0,7.312-1.395,10.101-4.182
	l69.135-69.134C193.319,163.839,194.542,157.695,192.331,152.357z"/>
</svg>
