<?xml version="1.0" encoding="utf-8"?>
<!-- Generator: Adobe Illustrator 16.0.0, SVG Export Plug-In . SVG Version: 6.00 Build 0)  -->
<!DOCTYPE svg PUBLIC "-//W3C//DTD SVG 1.1//EN" "http://www.w3.org/Graphics/SVG/1.1/DTD/svg11.dtd">
<svg version="1.1" id="Layer_1" xmlns="http://www.w3.org/2000/svg" xmlns:xlink="http://www.w3.org/1999/xlink" x="0px" y="0px"
	 width="550px" height="550px" viewBox="0 0 550 550" enable-background="new 0 0 550 550" xml:space="preserve">
<g>
	<path fill="#39B54A" d="M276.537,178.421c20.819,0,37.783,16.791,37.783,37.424s-16.964,37.41-37.783,37.41
		c-20.818,0-37.782-16.777-37.782-37.41S255.719,178.421,276.537,178.421 M276.537,259.809c24.488,0,44.404-19.715,44.404-43.964
		c0-24.263-19.916-43.951-44.404-43.951c-24.488,0-44.403,19.688-44.403,43.951C232.134,240.094,252.049,259.809,276.537,259.809"/>
	<path fill="#39B54A" d="M276.537,178.421c20.819,0,37.783,16.791,37.783,37.424s-16.964,37.41-37.783,37.41
		c-20.818,0-37.782-16.777-37.782-37.41S255.719,178.421,276.537,178.421z M276.537,259.809c24.488,0,44.404-19.715,44.404-43.964
		c0-24.263-19.916-43.951-44.404-43.951c-24.488,0-44.403,19.688-44.403,43.951C232.134,240.094,252.049,259.809,276.537,259.809z"
		/>
	<path fill="#39B54A" d="M152.767,371.27c30.231,15.979,75.752,26.774,123.771,26.774c48.02,0,93.566-10.795,123.798-26.774
		c-27.759,18.651-72.349,32.717-123.798,32.717C225.088,403.986,180.499,389.921,152.767,371.27 M94.644,216.868l181.894-73.266
		l181.921,73.266l-22.786,74.235c-0.665-0.053-1.33-0.093-2.021-0.093c-5.504,0-10.449,2.42-13.772,6.302
		c-95.108-17.615-191.52-17.615-286.681,0c-3.297-3.882-8.242-6.302-13.772-6.302c-0.665,0-1.356,0.04-2.021,0.093L94.644,216.868z
		 M415.81,305.715H137.266c-0.133-0.838-0.346-1.609-0.611-2.354c92.874-16.924,186.919-16.924,279.767,0
		C416.182,304.105,415.969,304.877,415.81,305.715 M433.65,317.095c-4.52,0-8.216-3.643-8.216-8.149
		c0-4.467,3.696-8.109,8.216-8.109c4.547,0,8.216,3.643,8.216,8.109C441.866,313.452,438.197,317.095,433.65,317.095
		 M137.266,312.242H415.81c0.505,2.686,1.622,5.185,3.218,7.285H134.048C135.644,317.427,136.761,314.928,137.266,312.242
		 M127.667,308.945c0,4.507-3.696,8.149-8.242,8.149c-4.521,0-8.216-3.643-8.216-8.149c0-4.467,3.695-8.109,8.216-8.109
		C123.971,300.836,127.667,304.479,127.667,308.945 M276.537,391.529c-86.333,0-153.311-33.448-153.789-62.271
		c0.027-0.332,0.027-0.571,0.053-0.877c0-0.585,0.08-1.21,0.16-1.821c0.931-0.16,1.808-0.439,2.686-0.705v0.239h302.5
		c0.639,0.187,1.303,0.372,1.941,0.466c0.106,0.957,0.213,1.861,0.239,2.791C429.689,358.174,362.738,391.529,276.537,391.529
		 M442,293.031l24.515-79.979l-188.728-75.991l-1.25-0.492L86.561,213.053l24.542,79.979c-5.797,2.992-9.812,9.014-9.812,15.914
		c0,8.841,6.461,16.179,14.943,17.694c-0.053,0.771-0.106,1.542-0.106,2.287c0,0.106,0,0.239,0.026,0.332
		c-0.026,0.133-0.026,0.293-0.026,0.438c0,38.155,68.625,80.844,160.409,80.844c91.838,0,160.438-42.688,160.438-80.844
		c0-0.146-0.027-0.306-0.027-0.438c0-0.093,0.027-0.226,0.027-0.332c0-0.745-0.027-1.516-0.106-2.287
		c8.455-1.516,14.942-8.854,14.942-17.694C451.811,302.045,447.822,296.036,442,293.031"/>
	<path fill="#39B54A" d="M152.767,371.27c30.231,15.979,75.752,26.774,123.771,26.774c48.02,0,93.566-10.795,123.798-26.774
		c-27.759,18.651-72.349,32.717-123.798,32.717C225.088,403.986,180.499,389.921,152.767,371.27z M94.644,216.868l181.894-73.266
		l181.921,73.266l-22.786,74.235c-0.665-0.053-1.33-0.093-2.021-0.093c-5.504,0-10.449,2.42-13.772,6.302
		c-95.108-17.615-191.52-17.615-286.681,0c-3.297-3.882-8.242-6.302-13.772-6.302c-0.665,0-1.356,0.04-2.021,0.093L94.644,216.868z
		 M415.81,305.715H137.266c-0.133-0.838-0.346-1.609-0.611-2.354c92.874-16.924,186.919-16.924,279.767,0
		C416.182,304.105,415.969,304.877,415.81,305.715z M433.65,317.095c-4.52,0-8.216-3.643-8.216-8.149
		c0-4.467,3.696-8.109,8.216-8.109c4.547,0,8.216,3.643,8.216,8.109C441.866,313.452,438.197,317.095,433.65,317.095z
		 M137.266,312.242H415.81c0.505,2.686,1.622,5.185,3.218,7.285H134.048C135.644,317.427,136.761,314.928,137.266,312.242z
		 M127.667,308.945c0,4.507-3.696,8.149-8.242,8.149c-4.521,0-8.216-3.643-8.216-8.149c0-4.467,3.695-8.109,8.216-8.109
		C123.971,300.836,127.667,304.479,127.667,308.945z M276.537,391.529c-86.333,0-153.311-33.448-153.789-62.271
		c0.027-0.332,0.027-0.571,0.053-0.877c0-0.585,0.08-1.21,0.16-1.821c0.931-0.16,1.808-0.439,2.686-0.705v0.239h302.5
		c0.639,0.187,1.303,0.372,1.941,0.466c0.106,0.957,0.213,1.861,0.239,2.791C429.689,358.174,362.738,391.529,276.537,391.529z
		 M442,293.031l24.515-79.979l-188.728-75.991l-1.25-0.492L86.561,213.053l24.542,79.979c-5.797,2.992-9.812,9.014-9.812,15.914
		c0,8.841,6.461,16.179,14.943,17.694c-0.053,0.771-0.106,1.542-0.106,2.287c0,0.106,0,0.239,0.026,0.332
		c-0.026,0.133-0.026,0.293-0.026,0.438c0,38.155,68.625,80.844,160.409,80.844c91.838,0,160.438-42.688,160.438-80.844
		c0-0.146-0.027-0.306-0.027-0.438c0-0.093,0.027-0.226,0.027-0.332c0-0.745-0.027-1.516-0.106-2.287
		c8.455-1.516,14.942-8.854,14.942-17.694C451.811,302.045,447.822,296.036,442,293.031z"/>
	<path fill="#39B54A" d="M275.634,194.985L275.634,194.985v1.622c0.691,0,1.276,0.505,1.276,1.197
		c0.026,0.319-0.08,0.665-0.346,0.917c-0.239,0.226-0.559,0.385-0.931,0.385c-0.665,0-1.25-0.545-1.276-1.209
		c0-0.691,0.532-1.29,1.25-1.29L275.634,194.985z M255.001,224.14c2.525,9.505,11.167,16.299,21.377,16.299l0.798-0.04
		c10.529-0.372,19.144-7.99,20.952-17.908l1.728,1.516l3.829-4.001l-8.429-7.751l-7.844,8.336l4.095,3.762l0.026-0.053
		c-1.914,4.932-6.222,8.748-11.592,9.931l-1.091-30.59c2.181-1.197,3.563-3.51,3.457-6.049c-0.16-3.576-3.058-6.368-6.887-6.368
		h-0.026c-1.782,0.08-3.403,0.824-4.653,2.127c-1.196,1.276-1.808,2.965-1.781,4.706c0.106,2.553,1.675,4.772,3.935,5.81
		l1.09,30.564c-5.504-0.785-10.157-4.374-12.391-9.266l0.266,0.239l3.803-4.042l-8.429-7.75l-7.791,8.335l4.068,3.749
		L255.001,224.14z"/>
	<path fill="#39B54A" d="M275.634,194.985L275.634,194.985v1.622c0.691,0,1.276,0.505,1.276,1.197
		c0.026,0.319-0.08,0.665-0.346,0.917c-0.239,0.226-0.559,0.385-0.931,0.385c-0.665,0-1.25-0.545-1.276-1.209
		c0-0.691,0.532-1.29,1.25-1.29L275.634,194.985z M255.001,224.14c2.525,9.505,11.167,16.299,21.377,16.299l0.798-0.04
		c10.529-0.372,19.144-7.99,20.952-17.908l1.728,1.516l3.829-4.001l-8.429-7.751l-7.844,8.336l4.095,3.762l0.026-0.053
		c-1.914,4.932-6.222,8.748-11.592,9.931l-1.091-30.59c2.181-1.197,3.563-3.51,3.457-6.049c-0.16-3.576-3.058-6.368-6.887-6.368
		h-0.026c-1.782,0.08-3.403,0.824-4.653,2.127c-1.196,1.276-1.808,2.965-1.781,4.706c0.106,2.553,1.675,4.772,3.935,5.81
		l1.09,30.564c-5.504-0.785-10.157-4.374-12.391-9.266l0.266,0.239l3.803-4.042l-8.429-7.75l-7.791,8.335l4.068,3.749
		L255.001,224.14z"/>
	<path fill="#39B54A" d="M276.537,538.26c-145.998,0-264.771-118.799-264.771-264.771c0-146.025,118.772-264.798,264.771-264.798
		c145.999,0,264.798,118.772,264.798,264.798C541.335,419.461,422.536,538.26,276.537,538.26z M276.537,38.551
		c-129.54,0-234.911,105.358-234.911,234.938c0,129.514,105.371,234.911,234.911,234.911c129.541,0,234.965-105.397,234.965-234.911
		C511.502,143.909,406.078,38.551,276.537,38.551z"/>
</g>
</svg>
