<?xml version="1.0" encoding="utf-8"?>
<!-- Generator: Adobe Illustrator 16.0.0, SVG Export Plug-In . SVG Version: 6.00 Build 0)  -->
<!DOCTYPE svg PUBLIC "-//W3C//DTD SVG 1.1//EN" "http://www.w3.org/Graphics/SVG/1.1/DTD/svg11.dtd">
<svg version="1.1" id="Layer_1" xmlns="http://www.w3.org/2000/svg" xmlns:xlink="http://www.w3.org/1999/xlink" x="0px" y="0px"
	 width="86.5px" height="86.5px" viewBox="0 0 86.5 86.5" enable-background="new 0 0 86.5 86.5" xml:space="preserve">
<path fill-rule="evenodd" clip-rule="evenodd" fill="#FFFFFF" d="M51.889,42.686l-13.982,7.567V38.614v-3.541l6.304,3.452
	L51.889,42.686z M63.178,7.668H23.323c-8.598,0-15.656,7.059-15.656,15.656v39.805c0,8.645,7.059,15.703,15.656,15.703h39.855
	c8.598,0,15.656-7.059,15.656-15.703V23.324C78.834,14.727,71.775,7.668,63.178,7.668z M69.146,41.956v3.341
	c0,4.358-0.51,8.74-0.51,8.74s-0.51,3.717-2.057,5.354c-1.969,2.146-4.182,2.168-5.199,2.279
	c-7.258,0.554-18.121,0.575-18.121,0.575s-13.473-0.133-17.611-0.554c-1.148-0.222-3.738-0.154-5.729-2.301
	c-1.549-1.638-2.035-5.354-2.035-5.354s-0.531-4.382-0.531-8.74v-3.585v-0.53c0-4.359,0.531-8.741,0.531-8.741
	s0.486-3.717,2.035-5.354c1.99-2.146,4.182-2.168,5.199-2.279c7.256-0.553,18.119-0.553,18.119-0.553h0.021
	c0,0,10.863,0,18.121,0.553c1.018,0.111,3.23,0.133,5.199,2.279c1.547,1.637,2.057,5.354,2.057,5.354s0.51,4.381,0.51,8.741V41.956z
	"/>
</svg>
