<?xml version="1.0" encoding="utf-8"?>
<!-- Generator: Adobe Illustrator 16.0.0, SVG Export Plug-In . SVG Version: 6.00 Build 0)  -->
<!DOCTYPE svg PUBLIC "-//W3C//DTD SVG 1.1//EN" "http://www.w3.org/Graphics/SVG/1.1/DTD/svg11.dtd">
<svg version="1.1" id="Layer_1" xmlns="http://www.w3.org/2000/svg" xmlns:xlink="http://www.w3.org/1999/xlink" x="0px" y="0px"
	 width="86.5px" height="86.5px" viewBox="0 0 86.5 86.5" enable-background="new 0 0 86.5 86.5" xml:space="preserve">
<path fill="#FFFFFF" d="M64.212,7.667H22.288c-8.07,0-14.622,6.551-14.622,14.62v41.924c0,8.081,6.551,14.622,14.622,14.622h23.971
	V50.531h-9.728V39.568h9.728v-7.74c0.037-7.412,2.729-9.941,2.729-9.941c3.929-5.128,10.128-4.974,10.128-4.974h1.673h8.162v10.315
	h-6.577c-4.505-0.069-4.879,3.742-4.904,4.6v7.74h10.997l-1.351,10.963H57.47v28.302h6.742c8.081,0,14.621-6.541,14.621-14.622
	V22.287C78.833,14.219,72.293,7.667,64.212,7.667z"/>
</svg>
