<svg xmlns="http://www.w3.org/2000/svg" width="86.5" height="86.5" fill="#fff"><path d="M57.1 41a4.66 4.66 0 0 0-4.658 4.655c0 2.565 2.1 4.665 4.658 4.665 2.583 0 4.66-2.1 4.66-4.665A4.65 4.65 0 0 0 57.101 41zm0 6.918c-1.3 0-2.34-1.06-2.34-2.352a2.34 2.34 0 0 1 2.34-2.325 2.33 2.33 0 0 1 2.326 2.325c0 1.293-1.042 2.352-2.326 2.352zM29.397 34.575a11.15 11.15 0 0 0-11.151 11.151c0 6.178 4.98 11.163 11.15 11.163a11.15 11.15 0 0 0 11.159-11.163c0-6.155-5-11.15-11.16-11.15zm-.16 17.845c-3.712 0-6.72-3-6.72-6.725a6.73 6.73 0 0 1 6.72-6.722 6.73 6.73 0 0 1 6.727 6.722 6.72 6.72 0 0 1-6.727 6.725zm-.001-11.38c-2.575 0-4.65 2.08-4.65 4.654s2.076 4.666 4.65 4.666a4.67 4.67 0 0 0 4.666-4.666 4.66 4.66 0 0 0-4.666-4.654zm.007 6.887a2.35 2.35 0 0 1-2.34-2.352 2.34 2.34 0 0 1 2.34-2.325c1.284 0 2.333 1.047 2.333 2.325a2.35 2.35 0 0 1-2.333 2.352zm27.437-16.04c-3.97-1.728-8.474-2.66-13.426-2.66-4.945 0-9.875.92-13.836 2.648 7.637.01 13.836 6.218 13.836 13.85 0-7.5 5.972-13.613 13.426-13.84zm7.532-24.22H22.288c-8.07 0-14.622 6.552-14.622 14.62V64.2c0 8.08 6.55 14.622 14.622 14.622h41.924c8.08 0 14.62-6.54 14.62-14.622V22.287c0-8.068-6.54-14.62-14.62-14.62zm6.753 38.06c0 7.656-6.207 13.862-13.852 13.862a13.8 13.8 0 0 1-10.755-5.111c-1.122 1.375-3.104 4.336-3.104 4.336-.352-.704-2.062-3.137-3.103-4.347a13.82 13.82 0 0 1-10.755 5.122c-7.645 0-13.85-6.206-13.85-13.862 0-3.03 1-5.845 2.634-8.13-.257-1.563-1.32-3.85-2.758-5.524h8.826c4.7-3.177 11.613-5.16 19.008-5.16s13.844 1.984 18.568 5.16h9.26c-1.438 1.686-2.5 3.96-2.766 5.524 1.66 2.285 2.65 5.1 2.65 8.13zm-13.85-11.152a11.16 11.16 0 0 0-11.158 11.151c0 6.178 4.996 11.163 11.158 11.163 6.155 0 11.145-4.985 11.145-11.163a11.16 11.16 0 0 0-11.145-11.15zM57.1 52.4a6.72 6.72 0 0 1-6.72-6.724c0-3.705 3.015-6.723 6.72-6.723 3.712 0 6.735 3.018 6.735 6.723A6.73 6.73 0 0 1 57.1 52.39z"/></svg>