<svg width="512" height="512" xmlns="http://www.w3.org/2000/svg">

 <g>
  <title>background</title>
  <rect fill="none" id="canvas_background" height="402" width="582" y="-1" x="-1"/>
 </g>
 <g>
  <title>Layer 1</title>
  <path id="svg_2" fill-rule="evenodd" clip-rule="evenodd" fill="#fdf7f7" d="m205.918,215.982c0,-11.053 -9.094,-19.982 -20.176,-19.982l-49.742,0l0,40l49.743,0c11.081,0 20.175,-8.951 20.175,-20.018z"/>
  <path id="svg_3" fill-rule="evenodd" clip-rule="evenodd" fill="#fdf7f7" d="m185.743,266l-49.743,0l0,50l59.972,0c11.071,0 19.86,-12.942 19.86,-24.021c0,-21.26 -19.008,-25.979 -30.089,-25.979z"/>
  <path id="svg_4" fill-rule="evenodd" clip-rule="evenodd" fill="#fdf7f7" d="m434.479,16l-356.958,0c-33.804,0 -61.521,27.718 -61.521,61.522l0,356.955c0,33.804 27.717,61.523 61.521,61.523l356.957,0c33.808,0 61.522,-27.719 61.522,-61.522l0,-356.956c0,-33.804 -27.714,-61.522 -61.521,-61.522zm-138.479,150l90,0l0,30l-90,0l0,-30zm-100.028,190l-99.972,0l0,-200l99.972,0c27.521,0 49.936,22.331 49.936,50.146c0,17.872 -9.646,33.703 -23.832,42.496c19.573,6.805 34.058,25.445 34.058,47.293c-0.001,33.172 -27.254,60.065 -60.162,60.065zm220.028,-70l-109.919,0c1.407,22 16.164,40.031 35.179,40.031c18.718,0 29.23,-12.031 32.916,-30.031l40.576,0c-6.805,34 -28.374,60.123 -73.492,60.123c-45.4,0 -75.204,-33.466 -75.204,-75.167c0,-41.426 29.717,-74.871 75.117,-74.871c45.118,0 74.827,33.446 74.827,74.864c0,1.691 0,3.051 0,5.051z"/>
  <path id="svg_5" fill-rule="evenodd" clip-rule="evenodd" fill="#fdf7f7" d="m341.26,236.207c-17.593,0 -30.927,11.793 -33.213,29.793l66.129,0c-2.844,-18 -15.613,-29.793 -32.916,-29.793z"/>
 </g>
</svg>