<?xml version="1.0" encoding="utf-8"?>
<!-- Generator: Adobe Illustrator 16.0.0, SVG Export Plug-In . SVG Version: 6.00 Build 0)  -->
<!DOCTYPE svg PUBLIC "-//W3C//DTD SVG 1.1//EN" "http://www.w3.org/Graphics/SVG/1.1/DTD/svg11.dtd">
<svg version="1.1" id="Layer_1" xmlns="http://www.w3.org/2000/svg" xmlns:xlink="http://www.w3.org/1999/xlink" x="0px" y="0px"
	 width="86.5px" height="86.5px" viewBox="0 0 86.5 86.5" enable-background="new 0 0 86.5 86.5" xml:space="preserve">
<g>
	<path fill="#FFFFFF" d="M57.099,41.01c-2.567,0-4.658,2.08-4.658,4.655c0,2.565,2.091,4.665,4.658,4.665
		c2.583,0,4.659-2.1,4.659-4.665C61.758,43.09,59.682,41.01,57.099,41.01z M57.099,47.928c-1.291,0-2.34-1.059-2.34-2.352
		c0-1.278,1.049-2.325,2.34-2.325c1.284,0,2.326,1.047,2.326,2.325C59.425,46.869,58.383,47.928,57.099,47.928z"/>
	<path fill="#FFFFFF" d="M29.397,34.575c-6.17,0-11.151,4.996-11.151,11.151c0,6.178,4.981,11.163,11.151,11.163
		s11.159-4.985,11.159-11.163C40.556,39.571,35.567,34.575,29.397,34.575z M29.236,52.42c-3.712,0-6.72-3.001-6.72-6.725
		c0-3.704,3.008-6.722,6.72-6.722c3.719,0,6.727,3.018,6.727,6.722C35.963,49.419,32.955,52.42,29.236,52.42z"/>
	<path fill="#FFFFFF" d="M29.236,41.041c-2.575,0-4.651,2.08-4.651,4.654c0,2.575,2.076,4.666,4.651,4.666
		c2.575,0,4.666-2.091,4.666-4.666C33.901,43.121,31.811,41.041,29.236,41.041z M29.243,47.928c-1.292,0-2.34-1.059-2.34-2.352
		c0-1.278,1.049-2.325,2.34-2.325c1.284,0,2.333,1.047,2.333,2.325C31.576,46.869,30.527,47.928,29.243,47.928z"/>
	<path fill="#FFFFFF" d="M56.681,31.887c-3.969-1.728-8.474-2.659-13.426-2.659c-4.945,0-9.875,0.921-13.836,2.648
		c7.637,0.011,13.836,6.218,13.836,13.851C43.255,38.228,49.227,32.114,56.681,31.887z"/>
	<path fill="#FFFFFF" d="M64.212,7.667H22.288c-8.07,0-14.622,6.552-14.622,14.62v41.924c0,8.081,6.551,14.622,14.622,14.622h6.573
		h17.398H57.47h5.245h1.497c8.081,0,14.621-6.541,14.621-14.622V22.287C78.833,14.219,72.293,7.667,64.212,7.667z M70.965,45.727
		c0,7.656-6.207,13.862-13.852,13.862c-4.343,0-8.224-1.986-10.755-5.111c-1.122,1.375-3.104,4.336-3.104,4.336
		c-0.352-0.704-2.062-3.137-3.103-4.347c-2.531,3.125-6.419,5.122-10.755,5.122c-7.645,0-13.851-6.206-13.851-13.862
		c0-3.029,0.99-5.845,2.634-8.13c-0.257-1.563-1.321-3.849-2.758-5.524h8.826c4.71-3.177,11.613-5.161,19.008-5.161
		c7.396,0,13.844,1.984,18.568,5.161h9.259c-1.438,1.686-2.509,3.961-2.766,5.524C69.975,39.882,70.965,42.697,70.965,45.727z"/>
	<path fill="#FFFFFF" d="M57.114,34.575c-6.162,0-11.158,4.996-11.158,11.151c0,6.178,4.996,11.163,11.158,11.163
		c6.155,0,11.145-4.985,11.145-11.163C68.258,39.571,63.269,34.575,57.114,34.575z M57.099,52.389c-3.705,0-6.72-3.001-6.72-6.724
		c0-3.705,3.015-6.723,6.72-6.723c3.712,0,6.735,3.018,6.735,6.723C63.834,49.388,60.811,52.389,57.099,52.389z"/>
</g>
</svg>
