<svg width="1792" height="1792" xmlns="http://www.w3.org/2000/svg">

 <g>
  <title>background</title>
  <rect fill="none" id="canvas_background" height="402" width="582" y="-1" x="-1"/>
 </g>
 <g>
  <title>Layer 1</title>
  <path fill="#fdf7f7" id="svg_1" d="m1408,610q-56,25 -121,34q68,-40 93,-117q-65,38 -134,51q-61,-66 -153,-66q-87,0 -148.5,61.5t-61.5,148.5q0,29 5,48q-129,-7 -242,-65t-192,-155q-29,50 -29,106q0,114 91,175q-47,-1 -100,-26l0,2q0,75 50,133.5t123,72.5q-29,8 -51,8q-13,0 -39,-4q21,63 74.5,104t121.5,42q-116,90 -261,90q-26,0 -50,-3q148,94 322,94q112,0 210,-35.5t168,-95t120.5,-137t75,-162t24.5,-168.5q0,-18 -1,-27q63,-45 105,-109zm256,-194l0,960q0,119 -84.5,203.5t-203.5,84.5l-960,0q-119,0 -203.5,-84.5t-84.5,-203.5l0,-960q0,-119 84.5,-203.5t203.5,-84.5l960,0q119,0 203.5,84.5t84.5,203.5z"/>
 </g>
</svg>